solid bus_camera_holder
facet normal 0.0 0.0 1.0
  outer loop
    vertex -19.999999999999993 2.449293598294706e-15 19.999999999999996
    vertex -32.99999999999999 2.9999999999999956 19.999999999999996
    vertex -32.99999999999999 1.408343819019456e-15 19.999999999999996
  endloop
endfacet
facet normal 0.0 0.0 1.0
  outer loop
    vertex -32.99999999999999 2.9999999999999956 19.999999999999996
    vertex -19.999999999999993 2.449293598294706e-15 19.999999999999996
    vertex -22.608147002324284 2.9999999999999956 19.999999999999996
  endloop
endfacet
facet normal 0.0 0.0 1.0
  outer loop
    vertex -22.608147002324284 2.9999999999999956 19.999999999999996
    vertex -19.999999999999993 2.449293598294706e-15 19.999999999999996
    vertex -22.216294004648567 5.9528380373579814 19.999999999999996
  endloop
endfacet
facet normal 0.0 0.0 1.0
  outer loop
    vertex -22.216294004648567 5.9528380373579814 19.999999999999996
    vertex -19.999999999999993 2.449293598294706e-15 19.999999999999996
    vertex -19.918584287042087 11.500000000000002 19.999999999999996
  endloop
endfacet
facet normal 0.0 0.0 1.0
  outer loop
    vertex -19.918584287042087 11.500000000000002 19.999999999999996
    vertex -19.999999999999993 2.449293598294706e-15 19.999999999999996
    vertex -19.31851652578136 5.176380902050419 19.999999999999996
  endloop
endfacet
facet normal 0.0 0.0 1.0
  outer loop
    vertex -19.918584287042087 11.500000000000002 19.999999999999996
    vertex -19.31851652578136 5.176380902050419 19.999999999999996
    vertex -16.26345596729059 16.263455967290593 19.999999999999996
  endloop
endfacet
facet normal 0.0 0.0 1.0
  outer loop
    vertex -16.26345596729059 16.263455967290593 19.999999999999996
    vertex -19.31851652578136 5.176380902050419 19.999999999999996
    vertex -17.320508075688764 10.000000000000005 19.999999999999996
  endloop
endfacet
facet normal 0.0 0.0 1.0
  outer loop
    vertex -16.26345596729059 16.263455967290593 19.999999999999996
    vertex -17.320508075688764 10.000000000000005 19.999999999999996
    vertex -14.142135623730944 14.14213562373095 19.999999999999996
  endloop
endfacet
facet normal 0.0 0.0 1.0
  outer loop
    vertex -16.26345596729059 16.263455967290593 19.999999999999996
    vertex -14.142135623730944 14.14213562373095 19.999999999999996
    vertex -11.499999999999996 19.918584287042087 19.999999999999996
  endloop
endfacet
facet normal 0.0 0.0 1.0
  outer loop
    vertex -11.499999999999996 19.918584287042087 19.999999999999996
    vertex -14.142135623730944 14.14213562373095 19.999999999999996
    vertex -9.999999999999993 17.32050807568877 19.999999999999996
  endloop
endfacet
facet normal 0.0 0.0 1.0
  outer loop
    vertex -11.499999999999996 19.918584287042087 19.999999999999996
    vertex -9.999999999999993 17.32050807568877 19.999999999999996
    vertex -5.952838037357976 22.21629400464857 19.999999999999996
  endloop
endfacet
facet normal 0.0 0.0 1.0
  outer loop
    vertex -5.952838037357976 22.21629400464857 19.999999999999996
    vertex -9.999999999999993 17.32050807568877 19.999999999999996
    vertex -5.176380902050411 19.318516525781362 19.999999999999996
  endloop
endfacet
facet normal 0.0 0.0 1.0
  outer loop
    vertex -5.952838037357976 22.21629400464857 19.999999999999996
    vertex -5.176380902050411 19.318516525781362 19.999999999999996
    vertex 0.0 22.999999999999996 19.999999999999996
  endloop
endfacet
facet normal 0.0 0.0 1.0
  outer loop
    vertex 0.0 22.999999999999996 19.999999999999996
    vertex -5.176380902050411 19.318516525781362 19.999999999999996
    vertex 1.2246467991473529e-15 19.999999999999996 19.999999999999996
  endloop
endfacet
facet normal 0.0 0.0 1.0
  outer loop
    vertex 0.0 22.999999999999996 19.999999999999996
    vertex 1.2246467991473529e-15 19.999999999999996 19.999999999999996
    vertex 5.952838037357996 22.216294004648564 19.999999999999996
  endloop
endfacet
facet normal 0.0 0.0 1.0
  outer loop
    vertex 5.952838037357996 22.216294004648564 19.999999999999996
    vertex 1.2246467991473529e-15 19.999999999999996 19.999999999999996
    vertex 5.176380902050418 19.318516525781362 19.999999999999996
  endloop
endfacet
facet normal 0.0 0.0 1.0
  outer loop
    vertex 5.952838037357996 22.216294004648564 19.999999999999996
    vertex 5.176380902050418 19.318516525781362 19.999999999999996
    vertex 10.0 17.32050807568877 19.999999999999996
  endloop
endfacet
facet normal 0.0 0.0 1.0
  outer loop
    vertex 5.952838037357996 22.216294004648564 19.999999999999996
    vertex 10.0 17.32050807568877 19.999999999999996
    vertex 11.500000000000009 19.91858428704208 19.999999999999996
  endloop
endfacet
facet normal 0.0 0.0 1.0
  outer loop
    vertex 11.500000000000009 19.91858428704208 19.999999999999996
    vertex 10.0 17.32050807568877 19.999999999999996
    vertex 14.142135623730946 14.142135623730946 19.999999999999996
  endloop
endfacet
facet normal 0.0 0.0 1.0
  outer loop
    vertex 11.500000000000009 19.91858428704208 19.999999999999996
    vertex 14.142135623730946 14.142135623730946 19.999999999999996
    vertex 16.263455967290593 16.26345596729059 19.999999999999996
  endloop
endfacet
facet normal 0.0 0.0 1.0
  outer loop
    vertex 16.263455967290593 16.26345596729059 19.999999999999996
    vertex 14.142135623730946 14.142135623730946 19.999999999999996
    vertex 17.32050807568877 9.999999999999996 19.999999999999996
  endloop
endfacet
facet normal 0.0 0.0 1.0
  outer loop
    vertex 16.263455967290593 16.26345596729059 19.999999999999996
    vertex 17.32050807568877 9.999999999999996 19.999999999999996
    vertex 19.918584287042094 11.499999999999984 19.999999999999996
  endloop
endfacet
facet normal 0.0 0.0 1.0
  outer loop
    vertex 19.918584287042094 11.499999999999984 19.999999999999996
    vertex 17.32050807568877 9.999999999999996 19.999999999999996
    vertex 19.31851652578136 5.176380902050414 19.999999999999996
  endloop
endfacet
facet normal 0.0 0.0 1.0
  outer loop
    vertex 19.918584287042094 11.499999999999984 19.999999999999996
    vertex 19.31851652578136 5.176380902050414 19.999999999999996
    vertex 19.999999999999993 0.0 19.999999999999996
  endloop
endfacet
facet normal 0.0 0.0 1.0
  outer loop
    vertex 19.918584287042094 11.499999999999984 19.999999999999996
    vertex 19.999999999999993 0.0 19.999999999999996
    vertex 22.21629400464857 5.9528380373579655 19.999999999999996
  endloop
endfacet
facet normal 0.0 0.0 1.0
  outer loop
    vertex 22.21629400464857 5.9528380373579655 19.999999999999996
    vertex 19.999999999999993 0.0 19.999999999999996
    vertex 22.599999999999998 2.9999999999999956 19.999999999999996
  endloop
endfacet
facet normal 0.0 0.0 1.0
  outer loop
    vertex 22.599999999999998 2.9999999999999956 19.999999999999996
    vertex 19.999999999999993 0.0 19.999999999999996
    vertex 32.99999999999999 -4.225031457058367e-15 19.999999999999996
  endloop
endfacet
facet normal 0.0 0.0 1.0
  outer loop
    vertex 22.599999999999998 2.9999999999999956 19.999999999999996
    vertex 32.99999999999999 -4.225031457058367e-15 19.999999999999996
    vertex 32.99999999999999 2.9999999999999956 19.999999999999996
  endloop
endfacet
facet normal 1.0 0.0 0.0
  outer loop
    vertex 32.99999999999999 2.9999999999999956 0.0
    vertex 32.99999999999999 -4.225031457058367e-15 19.999999999999996
    vertex 32.99999999999999 -4.225031457058367e-15 0.0
  endloop
endfacet
facet normal 1.0 0.0 0.0
  outer loop
    vertex 32.99999999999999 -4.225031457058367e-15 19.999999999999996
    vertex 32.99999999999999 2.9999999999999956 0.0
    vertex 32.99999999999999 2.9999999999999956 19.999999999999996
  endloop
endfacet
facet normal -3.250024197737206e-16 -1.0 -0.0
  outer loop
    vertex 32.99999999999999 -4.225031457058367e-15 0.0
    vertex 27.61513524851504 -2.474937382671542e-15 8.996768532431673
    vertex 19.999999999999993 0.0 0.0
  endloop
endfacet
facet normal -3.250024197737206e-16 -1.0 -0.0
  outer loop
    vertex 27.61513524851504 -2.474937382671542e-15 8.996768532431673
    vertex 32.99999999999999 -4.225031457058367e-15 0.0
    vertex 27.83679334679879 -2.546976800976202e-15 9.319571055910695
  endloop
endfacet
facet normal -3.250024197737206e-16 -1.0 -0.0
  outer loop
    vertex 27.83679334679879 -2.546976800976202e-15 9.319571055910695
    vertex 32.99999999999999 -4.225031457058367e-15 0.0
    vertex 32.99999999999999 -4.225031457058367e-15 19.999999999999996
  endloop
endfacet
facet normal -3.250024197737206e-16 -1.0 -0.0
  outer loop
    vertex 19.999999999999993 0.0 0.0
    vertex 27.61513524851504 -2.474937382671542e-15 8.996768532431673
    vertex 27.31748252589312 -2.3781995275671817e-15 8.742334575549043
  endloop
endfacet
facet normal -3.250024197737206e-16 -1.0 -0.0
  outer loop
    vertex 19.999999999999993 0.0 0.0
    vertex 27.31748252589312 -2.3781995275671817e-15 8.742334575549043
    vertex 26.964119720085332 -2.26335576062162e-15 8.573608438952363
  endloop
endfacet
facet normal -3.250024197737206e-16 -1.0 -0.0
  outer loop
    vertex 19.999999999999993 0.0 0.0
    vertex 26.964119720085332 -2.26335576062162e-15 8.573608438952363
    vertex 26.579127922347833 -2.138232494763898e-15 8.50208853001757
  endloop
endfacet
facet normal -3.250024197737206e-16 -1.0 -0.0
  outer loop
    vertex 27.83679334679879 -2.546976800976202e-15 9.319571055910695
    vertex 32.99999999999999 -4.225031457058367e-15 19.999999999999996
    vertex 27.967351187653655 -2.5894084151744675e-15 9.688743687467404
  endloop
endfacet
facet normal -3.250024197737206e-16 -1.0 -0.0
  outer loop
    vertex 27.967351187653655 -2.5894084151744675e-15 9.688743687467404
    vertex 32.99999999999999 -4.225031457058367e-15 19.999999999999996
    vertex 27.997911469982423 -2.5993405808802844e-15 10.079127922347835
  endloop
endfacet
facet normal -3.250024197737206e-16 -1.0 -0.0
  outer loop
    vertex 27.997911469982423 -2.5993405808802844e-15 10.079127922347835
    vertex 32.99999999999999 -4.225031457058367e-15 19.999999999999996
    vertex 27.926391561047634 -2.5760964374144812e-15 10.464119720085334
  endloop
endfacet
facet normal -3.250024197737206e-16 -1.0 -0.0
  outer loop
    vertex 27.926391561047634 -2.5760964374144812e-15 10.464119720085334
    vertex 32.99999999999999 -4.225031457058367e-15 19.999999999999996
    vertex 27.757665424450952 -2.521260034741489e-15 10.817482525893121
  endloop
endfacet
facet normal -3.250024197737206e-16 -1.0 -0.0
  outer loop
    vertex 27.757665424450952 -2.521260034741489e-15 10.817482525893121
    vertex 32.99999999999999 -4.225031457058367e-15 19.999999999999996
    vertex 27.50323146756832 -2.438568383082032e-15 11.11513524851504
  endloop
endfacet
facet normal -3.250024197737206e-16 -1.0 -0.0
  outer loop
    vertex 27.50323146756832 -2.438568383082032e-15 11.11513524851504
    vertex 32.99999999999999 -4.225031457058367e-15 19.999999999999996
    vertex 27.1804289440893 -2.333656781842287e-15 11.33679334679879
  endloop
endfacet
facet normal -3.250024197737206e-16 -1.0 -0.0
  outer loop
    vertex 27.1804289440893 -2.333656781842287e-15 11.33679334679879
    vertex 32.99999999999999 -4.225031457058367e-15 19.999999999999996
    vertex 26.811256312532592 -2.2136747832721235e-15 11.467351187653662
  endloop
endfacet
facet normal -3.250024197737206e-16 -1.0 -0.0
  outer loop
    vertex 26.811256312532592 -2.2136747832721235e-15 11.467351187653662
    vertex 32.99999999999999 -4.225031457058367e-15 19.999999999999996
    vertex 26.42087207765216 -2.0867989622944715e-15 11.497911469982427
  endloop
endfacet
facet normal -3.250024197737206e-16 -1.0 -0.0
  outer loop
    vertex 19.999999999999993 0.0 0.0
    vertex 25.242334575549037 -1.7037714223168805e-15 9.182517474106877
    vertex 19.999999999999993 0.0 19.999999999999996
  endloop
endfacet
facet normal -3.250024197737206e-16 -1.0 -0.0
  outer loop
    vertex 25.242334575549037 -1.7037714223168805e-15 9.182517474106877
    vertex 19.999999999999993 0.0 0.0
    vertex 25.496768532431673 -1.7864630739763375e-15 8.884864751484956
  endloop
endfacet
facet normal -3.250024197737206e-16 -1.0 -0.0
  outer loop
    vertex 25.496768532431673 -1.7864630739763375e-15 8.884864751484956
    vertex 19.999999999999993 0.0 0.0
    vertex 25.819571055910693 -1.8913746752160826e-15 8.663206653201208
  endloop
endfacet
facet normal -3.250024197737206e-16 -1.0 -0.0
  outer loop
    vertex 25.819571055910693 -1.8913746752160826e-15 8.663206653201208
    vertex 19.999999999999993 0.0 0.0
    vertex 26.1887436874674 -2.011356673786246e-15 8.532648812346336
  endloop
endfacet
facet normal -3.250024197737206e-16 -1.0 -0.0
  outer loop
    vertex 26.1887436874674 -2.011356673786246e-15 8.532648812346336
    vertex 19.999999999999993 0.0 0.0
    vertex 26.579127922347833 -2.138232494763898e-15 8.50208853001757
  endloop
endfacet
facet normal -3.250024197737206e-16 -1.0 -0.0
  outer loop
    vertex 19.999999999999993 0.0 19.999999999999996
    vertex 25.242334575549037 -1.7037714223168805e-15 9.182517474106877
    vertex 25.07360843895236 -1.6489350196438883e-15 9.535880279914663
  endloop
endfacet
facet normal -3.250024197737206e-16 -1.0 -0.0
  outer loop
    vertex 19.999999999999993 0.0 19.999999999999996
    vertex 25.07360843895236 -1.6489350196438883e-15 9.535880279914663
    vertex 25.00208853001757 -1.6256908761780853e-15 9.920872077652161
  endloop
endfacet
facet normal -3.250024197737206e-16 -1.0 -0.0
  outer loop
    vertex 19.999999999999993 0.0 19.999999999999996
    vertex 25.00208853001757 -1.6256908761780853e-15 9.920872077652161
    vertex 25.032648812346334 -1.6356230418839022e-15 10.311256312532592
  endloop
endfacet
facet normal -3.250024197737206e-16 -1.0 -0.0
  outer loop
    vertex 19.999999999999993 0.0 19.999999999999996
    vertex 25.032648812346334 -1.6356230418839022e-15 10.311256312532592
    vertex 25.163206653201204 -1.6780546560821675e-15 10.680428944089304
  endloop
endfacet
facet normal -3.250024197737206e-16 -1.0 -0.0
  outer loop
    vertex 19.999999999999993 0.0 19.999999999999996
    vertex 25.163206653201204 -1.6780546560821675e-15 10.680428944089304
    vertex 25.384864751484955 -1.7500940743868276e-15 11.003231467568325
  endloop
endfacet
facet normal -3.250024197737206e-16 -1.0 -0.0
  outer loop
    vertex 19.999999999999993 0.0 19.999999999999996
    vertex 25.384864751484955 -1.7500940743868276e-15 11.003231467568325
    vertex 25.682517474106874 -1.8468319294911876e-15 11.257665424450956
  endloop
endfacet
facet normal -3.250024197737206e-16 -1.0 -0.0
  outer loop
    vertex 19.999999999999993 0.0 19.999999999999996
    vertex 25.682517474106874 -1.8468319294911876e-15 11.257665424450956
    vertex 26.03588027991466 -1.9616756964367496e-15 11.426391561047634
  endloop
endfacet
facet normal -3.250024197737206e-16 -1.0 -0.0
  outer loop
    vertex 19.999999999999993 0.0 19.999999999999996
    vertex 26.03588027991466 -1.9616756964367496e-15 11.426391561047634
    vertex 26.42087207765216 -2.0867989622944715e-15 11.497911469982427
  endloop
endfacet
facet normal -3.250024197737206e-16 -1.0 -0.0
  outer loop
    vertex 19.999999999999993 0.0 19.999999999999996
    vertex 26.42087207765216 -2.0867989622944715e-15 11.497911469982427
    vertex 32.99999999999999 -4.225031457058367e-15 19.999999999999996
  endloop
endfacet
facet normal -0.9914448613738104 -0.13052619222005177 -0.0
  outer loop
    vertex 19.31851652578136 5.176380902050414 19.999999999999996
    vertex 19.999999999999993 0.0 0.0
    vertex 19.999999999999993 0.0 19.999999999999996
  endloop
endfacet
facet normal -0.9914448613738104 -0.13052619222005177 -0.0
  outer loop
    vertex 19.999999999999993 0.0 0.0
    vertex 19.31851652578136 5.176380902050414 19.999999999999996
    vertex 19.31851652578136 5.176380902050414 0.0
  endloop
endfacet
facet normal -0.923879532511287 -0.3826834323650894 -0.0
  outer loop
    vertex 17.32050807568877 9.999999999999996 19.999999999999996
    vertex 19.31851652578136 5.176380902050414 0.0
    vertex 19.31851652578136 5.176380902050414 19.999999999999996
  endloop
endfacet
facet normal -0.923879532511287 -0.3826834323650894 -0.0
  outer loop
    vertex 19.31851652578136 5.176380902050414 0.0
    vertex 17.32050807568877 9.999999999999996 19.999999999999996
    vertex 17.32050807568877 9.999999999999996 0.0
  endloop
endfacet
facet normal -0.7933533402912352 -0.6087614290087209 -0.0
  outer loop
    vertex 14.142135623730946 14.142135623730946 19.999999999999996
    vertex 17.32050807568877 9.999999999999996 0.0
    vertex 17.32050807568877 9.999999999999996 19.999999999999996
  endloop
endfacet
facet normal -0.7933533402912352 -0.6087614290087209 -0.0
  outer loop
    vertex 17.32050807568877 9.999999999999996 0.0
    vertex 14.142135623730946 14.142135623730946 19.999999999999996
    vertex 14.142135623730946 14.142135623730946 0.0
  endloop
endfacet
facet normal -0.6087614290087211 -0.7933533402912349 -0.0
  outer loop
    vertex 14.142135623730946 14.142135623730946 19.999999999999996
    vertex 10.0 17.32050807568877 0.0
    vertex 14.142135623730946 14.142135623730946 0.0
  endloop
endfacet
facet normal -0.6087614290087211 -0.7933533402912349 -0.0
  outer loop
    vertex 10.0 17.32050807568877 0.0
    vertex 14.142135623730946 14.142135623730946 19.999999999999996
    vertex 10.0 17.32050807568877 19.999999999999996
  endloop
endfacet
facet normal -0.38268343236509006 -0.9238795325112868 -0.0
  outer loop
    vertex 10.0 17.32050807568877 19.999999999999996
    vertex 5.176380902050418 19.318516525781362 0.0
    vertex 10.0 17.32050807568877 0.0
  endloop
endfacet
facet normal -0.38268343236509006 -0.9238795325112868 -0.0
  outer loop
    vertex 5.176380902050418 19.318516525781362 0.0
    vertex 10.0 17.32050807568877 19.999999999999996
    vertex 5.176380902050418 19.318516525781362 19.999999999999996
  endloop
endfacet
facet normal -0.1305261922200517 -0.9914448613738104 -0.0
  outer loop
    vertex 5.176380902050418 19.318516525781362 19.999999999999996
    vertex 1.2246467991473529e-15 19.999999999999996 0.0
    vertex 5.176380902050418 19.318516525781362 0.0
  endloop
endfacet
facet normal -0.1305261922200517 -0.9914448613738104 -0.0
  outer loop
    vertex 1.2246467991473529e-15 19.999999999999996 0.0
    vertex 5.176380902050418 19.318516525781362 19.999999999999996
    vertex 1.2246467991473529e-15 19.999999999999996 19.999999999999996
  endloop
endfacet
facet normal 0.13052619222005182 -0.9914448613738105 0.0
  outer loop
    vertex 1.2246467991473529e-15 19.999999999999996 19.999999999999996
    vertex -5.176380902050411 19.318516525781362 0.0
    vertex 1.2246467991473529e-15 19.999999999999996 0.0
  endloop
endfacet
facet normal 0.13052619222005182 -0.9914448613738105 0.0
  outer loop
    vertex -5.176380902050411 19.318516525781362 0.0
    vertex 1.2246467991473529e-15 19.999999999999996 19.999999999999996
    vertex -5.176380902050411 19.318516525781362 19.999999999999996
  endloop
endfacet
facet normal 0.38268343236508956 -0.923879532511287 0.0
  outer loop
    vertex -5.176380902050411 19.318516525781362 19.999999999999996
    vertex -9.999999999999993 17.32050807568877 0.0
    vertex -5.176380902050411 19.318516525781362 0.0
  endloop
endfacet
facet normal 0.38268343236508956 -0.923879532511287 0.0
  outer loop
    vertex -9.999999999999993 17.32050807568877 0.0
    vertex -5.176380902050411 19.318516525781362 19.999999999999996
    vertex -9.999999999999993 17.32050807568877 19.999999999999996
  endloop
endfacet
facet normal 0.6087614290087208 -0.7933533402912353 0.0
  outer loop
    vertex -9.999999999999993 17.32050807568877 19.999999999999996
    vertex -14.142135623730944 14.14213562373095 0.0
    vertex -9.999999999999993 17.32050807568877 0.0
  endloop
endfacet
facet normal 0.6087614290087208 -0.7933533402912353 0.0
  outer loop
    vertex -14.142135623730944 14.14213562373095 0.0
    vertex -9.999999999999993 17.32050807568877 19.999999999999996
    vertex -14.142135623730944 14.14213562373095 19.999999999999996
  endloop
endfacet
facet normal 0.7933533402912349 -0.608761429008721 0.0
  outer loop
    vertex -14.142135623730944 14.14213562373095 0.0
    vertex -17.320508075688764 10.000000000000005 19.999999999999996
    vertex -17.320508075688764 10.000000000000005 0.0
  endloop
endfacet
facet normal 0.7933533402912349 -0.608761429008721 0.0
  outer loop
    vertex -17.320508075688764 10.000000000000005 19.999999999999996
    vertex -14.142135623730944 14.14213562373095 0.0
    vertex -14.142135623730944 14.14213562373095 19.999999999999996
  endloop
endfacet
facet normal 0.9238795325112866 -0.3826834323650901 0.0
  outer loop
    vertex -17.320508075688764 10.000000000000005 0.0
    vertex -19.31851652578136 5.176380902050419 19.999999999999996
    vertex -19.31851652578136 5.176380902050419 0.0
  endloop
endfacet
facet normal 0.9238795325112866 -0.3826834323650901 0.0
  outer loop
    vertex -19.31851652578136 5.176380902050419 19.999999999999996
    vertex -17.320508075688764 10.000000000000005 0.0
    vertex -17.320508075688764 10.000000000000005 19.999999999999996
  endloop
endfacet
facet normal 0.9914448613738104 -0.13052619222005168 0.0
  outer loop
    vertex -19.31851652578136 5.176380902050419 0.0
    vertex -19.999999999999993 2.449293598294706e-15 19.999999999999996
    vertex -19.999999999999993 2.449293598294706e-15 0.0
  endloop
endfacet
facet normal 0.9914448613738104 -0.13052619222005168 0.0
  outer loop
    vertex -19.999999999999993 2.449293598294706e-15 19.999999999999996
    vertex -19.31851652578136 5.176380902050419 0.0
    vertex -19.31851652578136 5.176380902050419 19.999999999999996
  endloop
endfacet
facet normal 8.007305994425e-17 -1.0 0.0
  outer loop
    vertex -19.999999999999993 2.449293598294706e-15 0.0
    vertex -25.38486475148496 2.018111000257371e-15 8.99676853243168
    vertex -32.99999999999999 1.408343819019456e-15 0.0
  endloop
endfacet
facet normal 8.007305994425e-17 -1.0 0.0
  outer loop
    vertex -25.38486475148496 2.018111000257371e-15 8.99676853243168
    vertex -19.999999999999993 2.449293598294706e-15 0.0
    vertex -25.163206653201208 2.0358598424483745e-15 9.3195710559107
  endloop
endfacet
facet normal 8.007305994425e-17 -1.0 0.0
  outer loop
    vertex -25.163206653201208 2.0358598424483745e-15 9.3195710559107
    vertex -19.999999999999993 2.449293598294706e-15 0.0
    vertex -19.999999999999993 2.449293598294706e-15 19.999999999999996
  endloop
endfacet
facet normal 8.007305994425e-17 -1.0 0.0
  outer loop
    vertex -32.99999999999999 1.408343819019456e-15 0.0
    vertex -25.38486475148496 2.018111000257371e-15 8.99676853243168
    vertex -25.68251747410688 1.994277035956297e-15 8.742334575549052
  endloop
endfacet
facet normal 8.007305994425e-17 -1.0 0.0
  outer loop
    vertex -32.99999999999999 1.408343819019456e-15 0.0
    vertex -25.68251747410688 1.994277035956297e-15 8.742334575549052
    vertex -26.035880279914668 1.965982194824782e-15 8.573608438952373
  endloop
endfacet
facet normal 8.007305994425e-17 -1.0 0.0
  outer loop
    vertex -32.99999999999999 1.408343819019456e-15 0.0
    vertex -26.035880279914668 1.965982194824782e-15 8.573608438952373
    vertex -26.420872077652167 1.9351547235265023e-15 8.502088530017582
  endloop
endfacet
facet normal 8.007305994425e-17 -1.0 0.0
  outer loop
    vertex -25.163206653201208 2.0358598424483745e-15 9.3195710559107
    vertex -19.999999999999993 2.449293598294706e-15 19.999999999999996
    vertex -25.032648812346338 2.0463140082653386e-15 9.688743687467408
  endloop
endfacet
facet normal 8.007305994425e-17 -1.0 0.0
  outer loop
    vertex -25.032648812346338 2.0463140082653386e-15 9.688743687467408
    vertex -19.999999999999993 2.449293598294706e-15 19.999999999999996
    vertex -25.00208853001757 2.048761063584163e-15 10.079127922347839
  endloop
endfacet
facet normal 8.007305994425e-17 -1.0 0.0
  outer loop
    vertex -25.00208853001757 2.048761063584163e-15 10.079127922347839
    vertex -19.999999999999993 2.449293598294706e-15 19.999999999999996
    vertex -25.07360843895236 2.0430342456288208e-15 10.464119720085339
  endloop
endfacet
facet normal 8.007305994425e-17 -1.0 0.0
  outer loop
    vertex -25.07360843895236 2.0430342456288208e-15 10.464119720085339
    vertex -19.999999999999993 2.449293598294706e-15 19.999999999999996
    vertex -25.242334575549037 2.029523827578953e-15 10.817482525893125
  endloop
endfacet
facet normal 8.007305994425e-17 -1.0 0.0
  outer loop
    vertex -25.242334575549037 2.029523827578953e-15 10.817482525893125
    vertex -19.999999999999993 2.449293598294706e-15 19.999999999999996
    vertex -25.496768532431666 2.0091505220976378e-15 11.115135248515045
  endloop
endfacet
facet normal 8.007305994425e-17 -1.0 0.0
  outer loop
    vertex -25.496768532431666 2.0091505220976378e-15 11.115135248515045
    vertex -19.999999999999993 2.449293598294706e-15 19.999999999999996
    vertex -25.819571055910686 1.9833027362849467e-15 11.336793346798796
  endloop
endfacet
facet normal 8.007305994425e-17 -1.0 0.0
  outer loop
    vertex -25.819571055910686 1.9833027362849467e-15 11.336793346798796
    vertex -19.999999999999993 2.449293598294706e-15 19.999999999999996
    vertex -26.188743687467394 1.95374195402853e-15 11.46735118765367
  endloop
endfacet
facet normal 8.007305994425e-17 -1.0 0.0
  outer loop
    vertex -26.188743687467394 1.95374195402853e-15 11.46735118765367
    vertex -19.999999999999993 2.449293598294706e-15 19.999999999999996
    vertex -26.579127922347826 1.922482693787659e-15 11.497911469982434
  endloop
endfacet
facet normal 8.007305994425e-17 -1.0 0.0
  outer loop
    vertex -32.99999999999999 1.408343819019456e-15 0.0
    vertex -27.757665424450956 1.8281135897352088e-15 9.182517474106891
    vertex -32.99999999999999 1.408343819019456e-15 19.999999999999996
  endloop
endfacet
facet normal 8.007305994425e-17 -1.0 0.0
  outer loop
    vertex -27.757665424450956 1.8281135897352088e-15 9.182517474106891
    vertex -32.99999999999999 1.408343819019456e-15 0.0
    vertex -27.503231467568327 1.848486895216524e-15 8.884864751484972
  endloop
endfacet
facet normal 8.007305994425e-17 -1.0 0.0
  outer loop
    vertex -27.503231467568327 1.848486895216524e-15 8.884864751484972
    vertex -32.99999999999999 1.408343819019456e-15 0.0
    vertex -27.180428944089307 1.8743346810292144e-15 8.663206653201222
  endloop
endfacet
facet normal 8.007305994425e-17 -1.0 0.0
  outer loop
    vertex -27.180428944089307 1.8743346810292144e-15 8.663206653201222
    vertex -32.99999999999999 1.408343819019456e-15 0.0
    vertex -26.8112563125326 1.9038954632856318e-15 8.532648812346348
  endloop
endfacet
facet normal 8.007305994425e-17 -1.0 0.0
  outer loop
    vertex -26.8112563125326 1.9038954632856318e-15 8.532648812346348
    vertex -32.99999999999999 1.408343819019456e-15 0.0
    vertex -26.420872077652167 1.9351547235265023e-15 8.502088530017582
  endloop
endfacet
facet normal 8.007305994425e-17 -1.0 0.0
  outer loop
    vertex -32.99999999999999 1.408343819019456e-15 19.999999999999996
    vertex -27.757665424450956 1.8281135897352088e-15 9.182517474106891
    vertex -27.926391561047634 1.814603171685341e-15 9.535880279914679
  endloop
endfacet
facet normal 8.007305994425e-17 -1.0 0.0
  outer loop
    vertex -32.99999999999999 1.408343819019456e-15 19.999999999999996
    vertex -27.926391561047634 1.814603171685341e-15 9.535880279914679
    vertex -27.997911469982423 1.8088763537299984e-15 9.920872077652177
  endloop
endfacet
facet normal 8.007305994425e-17 -1.0 0.0
  outer loop
    vertex -32.99999999999999 1.408343819019456e-15 19.999999999999996
    vertex -27.997911469982423 1.8088763537299984e-15 9.920872077652177
    vertex -27.967351187653655 1.8113234090488233e-15 10.311256312532608
  endloop
endfacet
facet normal 8.007305994425e-17 -1.0 0.0
  outer loop
    vertex -32.99999999999999 1.408343819019456e-15 19.999999999999996
    vertex -27.967351187653655 1.8113234090488233e-15 10.311256312532608
    vertex -27.836793346798782 1.821777574865787e-15 10.680428944089318
  endloop
endfacet
facet normal 8.007305994425e-17 -1.0 0.0
  outer loop
    vertex -32.99999999999999 1.408343819019456e-15 19.999999999999996
    vertex -27.836793346798782 1.821777574865787e-15 10.680428944089318
    vertex -27.61513524851503 1.8395264170567903e-15 11.00323146756834
  endloop
endfacet
facet normal 8.007305994425e-17 -1.0 0.0
  outer loop
    vertex -32.99999999999999 1.408343819019456e-15 19.999999999999996
    vertex -27.61513524851503 1.8395264170567903e-15 11.00323146756834
    vertex -27.317482525893112 1.8633603813578646e-15 11.257665424450966
  endloop
endfacet
facet normal 8.007305994425e-17 -1.0 0.0
  outer loop
    vertex -32.99999999999999 1.408343819019456e-15 19.999999999999996
    vertex -27.317482525893112 1.8633603813578646e-15 11.257665424450966
    vertex -26.96411972008533 1.8916552224893797e-15 11.426391561047645
  endloop
endfacet
facet normal 8.007305994425e-17 -1.0 0.0
  outer loop
    vertex -32.99999999999999 1.408343819019456e-15 19.999999999999996
    vertex -26.96411972008533 1.8916552224893797e-15 11.426391561047645
    vertex -26.579127922347826 1.922482693787659e-15 11.497911469982434
  endloop
endfacet
facet normal 8.007305994425e-17 -1.0 0.0
  outer loop
    vertex -32.99999999999999 1.408343819019456e-15 19.999999999999996
    vertex -26.579127922347826 1.922482693787659e-15 11.497911469982434
    vertex -19.999999999999993 2.449293598294706e-15 19.999999999999996
  endloop
endfacet
facet normal -1.0 0.0 0.0
  outer loop
    vertex -32.99999999999999 2.9999999999999956 19.999999999999996
    vertex -32.99999999999999 1.408343819019456e-15 0.0
    vertex -32.99999999999999 1.408343819019456e-15 19.999999999999996
  endloop
endfacet
facet normal -1.0 0.0 0.0
  outer loop
    vertex -32.99999999999999 1.408343819019456e-15 0.0
    vertex -32.99999999999999 2.9999999999999956 19.999999999999996
    vertex -32.99999999999999 2.9999999999999956 0.0
  endloop
endfacet
facet normal -0.0 1.0 0.0
  outer loop
    vertex 22.599999999999998 2.9999999999999956 0.0
    vertex 25.242334575549037 3.0000000000000013 9.182517474106877
    vertex 32.99999999999999 2.9999999999999956 0.0
  endloop
endfacet
facet normal -0.0 1.0 0.0
  outer loop
    vertex 25.242334575549037 3.0000000000000013 9.182517474106877
    vertex 22.599999999999998 2.9999999999999956 0.0
    vertex 25.07360843895236 3.0000000000000013 9.535880279914663
  endloop
endfacet
facet normal -0.0 1.0 0.0
  outer loop
    vertex 25.07360843895236 3.0000000000000013 9.535880279914663
    vertex 22.599999999999998 2.9999999999999956 0.0
    vertex 22.599999999999998 2.9999999999999956 19.999999999999996
  endloop
endfacet
facet normal -0.0 1.0 0.0
  outer loop
    vertex 32.99999999999999 2.9999999999999956 0.0
    vertex 25.242334575549037 3.0000000000000013 9.182517474106877
    vertex 25.496768532431673 3.0000000000000013 8.884864751484956
  endloop
endfacet
facet normal -0.0 1.0 0.0
  outer loop
    vertex 32.99999999999999 2.9999999999999956 0.0
    vertex 25.496768532431673 3.0000000000000013 8.884864751484956
    vertex 25.819571055910693 3.0 8.663206653201208
  endloop
endfacet
facet normal -0.0 1.0 0.0
  outer loop
    vertex 32.99999999999999 2.9999999999999956 0.0
    vertex 25.819571055910693 3.0 8.663206653201208
    vertex 26.1887436874674 3.0 8.532648812346336
  endloop
endfacet
facet normal -0.0 1.0 0.0
  outer loop
    vertex 32.99999999999999 2.9999999999999956 0.0
    vertex 26.1887436874674 3.0 8.532648812346336
    vertex 26.579127922347833 3.0 8.50208853001757
  endloop
endfacet
facet normal -0.0 1.0 0.0
  outer loop
    vertex 25.07360843895236 3.0000000000000013 9.535880279914663
    vertex 22.599999999999998 2.9999999999999956 19.999999999999996
    vertex 25.00208853001757 3.0000000000000013 9.920872077652161
  endloop
endfacet
facet normal -0.0 1.0 0.0
  outer loop
    vertex 25.00208853001757 3.0000000000000013 9.920872077652161
    vertex 22.599999999999998 2.9999999999999956 19.999999999999996
    vertex 25.032648812346334 3.0000000000000013 10.311256312532592
  endloop
endfacet
facet normal -0.0 1.0 0.0
  outer loop
    vertex 25.032648812346334 3.0000000000000013 10.311256312532592
    vertex 22.599999999999998 2.9999999999999956 19.999999999999996
    vertex 25.163206653201204 3.0000000000000013 10.680428944089304
  endloop
endfacet
facet normal -0.0 1.0 0.0
  outer loop
    vertex 25.163206653201204 3.0000000000000013 10.680428944089304
    vertex 22.599999999999998 2.9999999999999956 19.999999999999996
    vertex 25.384864751484955 3.0000000000000013 11.003231467568325
  endloop
endfacet
facet normal -0.0 1.0 0.0
  outer loop
    vertex 25.384864751484955 3.0000000000000013 11.003231467568325
    vertex 22.599999999999998 2.9999999999999956 19.999999999999996
    vertex 25.682517474106874 3.0 11.257665424450956
  endloop
endfacet
facet normal -0.0 1.0 0.0
  outer loop
    vertex 25.682517474106874 3.0 11.257665424450956
    vertex 22.599999999999998 2.9999999999999956 19.999999999999996
    vertex 26.03588027991466 3.0 11.426391561047634
  endloop
endfacet
facet normal -0.0 1.0 0.0
  outer loop
    vertex 26.03588027991466 3.0 11.426391561047634
    vertex 22.599999999999998 2.9999999999999956 19.999999999999996
    vertex 26.42087207765216 3.0 11.497911469982427
  endloop
endfacet
facet normal -0.0 1.0 0.0
  outer loop
    vertex 32.99999999999999 2.9999999999999956 0.0
    vertex 27.83679334679879 3.0 9.319571055910695
    vertex 32.99999999999999 2.9999999999999956 19.999999999999996
  endloop
endfacet
facet normal -0.0 1.0 0.0
  outer loop
    vertex 27.83679334679879 3.0 9.319571055910695
    vertex 32.99999999999999 2.9999999999999956 0.0
    vertex 27.61513524851504 3.0 8.996768532431673
  endloop
endfacet
facet normal -0.0 1.0 0.0
  outer loop
    vertex 27.61513524851504 3.0 8.996768532431673
    vertex 32.99999999999999 2.9999999999999956 0.0
    vertex 27.31748252589312 3.0 8.742334575549043
  endloop
endfacet
facet normal -0.0 1.0 0.0
  outer loop
    vertex 27.31748252589312 3.0 8.742334575549043
    vertex 32.99999999999999 2.9999999999999956 0.0
    vertex 26.964119720085332 3.0 8.573608438952363
  endloop
endfacet
facet normal -0.0 1.0 0.0
  outer loop
    vertex 26.964119720085332 3.0 8.573608438952363
    vertex 32.99999999999999 2.9999999999999956 0.0
    vertex 26.579127922347833 3.0 8.50208853001757
  endloop
endfacet
facet normal -0.0 1.0 0.0
  outer loop
    vertex 32.99999999999999 2.9999999999999956 19.999999999999996
    vertex 27.83679334679879 3.0 9.319571055910695
    vertex 27.967351187653655 3.0 9.688743687467404
  endloop
endfacet
facet normal -0.0 1.0 0.0
  outer loop
    vertex 32.99999999999999 2.9999999999999956 19.999999999999996
    vertex 27.967351187653655 3.0 9.688743687467404
    vertex 27.997911469982423 3.0 10.079127922347835
  endloop
endfacet
facet normal -0.0 1.0 0.0
  outer loop
    vertex 32.99999999999999 2.9999999999999956 19.999999999999996
    vertex 27.997911469982423 3.0 10.079127922347835
    vertex 27.926391561047634 3.0 10.464119720085334
  endloop
endfacet
facet normal -0.0 1.0 0.0
  outer loop
    vertex 32.99999999999999 2.9999999999999956 19.999999999999996
    vertex 27.926391561047634 3.0 10.464119720085334
    vertex 27.757665424450952 3.0 10.817482525893121
  endloop
endfacet
facet normal -0.0 1.0 0.0
  outer loop
    vertex 32.99999999999999 2.9999999999999956 19.999999999999996
    vertex 27.757665424450952 3.0 10.817482525893121
    vertex 27.50323146756832 3.0 11.11513524851504
  endloop
endfacet
facet normal -0.0 1.0 0.0
  outer loop
    vertex 32.99999999999999 2.9999999999999956 19.999999999999996
    vertex 27.50323146756832 3.0 11.11513524851504
    vertex 27.1804289440893 3.0 11.33679334679879
  endloop
endfacet
facet normal -0.0 1.0 0.0
  outer loop
    vertex 32.99999999999999 2.9999999999999956 19.999999999999996
    vertex 27.1804289440893 3.0 11.33679334679879
    vertex 26.811256312532592 3.0 11.467351187653662
  endloop
endfacet
facet normal -0.0 1.0 0.0
  outer loop
    vertex 32.99999999999999 2.9999999999999956 19.999999999999996
    vertex 26.811256312532592 3.0 11.467351187653662
    vertex 26.42087207765216 3.0 11.497911469982427
  endloop
endfacet
facet normal -0.0 1.0 0.0
  outer loop
    vertex 32.99999999999999 2.9999999999999956 19.999999999999996
    vertex 26.42087207765216 3.0 11.497911469982427
    vertex 22.599999999999998 2.9999999999999956 19.999999999999996
  endloop
endfacet
facet normal 0.9916626117648624 0.12886141558935252 0.0
  outer loop
    vertex 22.21629400464857 5.9528380373579655 0.0
    vertex 22.599999999999998 2.9999999999999956 19.999999999999996
    vertex 22.599999999999998 2.9999999999999956 0.0
  endloop
endfacet
facet normal 0.9916626117648624 0.12886141558935252 0.0
  outer loop
    vertex 22.599999999999998 2.9999999999999956 19.999999999999996
    vertex 22.21629400464857 5.9528380373579655 0.0
    vertex 22.21629400464857 5.9528380373579655 19.999999999999996
  endloop
endfacet
facet normal 0.0 0.0 -1.0
  outer loop
    vertex -22.608147002324284 2.9999999999999956 0.0
    vertex -32.99999999999999 1.408343819019456e-15 0.0
    vertex -32.99999999999999 2.9999999999999956 0.0
  endloop
endfacet
facet normal 0.0 0.0 -1.0
  outer loop
    vertex -32.99999999999999 1.408343819019456e-15 0.0
    vertex -22.608147002324284 2.9999999999999956 0.0
    vertex -19.999999999999993 2.449293598294706e-15 0.0
  endloop
endfacet
facet normal 0.0 0.0 -1.0
  outer loop
    vertex -19.999999999999993 2.449293598294706e-15 0.0
    vertex -22.608147002324284 2.9999999999999956 0.0
    vertex -22.216294004648567 5.9528380373579814 0.0
  endloop
endfacet
facet normal 0.0 0.0 -1.0
  outer loop
    vertex -19.999999999999993 2.449293598294706e-15 0.0
    vertex -22.216294004648567 5.9528380373579814 0.0
    vertex -19.918584287042087 11.500000000000002 0.0
  endloop
endfacet
facet normal 0.0 0.0 -1.0
  outer loop
    vertex -19.999999999999993 2.449293598294706e-15 0.0
    vertex -19.918584287042087 11.500000000000002 0.0
    vertex -19.31851652578136 5.176380902050419 0.0
  endloop
endfacet
facet normal 0.0 0.0 -1.0
  outer loop
    vertex -19.31851652578136 5.176380902050419 0.0
    vertex -19.918584287042087 11.500000000000002 0.0
    vertex -16.26345596729059 16.263455967290593 0.0
  endloop
endfacet
facet normal 0.0 0.0 -1.0
  outer loop
    vertex -19.31851652578136 5.176380902050419 0.0
    vertex -16.26345596729059 16.263455967290593 0.0
    vertex -17.320508075688764 10.000000000000005 0.0
  endloop
endfacet
facet normal 0.0 0.0 -1.0
  outer loop
    vertex -17.320508075688764 10.000000000000005 0.0
    vertex -16.26345596729059 16.263455967290593 0.0
    vertex -14.142135623730944 14.14213562373095 0.0
  endloop
endfacet
facet normal 0.0 0.0 -1.0
  outer loop
    vertex -14.142135623730944 14.14213562373095 0.0
    vertex -16.26345596729059 16.263455967290593 0.0
    vertex -11.499999999999996 19.918584287042087 0.0
  endloop
endfacet
facet normal 0.0 0.0 -1.0
  outer loop
    vertex -14.142135623730944 14.14213562373095 0.0
    vertex -11.499999999999996 19.918584287042087 0.0
    vertex -9.999999999999993 17.32050807568877 0.0
  endloop
endfacet
facet normal 0.0 0.0 -1.0
  outer loop
    vertex -9.999999999999993 17.32050807568877 0.0
    vertex -11.499999999999996 19.918584287042087 0.0
    vertex -5.952838037357976 22.21629400464857 0.0
  endloop
endfacet
facet normal 0.0 0.0 -1.0
  outer loop
    vertex -9.999999999999993 17.32050807568877 0.0
    vertex -5.952838037357976 22.21629400464857 0.0
    vertex -5.176380902050411 19.318516525781362 0.0
  endloop
endfacet
facet normal 0.0 0.0 -1.0
  outer loop
    vertex -5.176380902050411 19.318516525781362 0.0
    vertex -5.952838037357976 22.21629400464857 0.0
    vertex 0.0 22.999999999999996 0.0
  endloop
endfacet
facet normal 0.0 0.0 -1.0
  outer loop
    vertex -5.176380902050411 19.318516525781362 0.0
    vertex 0.0 22.999999999999996 0.0
    vertex 1.2246467991473529e-15 19.999999999999996 0.0
  endloop
endfacet
facet normal 0.0 0.0 -1.0
  outer loop
    vertex 1.2246467991473529e-15 19.999999999999996 0.0
    vertex 0.0 22.999999999999996 0.0
    vertex 5.952838037357996 22.216294004648564 0.0
  endloop
endfacet
facet normal 0.0 0.0 -1.0
  outer loop
    vertex 1.2246467991473529e-15 19.999999999999996 0.0
    vertex 5.952838037357996 22.216294004648564 0.0
    vertex 5.176380902050418 19.318516525781362 0.0
  endloop
endfacet
facet normal 0.0 0.0 -1.0
  outer loop
    vertex 5.176380902050418 19.318516525781362 0.0
    vertex 5.952838037357996 22.216294004648564 0.0
    vertex 10.0 17.32050807568877 0.0
  endloop
endfacet
facet normal 0.0 0.0 -1.0
  outer loop
    vertex 10.0 17.32050807568877 0.0
    vertex 5.952838037357996 22.216294004648564 0.0
    vertex 11.500000000000009 19.91858428704208 0.0
  endloop
endfacet
facet normal 0.0 0.0 -1.0
  outer loop
    vertex 10.0 17.32050807568877 0.0
    vertex 11.500000000000009 19.91858428704208 0.0
    vertex 14.142135623730946 14.142135623730946 0.0
  endloop
endfacet
facet normal 0.0 0.0 -1.0
  outer loop
    vertex 14.142135623730946 14.142135623730946 0.0
    vertex 11.500000000000009 19.91858428704208 0.0
    vertex 16.263455967290593 16.26345596729059 0.0
  endloop
endfacet
facet normal 0.0 0.0 -1.0
  outer loop
    vertex 14.142135623730946 14.142135623730946 0.0
    vertex 16.263455967290593 16.26345596729059 0.0
    vertex 17.32050807568877 9.999999999999996 0.0
  endloop
endfacet
facet normal 0.0 0.0 -1.0
  outer loop
    vertex 17.32050807568877 9.999999999999996 0.0
    vertex 16.263455967290593 16.26345596729059 0.0
    vertex 19.918584287042094 11.499999999999984 0.0
  endloop
endfacet
facet normal 0.0 0.0 -1.0
  outer loop
    vertex 17.32050807568877 9.999999999999996 0.0
    vertex 19.918584287042094 11.499999999999984 0.0
    vertex 19.31851652578136 5.176380902050414 0.0
  endloop
endfacet
facet normal 0.0 0.0 -1.0
  outer loop
    vertex 19.31851652578136 5.176380902050414 0.0
    vertex 19.918584287042094 11.499999999999984 0.0
    vertex 19.999999999999993 0.0 0.0
  endloop
endfacet
facet normal 0.0 0.0 -1.0
  outer loop
    vertex 19.999999999999993 0.0 0.0
    vertex 19.918584287042094 11.499999999999984 0.0
    vertex 22.21629400464857 5.9528380373579655 0.0
  endloop
endfacet
facet normal 0.0 0.0 -1.0
  outer loop
    vertex 19.999999999999993 0.0 0.0
    vertex 22.21629400464857 5.9528380373579655 0.0
    vertex 22.599999999999998 2.9999999999999956 0.0
  endloop
endfacet
facet normal 0.0 0.0 -1.0
  outer loop
    vertex 19.999999999999993 0.0 0.0
    vertex 22.599999999999998 2.9999999999999956 0.0
    vertex 32.99999999999999 -4.225031457058367e-15 0.0
  endloop
endfacet
facet normal 0.0 0.0 -1.0
  outer loop
    vertex 32.99999999999999 -4.225031457058367e-15 0.0
    vertex 22.599999999999998 2.9999999999999956 0.0
    vertex 32.99999999999999 2.9999999999999956 0.0
  endloop
endfacet
facet normal -0.0 1.0 0.0
  outer loop
    vertex -32.99999999999999 2.9999999999999956 0.0
    vertex -27.757665424450956 3.000000000000002 9.182517474106891
    vertex -22.608147002324284 2.9999999999999956 0.0
  endloop
endfacet
facet normal -0.0 1.0 0.0
  outer loop
    vertex -27.757665424450956 3.000000000000002 9.182517474106891
    vertex -32.99999999999999 2.9999999999999956 0.0
    vertex -32.99999999999999 2.9999999999999956 19.999999999999996
  endloop
endfacet
facet normal -0.0 1.0 0.0
  outer loop
    vertex -22.608147002324284 2.9999999999999956 0.0
    vertex -27.757665424450956 3.000000000000002 9.182517474106891
    vertex -27.503231467568327 3.000000000000002 8.884864751484972
  endloop
endfacet
facet normal -0.0 1.0 0.0
  outer loop
    vertex -22.608147002324284 2.9999999999999956 0.0
    vertex -27.503231467568327 3.000000000000002 8.884864751484972
    vertex -27.180428944089307 3.000000000000003 8.663206653201222
  endloop
endfacet
facet normal -0.0 1.0 0.0
  outer loop
    vertex -22.608147002324284 2.9999999999999956 0.0
    vertex -27.180428944089307 3.000000000000003 8.663206653201222
    vertex -26.8112563125326 3.000000000000003 8.532648812346348
  endloop
endfacet
facet normal -0.0 1.0 0.0
  outer loop
    vertex -22.608147002324284 2.9999999999999956 0.0
    vertex -26.8112563125326 3.000000000000003 8.532648812346348
    vertex -26.420872077652167 3.000000000000003 8.502088530017582
  endloop
endfacet
facet normal -0.0 1.0 0.0
  outer loop
    vertex -27.757665424450956 3.000000000000002 9.182517474106891
    vertex -32.99999999999999 2.9999999999999956 19.999999999999996
    vertex -27.926391561047634 3.000000000000002 9.535880279914679
  endloop
endfacet
facet normal -0.0 1.0 0.0
  outer loop
    vertex -27.926391561047634 3.000000000000002 9.535880279914679
    vertex -32.99999999999999 2.9999999999999956 19.999999999999996
    vertex -27.997911469982423 3.000000000000002 9.920872077652177
  endloop
endfacet
facet normal -0.0 1.0 0.0
  outer loop
    vertex -27.997911469982423 3.000000000000002 9.920872077652177
    vertex -32.99999999999999 2.9999999999999956 19.999999999999996
    vertex -27.967351187653655 3.000000000000002 10.311256312532608
  endloop
endfacet
facet normal -0.0 1.0 0.0
  outer loop
    vertex -27.967351187653655 3.000000000000002 10.311256312532608
    vertex -32.99999999999999 2.9999999999999956 19.999999999999996
    vertex -27.836793346798782 3.000000000000002 10.680428944089318
  endloop
endfacet
facet normal -0.0 1.0 0.0
  outer loop
    vertex -27.836793346798782 3.000000000000002 10.680428944089318
    vertex -32.99999999999999 2.9999999999999956 19.999999999999996
    vertex -27.61513524851503 3.000000000000002 11.00323146756834
  endloop
endfacet
facet normal -0.0 1.0 0.0
  outer loop
    vertex -27.61513524851503 3.000000000000002 11.00323146756834
    vertex -32.99999999999999 2.9999999999999956 19.999999999999996
    vertex -27.317482525893112 3.000000000000002 11.257665424450966
  endloop
endfacet
facet normal -0.0 1.0 0.0
  outer loop
    vertex -27.317482525893112 3.000000000000002 11.257665424450966
    vertex -32.99999999999999 2.9999999999999956 19.999999999999996
    vertex -26.96411972008533 3.000000000000003 11.426391561047645
  endloop
endfacet
facet normal -0.0 1.0 0.0
  outer loop
    vertex -26.96411972008533 3.000000000000003 11.426391561047645
    vertex -32.99999999999999 2.9999999999999956 19.999999999999996
    vertex -26.579127922347826 3.000000000000003 11.497911469982434
  endloop
endfacet
facet normal -0.0 1.0 0.0
  outer loop
    vertex -22.608147002324284 2.9999999999999956 0.0
    vertex -25.032648812346338 3.000000000000003 9.688743687467408
    vertex -22.608147002324284 2.9999999999999956 19.999999999999996
  endloop
endfacet
facet normal -0.0 1.0 0.0
  outer loop
    vertex -25.032648812346338 3.000000000000003 9.688743687467408
    vertex -22.608147002324284 2.9999999999999956 0.0
    vertex -25.163206653201208 3.000000000000003 9.3195710559107
  endloop
endfacet
facet normal -0.0 1.0 0.0
  outer loop
    vertex -25.163206653201208 3.000000000000003 9.3195710559107
    vertex -22.608147002324284 2.9999999999999956 0.0
    vertex -25.38486475148496 3.000000000000003 8.99676853243168
  endloop
endfacet
facet normal -0.0 1.0 0.0
  outer loop
    vertex -25.38486475148496 3.000000000000003 8.99676853243168
    vertex -22.608147002324284 2.9999999999999956 0.0
    vertex -25.68251747410688 3.000000000000003 8.742334575549052
  endloop
endfacet
facet normal -0.0 1.0 0.0
  outer loop
    vertex -25.68251747410688 3.000000000000003 8.742334575549052
    vertex -22.608147002324284 2.9999999999999956 0.0
    vertex -26.035880279914668 3.000000000000003 8.573608438952373
  endloop
endfacet
facet normal -0.0 1.0 0.0
  outer loop
    vertex -26.035880279914668 3.000000000000003 8.573608438952373
    vertex -22.608147002324284 2.9999999999999956 0.0
    vertex -26.420872077652167 3.000000000000003 8.502088530017582
  endloop
endfacet
facet normal -0.0 1.0 0.0
  outer loop
    vertex -22.608147002324284 2.9999999999999956 19.999999999999996
    vertex -25.032648812346338 3.000000000000003 9.688743687467408
    vertex -25.00208853001757 3.000000000000003 10.079127922347839
  endloop
endfacet
facet normal -0.0 1.0 0.0
  outer loop
    vertex -22.608147002324284 2.9999999999999956 19.999999999999996
    vertex -25.00208853001757 3.000000000000003 10.079127922347839
    vertex -25.07360843895236 3.000000000000003 10.464119720085339
  endloop
endfacet
facet normal -0.0 1.0 0.0
  outer loop
    vertex -22.608147002324284 2.9999999999999956 19.999999999999996
    vertex -25.07360843895236 3.000000000000003 10.464119720085339
    vertex -25.242334575549037 3.000000000000003 10.817482525893125
  endloop
endfacet
facet normal -0.0 1.0 0.0
  outer loop
    vertex -22.608147002324284 2.9999999999999956 19.999999999999996
    vertex -25.242334575549037 3.000000000000003 10.817482525893125
    vertex -25.496768532431666 3.000000000000003 11.115135248515045
  endloop
endfacet
facet normal -0.0 1.0 0.0
  outer loop
    vertex -22.608147002324284 2.9999999999999956 19.999999999999996
    vertex -25.496768532431666 3.000000000000003 11.115135248515045
    vertex -25.819571055910686 3.000000000000003 11.336793346798796
  endloop
endfacet
facet normal -0.0 1.0 0.0
  outer loop
    vertex -22.608147002324284 2.9999999999999956 19.999999999999996
    vertex -25.819571055910686 3.000000000000003 11.336793346798796
    vertex -26.188743687467394 3.000000000000003 11.46735118765367
  endloop
endfacet
facet normal -0.0 1.0 0.0
  outer loop
    vertex -22.608147002324284 2.9999999999999956 19.999999999999996
    vertex -26.188743687467394 3.000000000000003 11.46735118765367
    vertex -26.579127922347826 3.000000000000003 11.497911469982434
  endloop
endfacet
facet normal -0.0 1.0 0.0
  outer loop
    vertex -22.608147002324284 2.9999999999999956 19.999999999999996
    vertex -26.579127922347826 3.000000000000003 11.497911469982434
    vertex -32.99999999999999 2.9999999999999956 19.999999999999996
  endloop
endfacet
facet normal -0.9913094585153501 0.13155058896866842 0.0
  outer loop
    vertex -22.216294004648567 5.9528380373579814 19.999999999999996
    vertex -22.608147002324284 2.9999999999999956 0.0
    vertex -22.608147002324284 2.9999999999999956 19.999999999999996
  endloop
endfacet
facet normal -0.9913094585153501 0.13155058896866842 0.0
  outer loop
    vertex -22.608147002324284 2.9999999999999956 0.0
    vertex -22.216294004648567 5.9528380373579814 19.999999999999996
    vertex -22.216294004648567 5.9528380373579814 0.0
  endloop
endfacet
facet normal -0.923879532511287 0.3826834323650898 0.0
  outer loop
    vertex -19.918584287042087 11.500000000000002 19.999999999999996
    vertex -22.216294004648567 5.9528380373579814 0.0
    vertex -22.216294004648567 5.9528380373579814 19.999999999999996
  endloop
endfacet
facet normal -0.923879532511287 0.3826834323650898 0.0
  outer loop
    vertex -22.216294004648567 5.9528380373579814 0.0
    vertex -19.918584287042087 11.500000000000002 19.999999999999996
    vertex -19.918584287042087 11.500000000000002 0.0
  endloop
endfacet
facet normal -0.7933533402912349 0.6087614290087212 0.0
  outer loop
    vertex -16.26345596729059 16.263455967290593 19.999999999999996
    vertex -19.918584287042087 11.500000000000002 0.0
    vertex -19.918584287042087 11.500000000000002 19.999999999999996
  endloop
endfacet
facet normal -0.7933533402912349 0.6087614290087212 0.0
  outer loop
    vertex -19.918584287042087 11.500000000000002 0.0
    vertex -16.26345596729059 16.263455967290593 19.999999999999996
    vertex -16.26345596729059 16.263455967290593 0.0
  endloop
endfacet
facet normal -0.6087614290087208 0.7933533402912352 0.0
  outer loop
    vertex -16.26345596729059 16.263455967290593 19.999999999999996
    vertex -11.499999999999996 19.918584287042087 0.0
    vertex -16.26345596729059 16.263455967290593 0.0
  endloop
endfacet
facet normal -0.6087614290087208 0.7933533402912352 0.0
  outer loop
    vertex -11.499999999999996 19.918584287042087 0.0
    vertex -16.26345596729059 16.263455967290593 19.999999999999996
    vertex -11.499999999999996 19.918584287042087 19.999999999999996
  endloop
endfacet
facet normal -0.38268343236509006 0.9238795325112866 0.0
  outer loop
    vertex -11.499999999999996 19.918584287042087 19.999999999999996
    vertex -5.952838037357976 22.21629400464857 0.0
    vertex -11.499999999999996 19.918584287042087 0.0
  endloop
endfacet
facet normal -0.38268343236509006 0.9238795325112866 0.0
  outer loop
    vertex -5.952838037357976 22.21629400464857 0.0
    vertex -11.499999999999996 19.918584287042087 19.999999999999996
    vertex -5.952838037357976 22.21629400464857 19.999999999999996
  endloop
endfacet
facet normal -0.13052619222005132 0.9914448613738106 0.0
  outer loop
    vertex -5.952838037357976 22.21629400464857 19.999999999999996
    vertex 0.0 22.999999999999996 0.0
    vertex -5.952838037357976 22.21629400464857 0.0
  endloop
endfacet
facet normal -0.13052619222005132 0.9914448613738106 0.0
  outer loop
    vertex 0.0 22.999999999999996 0.0
    vertex -5.952838037357976 22.21629400464857 19.999999999999996
    vertex 0.0 22.999999999999996 19.999999999999996
  endloop
endfacet
facet normal 0.13052619222005182 0.9914448613738104 0.0
  outer loop
    vertex 0.0 22.999999999999996 19.999999999999996
    vertex 5.952838037357996 22.216294004648564 0.0
    vertex 0.0 22.999999999999996 0.0
  endloop
endfacet
facet normal 0.13052619222005182 0.9914448613738104 0.0
  outer loop
    vertex 5.952838037357996 22.216294004648564 0.0
    vertex 0.0 22.999999999999996 19.999999999999996
    vertex 5.952838037357996 22.216294004648564 19.999999999999996
  endloop
endfacet
facet normal 0.3826834323650905 0.9238795325112865 0.0
  outer loop
    vertex 5.952838037357996 22.216294004648564 19.999999999999996
    vertex 11.500000000000009 19.91858428704208 0.0
    vertex 5.952838037357996 22.216294004648564 0.0
  endloop
endfacet
facet normal 0.3826834323650905 0.9238795325112865 0.0
  outer loop
    vertex 11.500000000000009 19.91858428704208 0.0
    vertex 5.952838037357996 22.216294004648564 19.999999999999996
    vertex 11.500000000000009 19.91858428704208 19.999999999999996
  endloop
endfacet
facet normal 0.608761429008721 0.793353340291235 0.0
  outer loop
    vertex 11.500000000000009 19.91858428704208 19.999999999999996
    vertex 16.263455967290593 16.26345596729059 0.0
    vertex 11.500000000000009 19.91858428704208 0.0
  endloop
endfacet
facet normal 0.608761429008721 0.793353340291235 0.0
  outer loop
    vertex 16.263455967290593 16.26345596729059 0.0
    vertex 11.500000000000009 19.91858428704208 19.999999999999996
    vertex 16.263455967290593 16.26345596729059 19.999999999999996
  endloop
endfacet
facet normal 0.7933533402912355 0.6087614290087202 0.0
  outer loop
    vertex 16.263455967290593 16.26345596729059 0.0
    vertex 19.918584287042094 11.499999999999984 19.999999999999996
    vertex 19.918584287042094 11.499999999999984 0.0
  endloop
endfacet
facet normal 0.7933533402912355 0.6087614290087202 0.0
  outer loop
    vertex 19.918584287042094 11.499999999999984 19.999999999999996
    vertex 16.263455967290593 16.26345596729059 0.0
    vertex 16.263455967290593 16.26345596729059 19.999999999999996
  endloop
endfacet
facet normal 0.9238795325112872 0.38268343236508917 0.0
  outer loop
    vertex 19.918584287042094 11.499999999999984 0.0
    vertex 22.21629400464857 5.9528380373579655 19.999999999999996
    vertex 22.21629400464857 5.9528380373579655 0.0
  endloop
endfacet
facet normal 0.9238795325112872 0.38268343236508917 0.0
  outer loop
    vertex 22.21629400464857 5.9528380373579655 19.999999999999996
    vertex 19.918584287042094 11.499999999999984 0.0
    vertex 19.918584287042094 11.499999999999984 19.999999999999996
  endloop
endfacet
facet normal 0.9969499307395435 -3.2401113988359456e-16 -0.07804380563772881
  outer loop
    vertex 25.00208853001757 -1.6256908761780853e-15 9.920872077652161
    vertex 25.032648812346334 3.0000000000000013 10.311256312532592
    vertex 25.032648812346334 -1.6356230418839022e-15 10.311256312532592
  endloop
endfacet
facet normal 0.9969499307395435 -3.2401113988359456e-16 -0.07804380563772881
  outer loop
    vertex 25.032648812346334 3.0000000000000013 10.311256312532592
    vertex 25.00208853001757 -1.6256908761780853e-15 9.920872077652161
    vertex 25.00208853001757 3.0000000000000013 9.920872077652161
  endloop
endfacet
facet normal 0.9831789088697483 -3.195355244531545e-16 0.1826451016416571
  outer loop
    vertex 25.07360843895236 3.0000000000000013 9.535880279914663
    vertex 25.00208853001757 -1.6256908761780853e-15 9.920872077652161
    vertex 25.07360843895236 -1.6489350196438883e-15 9.535880279914663
  endloop
endfacet
facet normal 0.9831789088697483 -3.195355244531545e-16 0.1826451016416571
  outer loop
    vertex 25.00208853001757 -1.6256908761780853e-15 9.920872077652161
    vertex 25.07360843895236 3.0000000000000013 9.535880279914663
    vertex 25.00208853001757 3.0000000000000013 9.920872077652161
  endloop
endfacet
facet normal 0.9024058691404473 -2.932840910886529e-16 0.43088704707948017
  outer loop
    vertex 25.242334575549037 3.0000000000000013 9.182517474106877
    vertex 25.07360843895236 -1.6489350196438883e-15 9.535880279914663
    vertex 25.242334575549037 -1.7037714223168805e-15 9.182517474106877
  endloop
endfacet
facet normal 0.9024058691404473 -2.932840910886529e-16 0.43088704707948017
  outer loop
    vertex 25.07360843895236 -1.6489350196438883e-15 9.535880279914663
    vertex 25.242334575549037 3.0000000000000013 9.182517474106877
    vertex 25.07360843895236 3.0000000000000013 9.535880279914663
  endloop
endfacet
facet normal 0.7601353607254306 -2.4704583159133514e-16 0.64976475233335
  outer loop
    vertex 25.496768532431673 3.0000000000000013 8.884864751484956
    vertex 25.242334575549037 -1.7037714223168805e-15 9.182517474106877
    vertex 25.496768532431673 -1.7864630739763375e-15 8.884864751484956
  endloop
endfacet
facet normal 0.7601353607254306 -2.4704583159133514e-16 0.64976475233335
  outer loop
    vertex 25.242334575549037 -1.7037714223168805e-15 9.182517474106877
    vertex 25.496768532431673 3.0000000000000013 8.884864751484956
    vertex 25.242334575549037 3.0000000000000013 9.182517474106877
  endloop
endfacet
facet normal 0.5660628836600636 -1.8397180693361106e-16 0.8243620635027146
  outer loop
    vertex 25.819571055910693 -1.8913746752160826e-15 8.663206653201208
    vertex 25.496768532431673 3.0000000000000013 8.884864751484956
    vertex 25.496768532431673 -1.7864630739763375e-15 8.884864751484956
  endloop
endfacet
facet normal 0.5660628836600636 -1.8397180693361106e-16 0.8243620635027146
  outer loop
    vertex 25.496768532431673 3.0000000000000013 8.884864751484956
    vertex 25.819571055910693 -1.8913746752160826e-15 8.663206653201208
    vertex 25.819571055910693 3.0 8.663206653201208
  endloop
endfacet
facet normal 0.33341415653640616 -1.0836040766114645e-16 0.9427804623670968
  outer loop
    vertex 26.1887436874674 -2.011356673786246e-15 8.532648812346336
    vertex 25.819571055910693 3.0 8.663206653201208
    vertex 25.819571055910693 -1.8913746752160826e-15 8.663206653201208
  endloop
endfacet
facet normal 0.33341415653640616 -1.0836040766114645e-16 0.9427804623670968
  outer loop
    vertex 25.819571055910693 3.0 8.663206653201208
    vertex 26.1887436874674 -2.011356673786246e-15 8.532648812346336
    vertex 26.1887436874674 3.0 8.532648812346336
  endloop
endfacet
facet normal 0.0780438056377321 -2.536442568061332e-17 0.9969499307395432
  outer loop
    vertex 26.579127922347833 -2.138232494763898e-15 8.50208853001757
    vertex 26.1887436874674 3.0 8.532648812346336
    vertex 26.1887436874674 -2.011356673786246e-15 8.532648812346336
  endloop
endfacet
facet normal 0.0780438056377321 -2.536442568061332e-17 0.9969499307395432
  outer loop
    vertex 26.1887436874674 3.0 8.532648812346336
    vertex 26.579127922347833 -2.138232494763898e-15 8.50208853001757
    vertex 26.579127922347833 3.0 8.50208853001757
  endloop
endfacet
facet normal -0.18264510164166406 5.936009999335748e-17 0.983178908869747
  outer loop
    vertex 26.964119720085332 -2.26335576062162e-15 8.573608438952363
    vertex 26.579127922347833 3.0 8.50208853001757
    vertex 26.579127922347833 -2.138232494763898e-15 8.50208853001757
  endloop
endfacet
facet normal -0.18264510164166406 5.936009999335748e-17 0.983178908869747
  outer loop
    vertex 26.579127922347833 3.0 8.50208853001757
    vertex 26.964119720085332 -2.26335576062162e-15 8.573608438952363
    vertex 26.964119720085332 3.0 8.573608438952363
  endloop
endfacet
facet normal -0.43088704707948017 1.4003933294998362e-16 0.9024058691404473
  outer loop
    vertex 27.31748252589312 -2.3781995275671817e-15 8.742334575549043
    vertex 26.964119720085332 3.0 8.573608438952363
    vertex 26.964119720085332 -2.26335576062162e-15 8.573608438952363
  endloop
endfacet
facet normal -0.43088704707948017 1.4003933294998362e-16 0.9024058691404473
  outer loop
    vertex 26.964119720085332 3.0 8.573608438952363
    vertex 27.31748252589312 -2.3781995275671817e-15 8.742334575549043
    vertex 27.31748252589312 3.0 8.742334575549043
  endloop
endfacet
facet normal -0.6497647523333457 2.1117511679200917e-16 0.7601353607254342
  outer loop
    vertex 27.61513524851504 -2.474937382671542e-15 8.996768532431673
    vertex 27.31748252589312 3.0 8.742334575549043
    vertex 27.31748252589312 -2.3781995275671817e-15 8.742334575549043
  endloop
endfacet
facet normal -0.6497647523333457 2.1117511679200917e-16 0.7601353607254342
  outer loop
    vertex 27.31748252589312 3.0 8.742334575549043
    vertex 27.61513524851504 -2.474937382671542e-15 8.996768532431673
    vertex 27.61513524851504 3.0 8.996768532431673
  endloop
endfacet
facet normal -0.8243620635027157 2.679196654080397e-16 0.5660628836600619
  outer loop
    vertex 27.83679334679879 3.0 9.319571055910695
    vertex 27.61513524851504 -2.474937382671542e-15 8.996768532431673
    vertex 27.83679334679879 -2.546976800976202e-15 9.319571055910695
  endloop
endfacet
facet normal -0.8243620635027157 2.679196654080397e-16 0.5660628836600619
  outer loop
    vertex 27.61513524851504 -2.474937382671542e-15 8.996768532431673
    vertex 27.83679334679879 3.0 9.319571055910695
    vertex 27.61513524851504 3.0 8.996768532431673
  endloop
endfacet
facet normal -0.9427804623670996 3.064059315846942e-16 0.33341415653639866
  outer loop
    vertex 27.967351187653655 3.0 9.688743687467404
    vertex 27.83679334679879 -2.546976800976202e-15 9.319571055910695
    vertex 27.967351187653655 -2.5894084151744675e-15 9.688743687467404
  endloop
endfacet
facet normal -0.9427804623670996 3.064059315846942e-16 0.33341415653639866
  outer loop
    vertex 27.83679334679879 -2.546976800976202e-15 9.319571055910695
    vertex 27.967351187653655 3.0 9.688743687467404
    vertex 27.83679334679879 3.0 9.319571055910695
  endloop
endfacet
facet normal -0.9969499307395429 3.2401113988359436e-16 0.07804380563773596
  outer loop
    vertex 27.997911469982423 3.0 10.079127922347835
    vertex 27.967351187653655 -2.5894084151744675e-15 9.688743687467404
    vertex 27.997911469982423 -2.5993405808802844e-15 10.079127922347835
  endloop
endfacet
facet normal -0.9969499307395429 3.2401113988359436e-16 0.07804380563773596
  outer loop
    vertex 27.967351187653655 -2.5894084151744675e-15 9.688743687467404
    vertex 27.997911469982423 3.0 10.079127922347835
    vertex 27.967351187653655 3.0 9.688743687467404
  endloop
endfacet
facet normal -0.9831789088697483 3.195355244531545e-16 -0.1826451016416571
  outer loop
    vertex 27.926391561047634 -2.5760964374144812e-15 10.464119720085334
    vertex 27.997911469982423 3.0 10.079127922347835
    vertex 27.997911469982423 -2.5993405808802844e-15 10.079127922347835
  endloop
endfacet
facet normal -0.9831789088697483 3.195355244531545e-16 -0.1826451016416571
  outer loop
    vertex 27.997911469982423 3.0 10.079127922347835
    vertex 27.926391561047634 -2.5760964374144812e-15 10.464119720085334
    vertex 27.926391561047634 3.0 10.464119720085334
  endloop
endfacet
facet normal -0.9024058691404445 2.9328409108865197e-16 -0.43088704707948605
  outer loop
    vertex 27.757665424450952 -2.521260034741489e-15 10.817482525893121
    vertex 27.926391561047634 3.0 10.464119720085334
    vertex 27.926391561047634 -2.5760964374144812e-15 10.464119720085334
  endloop
endfacet
facet normal -0.9024058691404445 2.9328409108865197e-16 -0.43088704707948605
  outer loop
    vertex 27.926391561047634 3.0 10.464119720085334
    vertex 27.757665424450952 -2.521260034741489e-15 10.817482525893121
    vertex 27.757665424450952 3.0 10.817482525893121
  endloop
endfacet
facet normal -0.7601353607254342 2.4704583159133627e-16 -0.6497647523333457
  outer loop
    vertex 27.50323146756832 -2.438568383082032e-15 11.11513524851504
    vertex 27.757665424450952 3.0 10.817482525893121
    vertex 27.757665424450952 -2.521260034741489e-15 10.817482525893121
  endloop
endfacet
facet normal -0.7601353607254342 2.4704583159133627e-16 -0.6497647523333457
  outer loop
    vertex 27.757665424450952 3.0 10.817482525893121
    vertex 27.50323146756832 -2.438568383082032e-15 11.11513524851504
    vertex 27.50323146756832 3.0 11.11513524851504
  endloop
endfacet
facet normal -0.566062883660066 1.839718069336118e-16 -0.8243620635027128
  outer loop
    vertex 27.50323146756832 3.0 11.11513524851504
    vertex 27.1804289440893 -2.333656781842287e-15 11.33679334679879
    vertex 27.1804289440893 3.0 11.33679334679879
  endloop
endfacet
facet normal -0.566062883660066 1.839718069336118e-16 -0.8243620635027128
  outer loop
    vertex 27.1804289440893 -2.333656781842287e-15 11.33679334679879
    vertex 27.50323146756832 3.0 11.11513524851504
    vertex 27.50323146756832 -2.438568383082032e-15 11.11513524851504
  endloop
endfacet
facet normal -0.333414156536403 1.0836040766114541e-16 -0.942780462367098
  outer loop
    vertex 27.1804289440893 3.0 11.33679334679879
    vertex 26.811256312532592 -2.2136747832721235e-15 11.467351187653662
    vertex 26.811256312532592 3.0 11.467351187653662
  endloop
endfacet
facet normal -0.333414156536403 1.0836040766114541e-16 -0.942780462367098
  outer loop
    vertex 26.811256312532592 -2.2136747832721235e-15 11.467351187653662
    vertex 27.1804289440893 3.0 11.33679334679879
    vertex 27.1804289440893 -2.333656781842287e-15 11.33679334679879
  endloop
endfacet
facet normal -0.0780438056377321 2.536442568061332e-17 -0.9969499307395432
  outer loop
    vertex 26.811256312532592 3.0 11.467351187653662
    vertex 26.42087207765216 -2.0867989622944715e-15 11.497911469982427
    vertex 26.42087207765216 3.0 11.497911469982427
  endloop
endfacet
facet normal -0.0780438056377321 2.536442568061332e-17 -0.9969499307395432
  outer loop
    vertex 26.42087207765216 -2.0867989622944715e-15 11.497911469982427
    vertex 26.811256312532592 3.0 11.467351187653662
    vertex 26.811256312532592 -2.2136747832721235e-15 11.467351187653662
  endloop
endfacet
facet normal 0.18264510164166406 -5.936009999335748e-17 -0.983178908869747
  outer loop
    vertex 26.42087207765216 3.0 11.497911469982427
    vertex 26.03588027991466 -1.9616756964367496e-15 11.426391561047634
    vertex 26.03588027991466 3.0 11.426391561047634
  endloop
endfacet
facet normal 0.18264510164166406 -5.936009999335748e-17 -0.983178908869747
  outer loop
    vertex 26.03588027991466 -1.9616756964367496e-15 11.426391561047634
    vertex 26.42087207765216 3.0 11.497911469982427
    vertex 26.42087207765216 -2.0867989622944715e-15 11.497911469982427
  endloop
endfacet
facet normal 0.43088704707948017 -1.4003933294998362e-16 -0.9024058691404473
  outer loop
    vertex 26.03588027991466 3.0 11.426391561047634
    vertex 25.682517474106874 -1.8468319294911876e-15 11.257665424450956
    vertex 25.682517474106874 3.0 11.257665424450956
  endloop
endfacet
facet normal 0.43088704707948017 -1.4003933294998362e-16 -0.9024058691404473
  outer loop
    vertex 25.682517474106874 -1.8468319294911876e-15 11.257665424450956
    vertex 26.03588027991466 3.0 11.426391561047634
    vertex 26.03588027991466 -1.9616756964367496e-15 11.426391561047634
  endloop
endfacet
facet normal 0.6497647523333436 -2.111751167920085e-16 -0.7601353607254361
  outer loop
    vertex 25.682517474106874 3.0 11.257665424450956
    vertex 25.384864751484955 -1.7500940743868276e-15 11.003231467568325
    vertex 25.384864751484955 3.0000000000000013 11.003231467568325
  endloop
endfacet
facet normal 0.6497647523333436 -2.111751167920085e-16 -0.7601353607254361
  outer loop
    vertex 25.384864751484955 -1.7500940743868276e-15 11.003231467568325
    vertex 25.682517474106874 3.0 11.257665424450956
    vertex 25.682517474106874 -1.8468319294911876e-15 11.257665424450956
  endloop
endfacet
facet normal 0.8243620635027167 -2.6791966540804006e-16 -0.5660628836600602
  outer loop
    vertex 25.163206653201204 -1.6780546560821675e-15 10.680428944089304
    vertex 25.384864751484955 3.0000000000000013 11.003231467568325
    vertex 25.384864751484955 -1.7500940743868276e-15 11.003231467568325
  endloop
endfacet
facet normal 0.8243620635027167 -2.6791966540804006e-16 -0.5660628836600602
  outer loop
    vertex 25.384864751484955 3.0000000000000013 11.003231467568325
    vertex 25.163206653201204 -1.6780546560821675e-15 10.680428944089304
    vertex 25.163206653201204 3.0000000000000013 10.680428944089304
  endloop
endfacet
facet normal 0.9427804623670972 -3.0640593158469344e-16 -0.33341415653640505
  outer loop
    vertex 25.032648812346334 -1.6356230418839022e-15 10.311256312532592
    vertex 25.163206653201204 3.0000000000000013 10.680428944089304
    vertex 25.163206653201204 -1.6780546560821675e-15 10.680428944089304
  endloop
endfacet
facet normal 0.9427804623670972 -3.0640593158469344e-16 -0.33341415653640505
  outer loop
    vertex 25.163206653201204 3.0000000000000013 10.680428944089304
    vertex 25.032648812346334 -1.6356230418839022e-15 10.311256312532592
    vertex 25.032648812346334 3.0000000000000013 10.311256312532592
  endloop
endfacet
facet normal 0.4308870470794772 3.450244434999573e-17 -0.9024058691404487
  outer loop
    vertex -26.96411972008533 3.000000000000003 11.426391561047645
    vertex -27.317482525893112 1.8633603813578646e-15 11.257665424450966
    vertex -27.317482525893112 3.000000000000002 11.257665424450966
  endloop
endfacet
facet normal 0.4308870470794772 3.450244434999573e-17 -0.9024058691404487
  outer loop
    vertex -27.317482525893112 1.8633603813578646e-15 11.257665424450966
    vertex -26.96411972008533 3.000000000000003 11.426391561047645
    vertex -26.96411972008533 1.8916552224893797e-15 11.426391561047645
  endloop
endfacet
facet normal 0.6497647523333416 5.202865196324829e-17 -0.7601353607254379
  outer loop
    vertex -27.317482525893112 3.000000000000002 11.257665424450966
    vertex -27.61513524851503 1.8395264170567903e-15 11.00323146756834
    vertex -27.61513524851503 3.000000000000002 11.00323146756834
  endloop
endfacet
facet normal 0.6497647523333416 5.202865196324829e-17 -0.7601353607254379
  outer loop
    vertex -27.61513524851503 1.8395264170567903e-15 11.00323146756834
    vertex -27.317482525893112 3.000000000000002 11.257665424450966
    vertex -27.317482525893112 1.8633603813578646e-15 11.257665424450966
  endloop
endfacet
facet normal 0.8243620635027157 6.600919292661845e-17 -0.5660628836600619
  outer loop
    vertex -27.836793346798782 3.000000000000002 10.680428944089318
    vertex -27.61513524851503 1.8395264170567903e-15 11.00323146756834
    vertex -27.836793346798782 1.821777574865787e-15 10.680428944089318
  endloop
endfacet
facet normal 0.8243620635027157 6.600919292661845e-17 -0.5660628836600619
  outer loop
    vertex -27.61513524851503 1.8395264170567903e-15 11.00323146756834
    vertex -27.836793346798782 3.000000000000002 10.680428944089318
    vertex -27.61513524851503 3.000000000000002 11.00323146756834
  endloop
endfacet
facet normal 0.9427804623670947 7.549131647738799e-17 -0.3334141565364126
  outer loop
    vertex -27.967351187653655 3.000000000000002 10.311256312532608
    vertex -27.836793346798782 1.821777574865787e-15 10.680428944089318
    vertex -27.967351187653655 1.8113234090488233e-15 10.311256312532608
  endloop
endfacet
facet normal 0.9427804623670947 7.549131647738799e-17 -0.3334141565364126
  outer loop
    vertex -27.836793346798782 1.821777574865787e-15 10.680428944089318
    vertex -27.967351187653655 3.000000000000002 10.311256312532608
    vertex -27.836793346798782 3.000000000000002 10.680428944089318
  endloop
endfacet
facet normal 0.9969499307395429 7.982883156552322e-17 -0.07804380563773596
  outer loop
    vertex -27.997911469982423 3.000000000000002 9.920872077652177
    vertex -27.967351187653655 1.8113234090488233e-15 10.311256312532608
    vertex -27.997911469982423 1.8088763537299984e-15 9.920872077652177
  endloop
endfacet
facet normal 0.9969499307395429 7.982883156552322e-17 -0.07804380563773596
  outer loop
    vertex -27.967351187653655 1.8113234090488233e-15 10.311256312532608
    vertex -27.997911469982423 3.000000000000002 9.920872077652177
    vertex -27.967351187653655 3.000000000000002 10.311256312532608
  endloop
endfacet
facet normal 0.9831789088697483 7.87261437058496e-17 0.1826451016416571
  outer loop
    vertex -27.926391561047634 1.814603171685341e-15 9.535880279914679
    vertex -27.997911469982423 3.000000000000002 9.920872077652177
    vertex -27.997911469982423 1.8088763537299984e-15 9.920872077652177
  endloop
endfacet
facet normal 0.9831789088697483 7.87261437058496e-17 0.1826451016416571
  outer loop
    vertex -27.997911469982423 3.000000000000002 9.920872077652177
    vertex -27.926391561047634 1.814603171685341e-15 9.535880279914679
    vertex -27.926391561047634 3.000000000000002 9.535880279914679
  endloop
endfacet
facet normal 0.9024058691404501 7.225839925372624e-17 0.4308870470794743
  outer loop
    vertex -27.757665424450956 1.8281135897352088e-15 9.182517474106891
    vertex -27.926391561047634 3.000000000000002 9.535880279914679
    vertex -27.926391561047634 1.814603171685341e-15 9.535880279914679
  endloop
endfacet
facet normal 0.9024058691404501 7.225839925372624e-17 0.4308870470794743
  outer loop
    vertex -27.926391561047634 3.000000000000002 9.535880279914679
    vertex -27.757665424450956 1.8281135897352088e-15 9.182517474106891
    vertex -27.757665424450956 3.000000000000002 9.182517474106891
  endloop
endfacet
facet normal 0.7601353607254342 6.086636430511179e-17 0.6497647523333457
  outer loop
    vertex -27.503231467568327 1.848486895216524e-15 8.884864751484972
    vertex -27.757665424450956 3.000000000000002 9.182517474106891
    vertex -27.757665424450956 1.8281135897352088e-15 9.182517474106891
  endloop
endfacet
facet normal 0.7601353607254342 6.086636430511179e-17 0.6497647523333457
  outer loop
    vertex -27.757665424450956 3.000000000000002 9.182517474106891
    vertex -27.503231467568327 1.848486895216524e-15 8.884864751484972
    vertex -27.503231467568327 3.000000000000002 8.884864751484972
  endloop
endfacet
facet normal 0.566062883660066 4.532638721552752e-17 0.8243620635027128
  outer loop
    vertex -27.180428944089307 1.8743346810292144e-15 8.663206653201222
    vertex -27.503231467568327 3.000000000000002 8.884864751484972
    vertex -27.503231467568327 1.848486895216524e-15 8.884864751484972
  endloop
endfacet
facet normal 0.566062883660066 4.532638721552752e-17 0.8243620635027128
  outer loop
    vertex -27.503231467568327 3.000000000000002 8.884864751484972
    vertex -27.180428944089307 1.8743346810292144e-15 8.663206653201222
    vertex -27.180428944089307 3.000000000000003 8.663206653201222
  endloop
endfacet
facet normal 0.3334141565364094 2.669749174260153e-17 0.9427804623670958
  outer loop
    vertex -26.8112563125326 1.9038954632856318e-15 8.532648812346348
    vertex -27.180428944089307 3.000000000000003 8.663206653201222
    vertex -27.180428944089307 1.8743346810292144e-15 8.663206653201222
  endloop
endfacet
facet normal 0.3334141565364094 2.669749174260153e-17 0.9427804623670958
  outer loop
    vertex -27.180428944089307 3.000000000000003 8.663206653201222
    vertex -26.8112563125326 1.9038954632856318e-15 8.532648812346348
    vertex -26.8112563125326 3.000000000000003 8.532648812346348
  endloop
endfacet
facet normal 0.07804380563773568 6.249206327107899e-18 0.996949930739543
  outer loop
    vertex -26.420872077652167 1.9351547235265023e-15 8.502088530017582
    vertex -26.8112563125326 3.000000000000003 8.532648812346348
    vertex -26.8112563125326 1.9038954632856318e-15 8.532648812346348
  endloop
endfacet
facet normal 0.07804380563773568 6.249206327107899e-18 0.996949930739543
  outer loop
    vertex -26.8112563125326 3.000000000000003 8.532648812346348
    vertex -26.420872077652167 1.9351547235265023e-15 8.502088530017582
    vertex -26.420872077652167 3.000000000000003 8.502088530017582
  endloop
endfacet
facet normal -0.1826451016416606 -1.462495217227621e-17 0.9831789088697477
  outer loop
    vertex -26.035880279914668 1.965982194824782e-15 8.573608438952373
    vertex -26.420872077652167 3.000000000000003 8.502088530017582
    vertex -26.420872077652167 1.9351547235265023e-15 8.502088530017582
  endloop
endfacet
facet normal -0.1826451016416606 -1.462495217227621e-17 0.9831789088697477
  outer loop
    vertex -26.420872077652167 3.000000000000003 8.502088530017582
    vertex -26.035880279914668 1.965982194824782e-15 8.573608438952373
    vertex -26.035880279914668 3.000000000000003 8.573608438952373
  endloop
endfacet
facet normal -0.4308870470794772 -3.450244434999573e-17 0.9024058691404487
  outer loop
    vertex -25.68251747410688 1.994277035956297e-15 8.742334575549052
    vertex -26.035880279914668 3.000000000000003 8.573608438952373
    vertex -26.035880279914668 1.965982194824782e-15 8.573608438952373
  endloop
endfacet
facet normal -0.4308870470794772 -3.450244434999573e-17 0.9024058691404487
  outer loop
    vertex -26.035880279914668 3.000000000000003 8.573608438952373
    vertex -25.68251747410688 1.994277035956297e-15 8.742334575549052
    vertex -25.68251747410688 3.000000000000003 8.742334575549052
  endloop
endfacet
facet normal -0.6497647523333436 -5.202865196324845e-17 0.7601353607254361
  outer loop
    vertex -25.38486475148496 2.018111000257371e-15 8.99676853243168
    vertex -25.68251747410688 3.000000000000003 8.742334575549052
    vertex -25.68251747410688 1.994277035956297e-15 8.742334575549052
  endloop
endfacet
facet normal -0.6497647523333436 -5.202865196324845e-17 0.7601353607254361
  outer loop
    vertex -25.68251747410688 3.000000000000003 8.742334575549052
    vertex -25.38486475148496 2.018111000257371e-15 8.99676853243168
    vertex -25.38486475148496 3.000000000000003 8.99676853243168
  endloop
endfacet
facet normal -0.8243620635027111 -6.60091929266181e-17 0.5660628836600685
  outer loop
    vertex -25.163206653201208 2.0358598424483745e-15 9.3195710559107
    vertex -25.38486475148496 3.000000000000003 8.99676853243168
    vertex -25.38486475148496 2.018111000257371e-15 8.99676853243168
  endloop
endfacet
facet normal -0.8243620635027111 -6.60091929266181e-17 0.5660628836600685
  outer loop
    vertex -25.38486475148496 3.000000000000003 8.99676853243168
    vertex -25.163206653201208 2.0358598424483745e-15 9.3195710559107
    vertex -25.163206653201208 3.000000000000003 9.3195710559107
  endloop
endfacet
facet normal -0.9427804623670968 -7.549131647738816e-17 0.33341415653640616
  outer loop
    vertex -25.032648812346338 2.0463140082653386e-15 9.688743687467408
    vertex -25.163206653201208 3.000000000000003 9.3195710559107
    vertex -25.163206653201208 2.0358598424483745e-15 9.3195710559107
  endloop
endfacet
facet normal -0.9427804623670968 -7.549131647738816e-17 0.33341415653640616
  outer loop
    vertex -25.163206653201208 3.000000000000003 9.3195710559107
    vertex -25.032648812346338 2.0463140082653386e-15 9.688743687467408
    vertex -25.032648812346338 3.000000000000003 9.688743687467408
  endloop
endfacet
facet normal -0.9969499307395429 -7.982883156552322e-17 0.07804380563773596
  outer loop
    vertex -25.00208853001757 2.048761063584163e-15 10.079127922347839
    vertex -25.032648812346338 3.000000000000003 9.688743687467408
    vertex -25.032648812346338 2.0463140082653386e-15 9.688743687467408
  endloop
endfacet
facet normal -0.9969499307395429 -7.982883156552322e-17 0.07804380563773596
  outer loop
    vertex -25.032648812346338 3.000000000000003 9.688743687467408
    vertex -25.00208853001757 2.048761063584163e-15 10.079127922347839
    vertex -25.00208853001757 3.000000000000003 10.079127922347839
  endloop
endfacet
facet normal -0.9831789088697483 -7.87261437058496e-17 -0.1826451016416571
  outer loop
    vertex -25.07360843895236 3.000000000000003 10.464119720085339
    vertex -25.00208853001757 2.048761063584163e-15 10.079127922347839
    vertex -25.07360843895236 2.0430342456288208e-15 10.464119720085339
  endloop
endfacet
facet normal -0.9831789088697483 -7.87261437058496e-17 -0.1826451016416571
  outer loop
    vertex -25.00208853001757 2.048761063584163e-15 10.079127922347839
    vertex -25.07360843895236 3.000000000000003 10.464119720085339
    vertex -25.00208853001757 3.000000000000003 10.079127922347839
  endloop
endfacet
facet normal -0.9024058691404473 -7.225839925372602e-17 -0.43088704707948017
  outer loop
    vertex -25.242334575549037 3.000000000000003 10.817482525893125
    vertex -25.07360843895236 2.0430342456288208e-15 10.464119720085339
    vertex -25.242334575549037 2.029523827578953e-15 10.817482525893125
  endloop
endfacet
facet normal -0.9024058691404473 -7.225839925372602e-17 -0.43088704707948017
  outer loop
    vertex -25.07360843895236 2.0430342456288208e-15 10.464119720085339
    vertex -25.242334575549037 3.000000000000003 10.817482525893125
    vertex -25.07360843895236 3.000000000000003 10.464119720085339
  endloop
endfacet
facet normal -0.7601353607254393 -6.086636430511219e-17 -0.6497647523333397
  outer loop
    vertex -25.496768532431666 3.000000000000003 11.115135248515045
    vertex -25.242334575549037 2.029523827578953e-15 10.817482525893125
    vertex -25.496768532431666 2.0091505220976378e-15 11.115135248515045
  endloop
endfacet
facet normal -0.7601353607254393 -6.086636430511219e-17 -0.6497647523333397
  outer loop
    vertex -25.242334575549037 2.029523827578953e-15 10.817482525893125
    vertex -25.496768532431666 3.000000000000003 11.115135248515045
    vertex -25.242334575549037 3.000000000000003 10.817482525893125
  endloop
endfacet
facet normal -0.5660628836600636 -4.5326387215527327e-17 -0.8243620635027146
  outer loop
    vertex -25.496768532431666 3.000000000000003 11.115135248515045
    vertex -25.819571055910686 1.9833027362849467e-15 11.336793346798796
    vertex -25.819571055910686 3.000000000000003 11.336793346798796
  endloop
endfacet
facet normal -0.5660628836600636 -4.5326387215527327e-17 -0.8243620635027146
  outer loop
    vertex -25.819571055910686 1.9833027362849467e-15 11.336793346798796
    vertex -25.496768532431666 3.000000000000003 11.115135248515045
    vertex -25.496768532431666 2.0091505220976378e-15 11.115135248515045
  endloop
endfacet
facet normal -0.3334141565364094 -2.669749174260153e-17 -0.9427804623670958
  outer loop
    vertex -25.819571055910686 3.000000000000003 11.336793346798796
    vertex -26.188743687467394 1.95374195402853e-15 11.46735118765367
    vertex -26.188743687467394 3.000000000000003 11.46735118765367
  endloop
endfacet
facet normal -0.3334141565364094 -2.669749174260153e-17 -0.9427804623670958
  outer loop
    vertex -26.188743687467394 1.95374195402853e-15 11.46735118765367
    vertex -25.819571055910686 3.000000000000003 11.336793346798796
    vertex -25.819571055910686 1.9833027362849467e-15 11.336793346798796
  endloop
endfacet
facet normal -0.0780438056377321 -6.2492063271076116e-18 -0.9969499307395432
  outer loop
    vertex -26.188743687467394 3.000000000000003 11.46735118765367
    vertex -26.579127922347826 1.922482693787659e-15 11.497911469982434
    vertex -26.579127922347826 3.000000000000003 11.497911469982434
  endloop
endfacet
facet normal -0.0780438056377321 -6.2492063271076116e-18 -0.9969499307395432
  outer loop
    vertex -26.579127922347826 1.922482693787659e-15 11.497911469982434
    vertex -26.188743687467394 3.000000000000003 11.46735118765367
    vertex -26.188743687467394 1.95374195402853e-15 11.46735118765367
  endloop
endfacet
facet normal 0.1826451016416571 1.4624952172275933e-17 -0.9831789088697483
  outer loop
    vertex -26.579127922347826 3.000000000000003 11.497911469982434
    vertex -26.96411972008533 1.8916552224893797e-15 11.426391561047645
    vertex -26.96411972008533 3.000000000000003 11.426391561047645
  endloop
endfacet
facet normal 0.1826451016416571 1.4624952172275933e-17 -0.9831789088697483
  outer loop
    vertex -26.96411972008533 1.8916552224893797e-15 11.426391561047645
    vertex -26.579127922347826 3.000000000000003 11.497911469982434
    vertex -26.579127922347826 1.922482693787659e-15 11.497911469982434
  endloop
endfacet
endsolid bus_camera_holder
