solid Untitled-5f7ba84e
facet normal 0.0 0.0 -1.0
  outer loop
    vertex 1.1634144591899855e-15 44.0 0.0
    vertex 3.6234666314352935 13.522961568046956 0.0
    vertex 8.572527594031472e-16 14.0 0.0
  endloop
endfacet
facet normal 0.0 0.0 -1.0
  outer loop
    vertex 3.6234666314352935 13.522961568046956 0.0
    vertex 1.1634144591899855e-15 44.0 0.0
    vertex 4.917561856947898 44.0 0.0
  endloop
endfacet
facet normal 0.0 0.0 -1.0
  outer loop
    vertex 3.6234666314352935 13.522961568046956 0.0
    vertex 4.917561856947898 44.0 0.0
    vertex 4.917561856947898 18.352590699492296 0.0
  endloop
endfacet
facet normal 0.0 0.0 -1.0
  outer loop
    vertex 3.6234666314352935 13.522961568046956 0.0
    vertex 4.917561856947898 18.352590699492296 0.0
    vertex 7.000000000000001 12.12435565298214 0.0
  endloop
endfacet
facet normal 0.0 0.0 -1.0
  outer loop
    vertex 7.000000000000001 12.12435565298214 0.0
    vertex 4.917561856947898 18.352590699492296 0.0
    vertex 9.500000000000002 16.454482671904334 0.0
  endloop
endfacet
facet normal 0.0 0.0 -1.0
  outer loop
    vertex 7.000000000000001 12.12435565298214 0.0
    vertex 9.500000000000002 16.454482671904334 0.0
    vertex 9.899494936611665 9.899494936611665 0.0
  endloop
endfacet
facet normal 0.0 0.0 -1.0
  outer loop
    vertex 9.899494936611665 9.899494936611665 0.0
    vertex 9.500000000000002 16.454482671904334 0.0
    vertex 13.435028842544403 13.4350288425444 0.0
  endloop
endfacet
facet normal 0.0 0.0 -1.0
  outer loop
    vertex 9.899494936611665 9.899494936611665 0.0
    vertex 13.435028842544403 13.4350288425444 0.0
    vertex 12.12435565298214 6.999999999999998 0.0
  endloop
endfacet
facet normal 0.0 0.0 -1.0
  outer loop
    vertex 12.12435565298214 6.999999999999998 0.0
    vertex 13.435028842544403 13.4350288425444 0.0
    vertex 13.522961568046956 3.6234666314352904 0.0
  endloop
endfacet
facet normal 0.0 0.0 -1.0
  outer loop
    vertex 13.522961568046956 3.6234666314352904 0.0
    vertex 13.435028842544403 13.4350288425444 0.0
    vertex 16.454482671904337 9.499999999999998 0.0
  endloop
endfacet
facet normal 0.0 0.0 -1.0
  outer loop
    vertex 13.522961568046956 3.6234666314352904 0.0
    vertex 16.454482671904337 9.499999999999998 0.0
    vertex 14.0 0.0 0.0
  endloop
endfacet
facet normal 0.0 0.0 -1.0
  outer loop
    vertex 14.0 0.0 0.0
    vertex 16.454482671904337 9.499999999999998 0.0
    vertex 16.454482671904326 -9.500000000000007 0.0
  endloop
endfacet
facet normal 0.0 0.0 -1.0
  outer loop
    vertex 16.454482671904326 -9.500000000000007 0.0
    vertex 16.454482671904337 9.499999999999998 0.0
    vertex 18.352590699492293 -4.917561856947909 0.0
  endloop
endfacet
facet normal 0.0 0.0 -1.0
  outer loop
    vertex 18.352590699492293 -4.917561856947909 0.0
    vertex 16.454482671904337 9.499999999999998 0.0
    vertex 18.352590699492296 4.917561856947894 0.0
  endloop
endfacet
facet normal 0.0 0.0 -1.0
  outer loop
    vertex 18.352590699492293 -4.917561856947909 0.0
    vertex 18.352590699492296 4.917561856947894 0.0
    vertex 19.0 0.0 0.0
  endloop
endfacet
facet normal 0.0 0.0 -1.0
  outer loop
    vertex 6.99999999999999 -12.124355652982146 0.0
    vertex 4.999999999999995 -18.318443702583263 0.0
    vertex 3.623466631435284 -13.522961568046957 0.0
  endloop
endfacet
facet normal 0.0 0.0 -1.0
  outer loop
    vertex 4.999999999999995 -18.318443702583263 0.0
    vertex 6.99999999999999 -12.124355652982146 0.0
    vertex 9.499999999999988 -16.45448267190434 0.0
  endloop
endfacet
facet normal 0.0 0.0 -1.0
  outer loop
    vertex 9.499999999999988 -16.45448267190434 0.0
    vertex 6.99999999999999 -12.124355652982146 0.0
    vertex 9.899494936611664 -9.899494936611667 0.0
  endloop
endfacet
facet normal 0.0 0.0 -1.0
  outer loop
    vertex 9.499999999999988 -16.45448267190434 0.0
    vertex 9.899494936611664 -9.899494936611667 0.0
    vertex 13.4350288425444 -13.435028842544405 0.0
  endloop
endfacet
facet normal 0.0 0.0 -1.0
  outer loop
    vertex 13.4350288425444 -13.435028842544405 0.0
    vertex 9.899494936611664 -9.899494936611667 0.0
    vertex 12.124355652982137 -7.000000000000005 0.0
  endloop
endfacet
facet normal 0.0 0.0 -1.0
  outer loop
    vertex 13.4350288425444 -13.435028842544405 0.0
    vertex 12.124355652982137 -7.000000000000005 0.0
    vertex 13.522961568046952 -3.623466631435302 0.0
  endloop
endfacet
facet normal 0.0 0.0 -1.0
  outer loop
    vertex 13.4350288425444 -13.435028842544405 0.0
    vertex 13.522961568046952 -3.623466631435302 0.0
    vertex 16.454482671904326 -9.500000000000007 0.0
  endloop
endfacet
facet normal 0.0 0.0 -1.0
  outer loop
    vertex 16.454482671904326 -9.500000000000007 0.0
    vertex 13.522961568046952 -3.623466631435302 0.0
    vertex 14.0 0.0 0.0
  endloop
endfacet
facet normal 0.0 0.0 -1.0
  outer loop
    vertex -2.5717582782094417e-15 -14.0 0.0
    vertex 4.999999999999996 -38.99999999999999 0.0
    vertex -3.4902433775699565e-15 -38.99999999999999 0.0
  endloop
endfacet
facet normal 0.0 0.0 -1.0
  outer loop
    vertex 4.999999999999996 -38.99999999999999 0.0
    vertex -2.5717582782094417e-15 -14.0 0.0
    vertex 3.623466631435284 -13.522961568046957 0.0
  endloop
endfacet
facet normal 0.0 0.0 -1.0
  outer loop
    vertex 4.999999999999996 -38.99999999999999 0.0
    vertex 3.623466631435284 -13.522961568046957 0.0
    vertex 4.999999999999995 -18.318443702583263 0.0
  endloop
endfacet
facet normal 0.0 0.0 1.0
  outer loop
    vertex 4.999999999999995 -18.318443702583263 29.999999999999996
    vertex 6.99999999999999 -12.124355652982146 29.999999999999996
    vertex 3.623466631435284 -13.522961568046957 29.999999999999996
  endloop
endfacet
facet normal 0.0 0.0 1.0
  outer loop
    vertex 6.99999999999999 -12.124355652982146 29.999999999999996
    vertex 4.999999999999995 -18.318443702583263 29.999999999999996
    vertex 9.499999999999988 -16.45448267190434 29.999999999999996
  endloop
endfacet
facet normal 0.0 0.0 1.0
  outer loop
    vertex 6.99999999999999 -12.124355652982146 29.999999999999996
    vertex 9.499999999999988 -16.45448267190434 29.999999999999996
    vertex 9.899494936611664 -9.899494936611667 29.999999999999996
  endloop
endfacet
facet normal 0.0 0.0 1.0
  outer loop
    vertex 9.899494936611664 -9.899494936611667 29.999999999999996
    vertex 9.499999999999988 -16.45448267190434 29.999999999999996
    vertex 13.4350288425444 -13.435028842544405 29.999999999999996
  endloop
endfacet
facet normal 0.0 0.0 1.0
  outer loop
    vertex 9.899494936611664 -9.899494936611667 29.999999999999996
    vertex 13.4350288425444 -13.435028842544405 29.999999999999996
    vertex 12.124355652982137 -7.000000000000005 29.999999999999996
  endloop
endfacet
facet normal 0.0 0.0 1.0
  outer loop
    vertex 12.124355652982137 -7.000000000000005 29.999999999999996
    vertex 13.4350288425444 -13.435028842544405 29.999999999999996
    vertex 13.522961568046952 -3.623466631435302 29.999999999999996
  endloop
endfacet
facet normal 0.0 0.0 1.0
  outer loop
    vertex 13.522961568046952 -3.623466631435302 29.999999999999996
    vertex 13.4350288425444 -13.435028842544405 29.999999999999996
    vertex 16.454482671904326 -9.500000000000007 29.999999999999996
  endloop
endfacet
facet normal 0.0 0.0 1.0
  outer loop
    vertex 13.522961568046952 -3.623466631435302 29.999999999999996
    vertex 16.454482671904326 -9.500000000000007 29.999999999999996
    vertex 14.0 0.0 29.999999999999996
  endloop
endfacet
facet normal 0.0 0.0 1.0
  outer loop
    vertex 7.000000000000001 12.12435565298214 29.999999999999996
    vertex 4.917561856947898 18.352590699492296 29.999999999999996
    vertex 3.6234666314352935 13.522961568046956 29.999999999999996
  endloop
endfacet
facet normal 0.0 0.0 1.0
  outer loop
    vertex 4.917561856947898 18.352590699492296 29.999999999999996
    vertex 7.000000000000001 12.12435565298214 29.999999999999996
    vertex 9.500000000000002 16.454482671904334 29.999999999999996
  endloop
endfacet
facet normal 0.0 0.0 1.0
  outer loop
    vertex 9.500000000000002 16.454482671904334 29.999999999999996
    vertex 7.000000000000001 12.12435565298214 29.999999999999996
    vertex 9.899494936611665 9.899494936611665 29.999999999999996
  endloop
endfacet
facet normal 0.0 0.0 1.0
  outer loop
    vertex 9.500000000000002 16.454482671904334 29.999999999999996
    vertex 9.899494936611665 9.899494936611665 29.999999999999996
    vertex 13.435028842544403 13.4350288425444 29.999999999999996
  endloop
endfacet
facet normal 0.0 0.0 1.0
  outer loop
    vertex 13.435028842544403 13.4350288425444 29.999999999999996
    vertex 9.899494936611665 9.899494936611665 29.999999999999996
    vertex 12.12435565298214 6.999999999999998 29.999999999999996
  endloop
endfacet
facet normal 0.0 0.0 1.0
  outer loop
    vertex 13.435028842544403 13.4350288425444 29.999999999999996
    vertex 12.12435565298214 6.999999999999998 29.999999999999996
    vertex 13.522961568046956 3.6234666314352904 29.999999999999996
  endloop
endfacet
facet normal 0.0 0.0 1.0
  outer loop
    vertex 13.435028842544403 13.4350288425444 29.999999999999996
    vertex 13.522961568046956 3.6234666314352904 29.999999999999996
    vertex 16.454482671904337 9.499999999999998 29.999999999999996
  endloop
endfacet
facet normal 0.0 0.0 1.0
  outer loop
    vertex 16.454482671904337 9.499999999999998 29.999999999999996
    vertex 13.522961568046956 3.6234666314352904 29.999999999999996
    vertex 14.0 0.0 29.999999999999996
  endloop
endfacet
facet normal 0.0 0.0 1.0
  outer loop
    vertex 16.454482671904337 9.499999999999998 29.999999999999996
    vertex 14.0 0.0 29.999999999999996
    vertex 16.454482671904326 -9.500000000000007 29.999999999999996
  endloop
endfacet
facet normal 0.0 0.0 1.0
  outer loop
    vertex 16.454482671904337 9.499999999999998 29.999999999999996
    vertex 16.454482671904326 -9.500000000000007 29.999999999999996
    vertex 18.352590699492293 -4.917561856947909 29.999999999999996
  endloop
endfacet
facet normal 0.0 0.0 1.0
  outer loop
    vertex 16.454482671904337 9.499999999999998 29.999999999999996
    vertex 18.352590699492293 -4.917561856947909 29.999999999999996
    vertex 18.352590699492296 4.917561856947894 29.999999999999996
  endloop
endfacet
facet normal 0.0 0.0 1.0
  outer loop
    vertex 18.352590699492296 4.917561856947894 29.999999999999996
    vertex 18.352590699492293 -4.917561856947909 29.999999999999996
    vertex 19.0 0.0 29.999999999999996
  endloop
endfacet
facet normal 0.0 0.0 1.0
  outer loop
    vertex 4.999999999999996 -38.99999999999999 29.999999999999996
    vertex -2.5717582782094417e-15 -14.0 29.999999999999996
    vertex -3.4902433775699565e-15 -38.99999999999999 29.999999999999996
  endloop
endfacet
facet normal 0.0 0.0 1.0
  outer loop
    vertex -2.5717582782094417e-15 -14.0 29.999999999999996
    vertex 4.999999999999996 -38.99999999999999 29.999999999999996
    vertex 3.623466631435284 -13.522961568046957 29.999999999999996
  endloop
endfacet
facet normal 0.0 0.0 1.0
  outer loop
    vertex 3.623466631435284 -13.522961568046957 29.999999999999996
    vertex 4.999999999999996 -38.99999999999999 29.999999999999996
    vertex 4.999999999999995 -18.318443702583263 29.999999999999996
  endloop
endfacet
facet normal 0.0 0.0 1.0
  outer loop
    vertex 3.6234666314352935 13.522961568046956 29.999999999999996
    vertex 1.1634144591899855e-15 44.0 29.999999999999996
    vertex 8.572527594031472e-16 14.0 29.999999999999996
  endloop
endfacet
facet normal 0.0 0.0 1.0
  outer loop
    vertex 1.1634144591899855e-15 44.0 29.999999999999996
    vertex 3.6234666314352935 13.522961568046956 29.999999999999996
    vertex 4.917561856947898 44.0 29.999999999999996
  endloop
endfacet
facet normal 0.0 0.0 1.0
  outer loop
    vertex 4.917561856947898 44.0 29.999999999999996
    vertex 3.6234666314352935 13.522961568046956 29.999999999999996
    vertex 4.917561856947898 18.352590699492296 29.999999999999996
  endloop
endfacet
facet normal 0.3826834323650892 -0.9238795325112872 0.0
  outer loop
    vertex 9.499999999999988 -16.45448267190434 29.999999999999996
    vertex 4.999999999999995 -18.318443702583263 0.0
    vertex 9.499999999999988 -16.45448267190434 0.0
  endloop
endfacet
facet normal 0.3826834323650892 -0.9238795325112872 0.0
  outer loop
    vertex 4.999999999999995 -18.318443702583263 0.0
    vertex 9.499999999999988 -16.45448267190434 29.999999999999996
    vertex 4.999999999999995 -18.318443702583263 29.999999999999996
  endloop
endfacet
facet normal 1.0 3.408793857186814e-17 0.0
  outer loop
    vertex 4.999999999999996 -38.99999999999999 0.0
    vertex 4.999999999999996 -30.14119182281509 13.978351820095208
    vertex 4.999999999999996 -38.99999999999999 29.999999999999996
  endloop
endfacet
facet normal 1.0 3.408793857186814e-17 0.0
  outer loop
    vertex 4.999999999999996 -30.14119182281509 13.978351820095208
    vertex 4.999999999999996 -38.99999999999999 0.0
    vertex 4.999999999999995 -18.318443702583263 0.0
  endloop
endfacet
facet normal 1.0 3.408793857186814e-17 0.0
  outer loop
    vertex 4.999999999999996 -38.99999999999999 29.999999999999996
    vertex 4.999999999999996 -30.14119182281509 13.978351820095208
    vertex 4.999999999999996 -30.355116926924698 14.396725690549053
  endloop
endfacet
facet normal 1.0 3.408793857186814e-17 0.0
  outer loop
    vertex 4.999999999999996 -38.99999999999999 29.999999999999996
    vertex 4.999999999999996 -30.355116926924698 14.396725690549053
    vertex 4.999999999999996 -30.45346958422904 14.856211708234042
  endloop
endfacet
facet normal 1.0 3.408793857186814e-17 0.0
  outer loop
    vertex 4.999999999999996 -30.14119182281509 13.978351820095208
    vertex 4.999999999999995 -18.318443702583263 0.0
    vertex 4.999999999999996 -29.826272914217324 13.62960158474843
  endloop
endfacet
facet normal 1.0 3.408793857186814e-17 0.0
  outer loop
    vertex 4.999999999999996 -29.826272914217324 13.62960158474843
    vertex 4.999999999999995 -18.318443702583263 0.0
    vertex 4.999999999999996 -29.431821404324253 13.374241736710587
  endloop
endfacet
facet normal 1.0 3.408793857186814e-17 0.0
  outer loop
    vertex 4.999999999999996 -29.431821404324253 13.374241736710587
    vertex 4.999999999999995 -18.318443702583263 0.0
    vertex 4.999999999999996 -28.984718511673137 13.229674627623357
  endloop
endfacet
facet normal 1.0 3.408793857186814e-17 0.0
  outer loop
    vertex 4.999999999999996 -28.984718511673137 13.229674627623357
    vertex 4.999999999999995 -18.318443702583263 0.0
    vertex 4.999999999999996 -28.515433559525682 13.205752267062588
  endloop
endfacet
facet normal 1.0 3.408793857186814e-17 0.0
  outer loop
    vertex 4.999999999999996 -28.515433559525682 13.205752267062588
    vertex 4.999999999999995 -18.318443702583263 0.0
    vertex 4.999999999999996 -28.055947541840688 13.30410492436693
  endloop
endfacet
facet normal 1.0 3.408793857186814e-17 0.0
  outer loop
    vertex 4.999999999999996 -28.055947541840688 13.30410492436693
    vertex 4.999999999999995 -18.318443702583263 0.0
    vertex 4.999999999999996 -27.637573671386846 13.51803002847654
  endloop
endfacet
facet normal 1.0 3.408793857186814e-17 0.0
  outer loop
    vertex 4.999999999999996 -27.637573671386846 13.51803002847654
    vertex 4.999999999999995 -18.318443702583263 0.0
    vertex 4.999999999999996 -27.288823436040065 13.8329489370743
  endloop
endfacet
facet normal 1.0 3.408793857186814e-17 0.0
  outer loop
    vertex 4.999999999999996 -27.288823436040065 13.8329489370743
    vertex 4.999999999999995 -18.318443702583263 0.0
    vertex 4.999999999999996 -27.033463588002224 14.227400446967374
  endloop
endfacet
facet normal 1.0 3.408793857186814e-17 0.0
  outer loop
    vertex 4.999999999999996 -27.033463588002224 14.227400446967374
    vertex 4.999999999999995 -18.318443702583263 0.0
    vertex 4.999999999999996 -26.888896478914994 14.674503339618495
  endloop
endfacet
facet normal 1.0 3.408793857186814e-17 0.0
  outer loop
    vertex 4.999999999999996 -26.888896478914994 14.674503339618495
    vertex 4.999999999999995 -18.318443702583263 0.0
    vertex 4.999999999999996 -26.864974118354226 15.143788291765949
  endloop
endfacet
facet normal 1.0 3.408793857186814e-17 0.0
  outer loop
    vertex 4.999999999999996 -38.99999999999999 29.999999999999996
    vertex 4.999999999999996 -30.0296202665432 16.16705106292569
    vertex 4.999999999999995 -18.318443702583263 29.999999999999996
  endloop
endfacet
facet normal 1.0 3.408793857186814e-17 0.0
  outer loop
    vertex 4.999999999999996 -30.0296202665432 16.16705106292569
    vertex 4.999999999999996 -38.99999999999999 29.999999999999996
    vertex 4.999999999999996 -30.284980114581042 15.772599553032615
  endloop
endfacet
facet normal 1.0 3.408793857186814e-17 0.0
  outer loop
    vertex 4.999999999999996 -30.284980114581042 15.772599553032615
    vertex 4.999999999999996 -38.99999999999999 29.999999999999996
    vertex 4.999999999999996 -30.42954722366827 15.325496660381496
  endloop
endfacet
facet normal 1.0 3.408793857186814e-17 0.0
  outer loop
    vertex 4.999999999999996 -30.42954722366827 15.325496660381496
    vertex 4.999999999999996 -38.99999999999999 29.999999999999996
    vertex 4.999999999999996 -30.45346958422904 14.856211708234042
  endloop
endfacet
facet normal 1.0 3.408793857186814e-17 0.0
  outer loop
    vertex 4.999999999999995 -18.318443702583263 29.999999999999996
    vertex 4.999999999999996 -30.0296202665432 16.16705106292569
    vertex 4.999999999999996 -29.68087003119642 16.48196997152345
  endloop
endfacet
facet normal 1.0 3.408793857186814e-17 0.0
  outer loop
    vertex 4.999999999999995 -18.318443702583263 29.999999999999996
    vertex 4.999999999999996 -29.68087003119642 16.48196997152345
    vertex 4.999999999999996 -29.26249616074258 16.69589507563306
  endloop
endfacet
facet normal 1.0 3.408793857186814e-17 0.0
  outer loop
    vertex 4.999999999999995 -18.318443702583263 29.999999999999996
    vertex 4.999999999999996 -29.26249616074258 16.69589507563306
    vertex 4.999999999999996 -28.803010143057584 16.794247732937404
  endloop
endfacet
facet normal 1.0 3.408793857186814e-17 0.0
  outer loop
    vertex 4.999999999999995 -18.318443702583263 29.999999999999996
    vertex 4.999999999999996 -28.803010143057584 16.794247732937404
    vertex 4.999999999999996 -28.333725190910133 16.770325372376632
  endloop
endfacet
facet normal 1.0 3.408793857186814e-17 0.0
  outer loop
    vertex 4.999999999999995 -18.318443702583263 29.999999999999996
    vertex 4.999999999999996 -28.333725190910133 16.770325372376632
    vertex 4.999999999999996 -27.886622298259013 16.625758263289402
  endloop
endfacet
facet normal 1.0 3.408793857186814e-17 0.0
  outer loop
    vertex 4.999999999999995 -18.318443702583263 29.999999999999996
    vertex 4.999999999999996 -27.886622298259013 16.625758263289402
    vertex 4.999999999999996 -27.49217078836594 16.37039841525156
  endloop
endfacet
facet normal 1.0 3.408793857186814e-17 0.0
  outer loop
    vertex 4.999999999999995 -18.318443702583263 29.999999999999996
    vertex 4.999999999999996 -27.49217078836594 16.37039841525156
    vertex 4.999999999999996 -27.17725187976818 16.021648179904783
  endloop
endfacet
facet normal 1.0 3.408793857186814e-17 0.0
  outer loop
    vertex 4.999999999999995 -18.318443702583263 29.999999999999996
    vertex 4.999999999999996 -27.17725187976818 16.021648179904783
    vertex 4.999999999999996 -26.963326775658565 15.603274309450939
  endloop
endfacet
facet normal 1.0 3.408793857186814e-17 0.0
  outer loop
    vertex 4.999999999999995 -18.318443702583263 29.999999999999996
    vertex 4.999999999999996 -26.963326775658565 15.603274309450939
    vertex 4.999999999999996 -26.864974118354226 15.143788291765949
  endloop
endfacet
facet normal 1.0 3.408793857186814e-17 0.0
  outer loop
    vertex 4.999999999999995 -18.318443702583263 29.999999999999996
    vertex 4.999999999999996 -26.864974118354226 15.143788291765949
    vertex 4.999999999999995 -18.318443702583263 0.0
  endloop
endfacet
facet normal -0.0 -1.0 -0.0
  outer loop
    vertex 4.999999999999996 -38.99999999999999 29.999999999999996
    vertex -3.4902433775699565e-15 -38.99999999999999 0.0
    vertex 4.999999999999996 -38.99999999999999 0.0
  endloop
endfacet
facet normal -0.0 -1.0 -0.0
  outer loop
    vertex -3.4902433775699565e-15 -38.99999999999999 0.0
    vertex 4.999999999999996 -38.99999999999999 29.999999999999996
    vertex -3.4902433775699565e-15 -38.99999999999999 29.999999999999996
  endloop
endfacet
facet normal -1.0 3.6739403974420595e-17 0.0
  outer loop
    vertex -3.4902433775699565e-15 -38.99999999999999 29.999999999999996
    vertex 2.8199664825478975e-15 -30.284980114581042 15.772599553032615
    vertex -3.4902433775699565e-15 -38.99999999999999 0.0
  endloop
endfacet
facet normal -1.0 3.6739403974420595e-17 0.0
  outer loop
    vertex 2.8199664825478975e-15 -30.284980114581042 15.772599553032615
    vertex -3.4902433775699565e-15 -38.99999999999999 29.999999999999996
    vertex 2.8199664825478975e-15 -30.0296202665432 16.16705106292569
  endloop
endfacet
facet normal -1.0 3.6739403974420595e-17 0.0
  outer loop
    vertex 2.8199664825478975e-15 -30.0296202665432 16.16705106292569
    vertex -3.4902433775699565e-15 -38.99999999999999 29.999999999999996
    vertex 2.8199664825478975e-15 -29.68087003119642 16.48196997152345
  endloop
endfacet
facet normal -1.0 3.6739403974420595e-17 0.0
  outer loop
    vertex 2.8199664825478975e-15 -29.68087003119642 16.48196997152345
    vertex -3.4902433775699565e-15 -38.99999999999999 29.999999999999996
    vertex -2.5717582782094417e-15 -14.0 29.999999999999996
  endloop
endfacet
facet normal -1.0 3.6739403974420595e-17 0.0
  outer loop
    vertex -3.4902433775699565e-15 -38.99999999999999 0.0
    vertex 2.8199664825478975e-15 -30.284980114581042 15.772599553032615
    vertex 2.8199664825478975e-15 -30.42954722366827 15.325496660381496
  endloop
endfacet
facet normal -1.0 3.6739403974420595e-17 0.0
  outer loop
    vertex -3.4902433775699565e-15 -38.99999999999999 0.0
    vertex 2.8199664825478975e-15 -30.42954722366827 15.325496660381496
    vertex 2.8199664825478975e-15 -30.45346958422904 14.856211708234042
  endloop
endfacet
facet normal -1.0 3.6739403974420595e-17 0.0
  outer loop
    vertex 2.8199664825478975e-15 -29.68087003119642 16.48196997152345
    vertex -2.5717582782094417e-15 -14.0 29.999999999999996
    vertex 2.8199664825478975e-15 -29.26249616074258 16.69589507563306
  endloop
endfacet
facet normal -1.0 3.6739403974420595e-17 0.0
  outer loop
    vertex 2.8199664825478975e-15 -29.26249616074258 16.69589507563306
    vertex -2.5717582782094417e-15 -14.0 29.999999999999996
    vertex 2.8199664825478975e-15 -28.803010143057584 16.794247732937404
  endloop
endfacet
facet normal -1.0 3.6739403974420595e-17 0.0
  outer loop
    vertex 2.8199664825478975e-15 -28.803010143057584 16.794247732937404
    vertex -2.5717582782094417e-15 -14.0 29.999999999999996
    vertex 2.8199664825478975e-15 -28.333725190910133 16.770325372376632
  endloop
endfacet
facet normal -1.0 3.6739403974420595e-17 0.0
  outer loop
    vertex 2.8199664825478975e-15 -28.333725190910133 16.770325372376632
    vertex -2.5717582782094417e-15 -14.0 29.999999999999996
    vertex 2.8199664825478975e-15 -27.886622298259013 16.625758263289402
  endloop
endfacet
facet normal -1.0 3.6739403974420595e-17 0.0
  outer loop
    vertex 2.8199664825478975e-15 -27.886622298259013 16.625758263289402
    vertex -2.5717582782094417e-15 -14.0 29.999999999999996
    vertex 2.8199664825478975e-15 -27.49217078836594 16.37039841525156
  endloop
endfacet
facet normal -1.0 3.6739403974420595e-17 0.0
  outer loop
    vertex 2.8199664825478975e-15 -27.49217078836594 16.37039841525156
    vertex -2.5717582782094417e-15 -14.0 29.999999999999996
    vertex 2.8199664825478975e-15 -27.17725187976818 16.021648179904783
  endloop
endfacet
facet normal -1.0 3.6739403974420595e-17 0.0
  outer loop
    vertex 2.8199664825478975e-15 -27.17725187976818 16.021648179904783
    vertex -2.5717582782094417e-15 -14.0 29.999999999999996
    vertex 2.8199664825478975e-15 -26.963326775658565 15.603274309450939
  endloop
endfacet
facet normal -1.0 3.6739403974420595e-17 0.0
  outer loop
    vertex 2.8199664825478975e-15 -26.963326775658565 15.603274309450939
    vertex -2.5717582782094417e-15 -14.0 29.999999999999996
    vertex 2.8199664825478975e-15 -26.864974118354226 15.143788291765949
  endloop
endfacet
facet normal -1.0 3.6739403974420595e-17 0.0
  outer loop
    vertex -3.4902433775699565e-15 -38.99999999999999 0.0
    vertex 2.8199664825478975e-15 -29.826272914217324 13.62960158474843
    vertex -2.5717582782094417e-15 -14.0 0.0
  endloop
endfacet
facet normal -1.0 3.6739403974420595e-17 0.0
  outer loop
    vertex 2.8199664825478975e-15 -29.826272914217324 13.62960158474843
    vertex -3.4902433775699565e-15 -38.99999999999999 0.0
    vertex 2.8199664825478975e-15 -30.14119182281509 13.978351820095208
  endloop
endfacet
facet normal -1.0 3.6739403974420595e-17 0.0
  outer loop
    vertex 2.8199664825478975e-15 -30.14119182281509 13.978351820095208
    vertex -3.4902433775699565e-15 -38.99999999999999 0.0
    vertex 2.8199664825478975e-15 -30.355116926924698 14.396725690549053
  endloop
endfacet
facet normal -1.0 3.6739403974420595e-17 0.0
  outer loop
    vertex 2.8199664825478975e-15 -30.355116926924698 14.396725690549053
    vertex -3.4902433775699565e-15 -38.99999999999999 0.0
    vertex 2.8199664825478975e-15 -30.45346958422904 14.856211708234042
  endloop
endfacet
facet normal -1.0 3.6739403974420595e-17 0.0
  outer loop
    vertex -2.5717582782094417e-15 -14.0 0.0
    vertex 2.8199664825478975e-15 -29.826272914217324 13.62960158474843
    vertex 2.8199664825478975e-15 -29.431821404324253 13.374241736710587
  endloop
endfacet
facet normal -1.0 3.6739403974420595e-17 0.0
  outer loop
    vertex -2.5717582782094417e-15 -14.0 0.0
    vertex 2.8199664825478975e-15 -29.431821404324253 13.374241736710587
    vertex 2.8199664825478975e-15 -28.984718511673137 13.229674627623357
  endloop
endfacet
facet normal -1.0 3.6739403974420595e-17 0.0
  outer loop
    vertex -2.5717582782094417e-15 -14.0 0.0
    vertex 2.8199664825478975e-15 -28.984718511673137 13.229674627623357
    vertex 2.8199664825478975e-15 -28.515433559525682 13.205752267062588
  endloop
endfacet
facet normal -1.0 3.6739403974420595e-17 0.0
  outer loop
    vertex -2.5717582782094417e-15 -14.0 0.0
    vertex 2.8199664825478975e-15 -28.515433559525682 13.205752267062588
    vertex 2.8199664825478975e-15 -28.055947541840688 13.30410492436693
  endloop
endfacet
facet normal -1.0 3.6739403974420595e-17 0.0
  outer loop
    vertex -2.5717582782094417e-15 -14.0 0.0
    vertex 2.8199664825478975e-15 -28.055947541840688 13.30410492436693
    vertex 2.8199664825478975e-15 -27.637573671386846 13.51803002847654
  endloop
endfacet
facet normal -1.0 3.6739403974420595e-17 0.0
  outer loop
    vertex -2.5717582782094417e-15 -14.0 0.0
    vertex 2.8199664825478975e-15 -27.637573671386846 13.51803002847654
    vertex 2.8199664825478975e-15 -27.288823436040065 13.8329489370743
  endloop
endfacet
facet normal -1.0 3.6739403974420595e-17 0.0
  outer loop
    vertex -2.5717582782094417e-15 -14.0 0.0
    vertex 2.8199664825478975e-15 -27.288823436040065 13.8329489370743
    vertex 2.8199664825478975e-15 -27.033463588002224 14.227400446967374
  endloop
endfacet
facet normal -1.0 3.6739403974420595e-17 0.0
  outer loop
    vertex -2.5717582782094417e-15 -14.0 0.0
    vertex 2.8199664825478975e-15 -27.033463588002224 14.227400446967374
    vertex 2.8199664825478975e-15 -26.888896478914994 14.674503339618495
  endloop
endfacet
facet normal -1.0 3.6739403974420595e-17 0.0
  outer loop
    vertex -2.5717582782094417e-15 -14.0 0.0
    vertex 2.8199664825478975e-15 -26.888896478914994 14.674503339618495
    vertex 2.8199664825478975e-15 -26.864974118354226 15.143788291765949
  endloop
endfacet
facet normal -1.0 3.6739403974420595e-17 0.0
  outer loop
    vertex -2.5717582782094417e-15 -14.0 0.0
    vertex 2.8199664825478975e-15 -26.864974118354226 15.143788291765949
    vertex -2.5717582782094417e-15 -14.0 29.999999999999996
  endloop
endfacet
facet normal -0.13052619222005113 0.9914448613738106 0.0
  outer loop
    vertex -2.5717582782094417e-15 -14.0 29.999999999999996
    vertex 3.623466631435284 -13.522961568046957 0.0
    vertex -2.5717582782094417e-15 -14.0 0.0
  endloop
endfacet
facet normal -0.13052619222005113 0.9914448613738106 0.0
  outer loop
    vertex 3.623466631435284 -13.522961568046957 0.0
    vertex -2.5717582782094417e-15 -14.0 29.999999999999996
    vertex 3.623466631435284 -13.522961568046957 29.999999999999996
  endloop
endfacet
facet normal -0.38268343236508917 0.923879532511287 0.0
  outer loop
    vertex 3.623466631435284 -13.522961568046957 29.999999999999996
    vertex 6.99999999999999 -12.124355652982146 0.0
    vertex 3.623466631435284 -13.522961568046957 0.0
  endloop
endfacet
facet normal -0.38268343236508917 0.923879532511287 0.0
  outer loop
    vertex 6.99999999999999 -12.124355652982146 0.0
    vertex 3.623466631435284 -13.522961568046957 29.999999999999996
    vertex 6.99999999999999 -12.124355652982146 29.999999999999996
  endloop
endfacet
facet normal -0.6087614290087203 0.7933533402912356 0.0
  outer loop
    vertex 6.99999999999999 -12.124355652982146 29.999999999999996
    vertex 9.899494936611664 -9.899494936611667 0.0
    vertex 6.99999999999999 -12.124355652982146 0.0
  endloop
endfacet
facet normal -0.6087614290087203 0.7933533402912356 0.0
  outer loop
    vertex 9.899494936611664 -9.899494936611667 0.0
    vertex 6.99999999999999 -12.124355652982146 29.999999999999996
    vertex 9.899494936611664 -9.899494936611667 29.999999999999996
  endloop
endfacet
facet normal -0.793353340291235 0.6087614290087208 0.0
  outer loop
    vertex 12.124355652982137 -7.000000000000005 29.999999999999996
    vertex 9.899494936611664 -9.899494936611667 0.0
    vertex 9.899494936611664 -9.899494936611667 29.999999999999996
  endloop
endfacet
facet normal -0.793353340291235 0.6087614290087208 0.0
  outer loop
    vertex 9.899494936611664 -9.899494936611667 0.0
    vertex 12.124355652982137 -7.000000000000005 29.999999999999996
    vertex 12.124355652982137 -7.000000000000005 0.0
  endloop
endfacet
facet normal -0.9238795325112865 0.3826834323650904 0.0
  outer loop
    vertex 13.522961568046952 -3.623466631435302 29.999999999999996
    vertex 12.124355652982137 -7.000000000000005 0.0
    vertex 12.124355652982137 -7.000000000000005 29.999999999999996
  endloop
endfacet
facet normal -0.9238795325112865 0.3826834323650904 0.0
  outer loop
    vertex 12.124355652982137 -7.000000000000005 0.0
    vertex 13.522961568046952 -3.623466631435302 29.999999999999996
    vertex 13.522961568046952 -3.623466631435302 0.0
  endloop
endfacet
facet normal -0.9914448613738105 0.13052619222005213 0.0
  outer loop
    vertex 14.0 0.0 29.999999999999996
    vertex 13.522961568046952 -3.623466631435302 0.0
    vertex 13.522961568046952 -3.623466631435302 29.999999999999996
  endloop
endfacet
facet normal -0.9914448613738105 0.13052619222005213 0.0
  outer loop
    vertex 13.522961568046952 -3.623466631435302 0.0
    vertex 14.0 0.0 29.999999999999996
    vertex 14.0 0.0 0.0
  endloop
endfacet
facet normal -0.9914448613738105 -0.13052619222005177 -0.0
  outer loop
    vertex 13.522961568046956 3.6234666314352904 29.999999999999996
    vertex 14.0 0.0 0.0
    vertex 14.0 0.0 29.999999999999996
  endloop
endfacet
facet normal -0.9914448613738105 -0.13052619222005177 -0.0
  outer loop
    vertex 14.0 0.0 0.0
    vertex 13.522961568046956 3.6234666314352904 29.999999999999996
    vertex 13.522961568046956 3.6234666314352904 0.0
  endloop
endfacet
facet normal -0.9238795325112868 -0.38268343236508967 -0.0
  outer loop
    vertex 12.12435565298214 6.999999999999998 29.999999999999996
    vertex 13.522961568046956 3.6234666314352904 0.0
    vertex 13.522961568046956 3.6234666314352904 29.999999999999996
  endloop
endfacet
facet normal -0.9238795325112868 -0.38268343236508967 -0.0
  outer loop
    vertex 13.522961568046956 3.6234666314352904 0.0
    vertex 12.12435565298214 6.999999999999998 29.999999999999996
    vertex 12.12435565298214 6.999999999999998 0.0
  endloop
endfacet
facet normal -0.7933533402912353 -0.6087614290087204 -0.0
  outer loop
    vertex 9.899494936611665 9.899494936611665 29.999999999999996
    vertex 12.12435565298214 6.999999999999998 0.0
    vertex 12.12435565298214 6.999999999999998 29.999999999999996
  endloop
endfacet
facet normal -0.7933533402912353 -0.6087614290087204 -0.0
  outer loop
    vertex 12.12435565298214 6.999999999999998 0.0
    vertex 9.899494936611665 9.899494936611665 29.999999999999996
    vertex 9.899494936611665 9.899494936611665 0.0
  endloop
endfacet
facet normal -0.6087614290087207 -0.7933533402912353 -0.0
  outer loop
    vertex 9.899494936611665 9.899494936611665 29.999999999999996
    vertex 7.000000000000001 12.12435565298214 0.0
    vertex 9.899494936611665 9.899494936611665 0.0
  endloop
endfacet
facet normal -0.6087614290087207 -0.7933533402912353 -0.0
  outer loop
    vertex 7.000000000000001 12.12435565298214 0.0
    vertex 9.899494936611665 9.899494936611665 29.999999999999996
    vertex 7.000000000000001 12.12435565298214 29.999999999999996
  endloop
endfacet
facet normal -0.38268343236509006 -0.9238795325112868 -0.0
  outer loop
    vertex 7.000000000000001 12.12435565298214 29.999999999999996
    vertex 3.6234666314352935 13.522961568046956 0.0
    vertex 7.000000000000001 12.12435565298214 0.0
  endloop
endfacet
facet normal -0.38268343236509006 -0.9238795325112868 -0.0
  outer loop
    vertex 3.6234666314352935 13.522961568046956 0.0
    vertex 7.000000000000001 12.12435565298214 29.999999999999996
    vertex 3.6234666314352935 13.522961568046956 29.999999999999996
  endloop
endfacet
facet normal -0.13052619222005168 -0.9914448613738104 -0.0
  outer loop
    vertex 3.6234666314352935 13.522961568046956 29.999999999999996
    vertex 8.572527594031472e-16 14.0 0.0
    vertex 3.6234666314352935 13.522961568046956 0.0
  endloop
endfacet
facet normal -0.13052619222005168 -0.9914448613738104 -0.0
  outer loop
    vertex 8.572527594031472e-16 14.0 0.0
    vertex 3.6234666314352935 13.522961568046956 29.999999999999996
    vertex 8.572527594031472e-16 14.0 29.999999999999996
  endloop
endfacet
facet normal -1.0 1.0205389992894606e-17 0.0
  outer loop
    vertex 8.572527594031472e-16 14.0 29.999999999999996
    vertex -2.3264723481020153e-14 28.157005643219563 17.623716765975807
    vertex 8.572527594031472e-16 14.0 0.0
  endloop
endfacet
facet normal -1.0 1.0205389992894606e-17 0.0
  outer loop
    vertex -2.3264723481020153e-14 28.157005643219563 17.623716765975807
    vertex 8.572527594031472e-16 14.0 29.999999999999996
    vertex -2.3264723481020153e-14 28.93895331315271 18.315765463854742
  endloop
endfacet
facet normal -1.0 1.0205389992894606e-17 0.0
  outer loop
    vertex -2.3264723481020153e-14 28.93895331315271 18.315765463854742
    vertex 8.572527594031472e-16 14.0 29.999999999999996
    vertex 1.1634144591899855e-15 44.0 29.999999999999996
  endloop
endfacet
facet normal -1.0 1.0205389992894606e-17 0.0
  outer loop
    vertex 8.572527594031472e-16 14.0 0.0
    vertex -2.3264723481020153e-14 28.157005643219563 17.623716765975807
    vertex -2.3264723481020153e-14 27.58081757717404 16.75286610639258
  endloop
endfacet
facet normal -1.0 1.0205389992894606e-17 0.0
  outer loop
    vertex 8.572527594031472e-16 14.0 0.0
    vertex -2.3264723481020153e-14 27.58081757717404 16.75286610639258
    vertex -2.3264723481020153e-14 27.249655379521354 15.762560518406904
  endloop
endfacet
facet normal -1.0 1.0205389992894606e-17 0.0
  outer loop
    vertex 8.572527594031472e-16 14.0 0.0
    vertex -2.3264723481020153e-14 27.249655379521354 15.762560518406904
    vertex -2.3264723481020153e-14 27.186087206760124 14.720287691282639
  endloop
endfacet
facet normal -1.0 1.0205389992894606e-17 0.0
  outer loop
    vertex -2.3264723481020153e-14 28.93895331315271 18.315765463854742
    vertex 1.1634144591899855e-15 44.0 29.999999999999996
    vertex -2.3264723481020153e-14 29.873372145497168 18.781850224933493
  endloop
endfacet
facet normal -1.0 1.0205389992894606e-17 0.0
  outer loop
    vertex -2.3264723481020153e-14 29.873372145497168 18.781850224933493
    vertex 1.1634144591899855e-15 44.0 29.999999999999996
    vertex -2.3264723481020153e-14 30.89658304102879 18.99020814298602
  endloop
endfacet
facet normal -1.0 1.0205389992894606e-17 0.0
  outer loop
    vertex -2.3264723481020153e-14 30.89658304102879 18.99020814298602
    vertex 1.1634144591899855e-15 44.0 29.999999999999996
    vertex -2.3264723481020153e-14 31.938855868153055 18.92663997022479
  endloop
endfacet
facet normal -1.0 1.0205389992894606e-17 0.0
  outer loop
    vertex -2.3264723481020153e-14 31.938855868153055 18.92663997022479
    vertex 1.1634144591899855e-15 44.0 29.999999999999996
    vertex -2.3264723481020153e-14 32.929161456138736 18.595477772572103
  endloop
endfacet
facet normal -1.0 1.0205389992894606e-17 0.0
  outer loop
    vertex -2.3264723481020153e-14 32.929161456138736 18.595477772572103
    vertex 1.1634144591899855e-15 44.0 29.999999999999996
    vertex -2.3264723481020153e-14 33.80001211572196 18.019289706526582
  endloop
endfacet
facet normal -1.0 1.0205389992894606e-17 0.0
  outer loop
    vertex -2.3264723481020153e-14 33.80001211572196 18.019289706526582
    vertex 1.1634144591899855e-15 44.0 29.999999999999996
    vertex -2.3264723481020153e-14 34.4920608136009 17.237342036593436
  endloop
endfacet
facet normal -1.0 1.0205389992894606e-17 0.0
  outer loop
    vertex -2.3264723481020153e-14 34.4920608136009 17.237342036593436
    vertex 1.1634144591899855e-15 44.0 29.999999999999996
    vertex -2.3264723481020153e-14 34.95814557467964 16.30292320424898
  endloop
endfacet
facet normal -1.0 1.0205389992894606e-17 0.0
  outer loop
    vertex -2.3264723481020153e-14 34.95814557467964 16.30292320424898
    vertex 1.1634144591899855e-15 44.0 29.999999999999996
    vertex -2.3264723481020153e-14 35.166503492732176 15.279712308717354
  endloop
endfacet
facet normal -1.0 1.0205389992894606e-17 0.0
  outer loop
    vertex 8.572527594031472e-16 14.0 0.0
    vertex -2.3264723481020153e-14 28.55257858377034 11.980710293473408
    vertex 1.1634144591899855e-15 44.0 0.0
  endloop
endfacet
facet normal -1.0 1.0205389992894606e-17 0.0
  outer loop
    vertex -2.3264723481020153e-14 28.55257858377034 11.980710293473408
    vertex 8.572527594031472e-16 14.0 0.0
    vertex -2.3264723481020153e-14 27.860529885891403 12.762657963406554
  endloop
endfacet
facet normal -1.0 1.0205389992894606e-17 0.0
  outer loop
    vertex -2.3264723481020153e-14 27.860529885891403 12.762657963406554
    vertex 8.572527594031472e-16 14.0 0.0
    vertex -2.3264723481020153e-14 27.394445124812655 13.697076795751013
  endloop
endfacet
facet normal -1.0 1.0205389992894606e-17 0.0
  outer loop
    vertex -2.3264723481020153e-14 27.394445124812655 13.697076795751013
    vertex 8.572527594031472e-16 14.0 0.0
    vertex -2.3264723481020153e-14 27.186087206760124 14.720287691282639
  endloop
endfacet
facet normal -1.0 1.0205389992894606e-17 0.0
  outer loop
    vertex 1.1634144591899855e-15 44.0 0.0
    vertex -2.3264723481020153e-14 28.55257858377034 11.980710293473408
    vertex -2.3264723481020153e-14 29.423429243353564 11.404522227427888
  endloop
endfacet
facet normal -1.0 1.0205389992894606e-17 0.0
  outer loop
    vertex 1.1634144591899855e-15 44.0 0.0
    vertex -2.3264723481020153e-14 29.423429243353564 11.404522227427888
    vertex -2.3264723481020153e-14 30.413734831339237 11.0733600297752
  endloop
endfacet
facet normal -1.0 1.0205389992894606e-17 0.0
  outer loop
    vertex 1.1634144591899855e-15 44.0 0.0
    vertex -2.3264723481020153e-14 30.413734831339237 11.0733600297752
    vertex -2.3264723481020153e-14 31.456007658463506 11.009791857013969
  endloop
endfacet
facet normal -1.0 1.0205389992894606e-17 0.0
  outer loop
    vertex 1.1634144591899855e-15 44.0 0.0
    vertex -2.3264723481020153e-14 31.456007658463506 11.009791857013969
    vertex -2.3264723481020153e-14 32.47921855399513 11.218149775066498
  endloop
endfacet
facet normal -1.0 1.0205389992894606e-17 0.0
  outer loop
    vertex 1.1634144591899855e-15 44.0 0.0
    vertex -2.3264723481020153e-14 32.47921855399513 11.218149775066498
    vertex -2.3264723481020153e-14 33.41363738633959 11.684234536145246
  endloop
endfacet
facet normal -1.0 1.0205389992894606e-17 0.0
  outer loop
    vertex 1.1634144591899855e-15 44.0 0.0
    vertex -2.3264723481020153e-14 33.41363738633959 11.684234536145246
    vertex -2.3264723481020153e-14 34.19558505627274 12.376283234024184
  endloop
endfacet
facet normal -1.0 1.0205389992894606e-17 0.0
  outer loop
    vertex 1.1634144591899855e-15 44.0 0.0
    vertex -2.3264723481020153e-14 34.19558505627274 12.376283234024184
    vertex -2.3264723481020153e-14 34.77177312231826 13.247133893607414
  endloop
endfacet
facet normal -1.0 1.0205389992894606e-17 0.0
  outer loop
    vertex 1.1634144591899855e-15 44.0 0.0
    vertex -2.3264723481020153e-14 34.77177312231826 13.247133893607414
    vertex -2.3264723481020153e-14 35.10293531997094 14.23743948159309
  endloop
endfacet
facet normal -1.0 1.0205389992894606e-17 0.0
  outer loop
    vertex 1.1634144591899855e-15 44.0 0.0
    vertex -2.3264723481020153e-14 35.10293531997094 14.23743948159309
    vertex -2.3264723481020153e-14 35.166503492732176 15.279712308717354
  endloop
endfacet
facet normal -1.0 1.0205389992894606e-17 0.0
  outer loop
    vertex 1.1634144591899855e-15 44.0 0.0
    vertex -2.3264723481020153e-14 35.166503492732176 15.279712308717354
    vertex 1.1634144591899855e-15 44.0 29.999999999999996
  endloop
endfacet
facet normal -0.0 1.0 0.0
  outer loop
    vertex 1.1634144591899855e-15 44.0 29.999999999999996
    vertex 4.917561856947898 44.0 0.0
    vertex 1.1634144591899855e-15 44.0 0.0
  endloop
endfacet
facet normal -0.0 1.0 0.0
  outer loop
    vertex 4.917561856947898 44.0 0.0
    vertex 1.1634144591899855e-15 44.0 29.999999999999996
    vertex 4.917561856947898 44.0 29.999999999999996
  endloop
endfacet
facet normal 1.0 0.0 0.0
  outer loop
    vertex 4.917561856947898 18.352590699492296 0.0
    vertex 4.917561856947898 27.860529885891403 12.762657963406554
    vertex 4.917561856947898 18.352590699492296 29.999999999999996
  endloop
endfacet
facet normal 1.0 0.0 0.0
  outer loop
    vertex 4.917561856947898 27.860529885891403 12.762657963406554
    vertex 4.917561856947898 18.352590699492296 0.0
    vertex 4.917561856947898 28.55257858377034 11.980710293473408
  endloop
endfacet
facet normal 1.0 0.0 0.0
  outer loop
    vertex 4.917561856947898 28.55257858377034 11.980710293473408
    vertex 4.917561856947898 18.352590699492296 0.0
    vertex 4.917561856947898 44.0 0.0
  endloop
endfacet
facet normal 1.0 0.0 0.0
  outer loop
    vertex 4.917561856947898 18.352590699492296 29.999999999999996
    vertex 4.917561856947898 27.860529885891403 12.762657963406554
    vertex 4.917561856947898 27.394445124812655 13.697076795751013
  endloop
endfacet
facet normal 1.0 0.0 0.0
  outer loop
    vertex 4.917561856947898 18.352590699492296 29.999999999999996
    vertex 4.917561856947898 27.394445124812655 13.697076795751013
    vertex 4.917561856947898 27.186087206760124 14.720287691282639
  endloop
endfacet
facet normal 1.0 0.0 0.0
  outer loop
    vertex 4.917561856947898 28.55257858377034 11.980710293473408
    vertex 4.917561856947898 44.0 0.0
    vertex 4.917561856947898 29.423429243353564 11.404522227427888
  endloop
endfacet
facet normal 1.0 0.0 0.0
  outer loop
    vertex 4.917561856947898 29.423429243353564 11.404522227427888
    vertex 4.917561856947898 44.0 0.0
    vertex 4.917561856947898 30.413734831339237 11.0733600297752
  endloop
endfacet
facet normal 1.0 0.0 0.0
  outer loop
    vertex 4.917561856947898 30.413734831339237 11.0733600297752
    vertex 4.917561856947898 44.0 0.0
    vertex 4.917561856947898 31.456007658463506 11.009791857013969
  endloop
endfacet
facet normal 1.0 0.0 0.0
  outer loop
    vertex 4.917561856947898 31.456007658463506 11.009791857013969
    vertex 4.917561856947898 44.0 0.0
    vertex 4.917561856947898 32.47921855399513 11.218149775066498
  endloop
endfacet
facet normal 1.0 0.0 0.0
  outer loop
    vertex 4.917561856947898 32.47921855399513 11.218149775066498
    vertex 4.917561856947898 44.0 0.0
    vertex 4.917561856947898 33.41363738633959 11.684234536145246
  endloop
endfacet
facet normal 1.0 0.0 0.0
  outer loop
    vertex 4.917561856947898 33.41363738633959 11.684234536145246
    vertex 4.917561856947898 44.0 0.0
    vertex 4.917561856947898 34.19558505627274 12.376283234024184
  endloop
endfacet
facet normal 1.0 0.0 0.0
  outer loop
    vertex 4.917561856947898 34.19558505627274 12.376283234024184
    vertex 4.917561856947898 44.0 0.0
    vertex 4.917561856947898 34.77177312231826 13.247133893607414
  endloop
endfacet
facet normal 1.0 0.0 0.0
  outer loop
    vertex 4.917561856947898 34.77177312231826 13.247133893607414
    vertex 4.917561856947898 44.0 0.0
    vertex 4.917561856947898 35.10293531997094 14.23743948159309
  endloop
endfacet
facet normal 1.0 0.0 0.0
  outer loop
    vertex 4.917561856947898 35.10293531997094 14.23743948159309
    vertex 4.917561856947898 44.0 0.0
    vertex 4.917561856947898 35.166503492732176 15.279712308717354
  endloop
endfacet
facet normal 1.0 0.0 0.0
  outer loop
    vertex 4.917561856947898 18.352590699492296 29.999999999999996
    vertex 4.917561856947898 28.93895331315271 18.315765463854742
    vertex 4.917561856947898 44.0 29.999999999999996
  endloop
endfacet
facet normal 1.0 0.0 0.0
  outer loop
    vertex 4.917561856947898 28.93895331315271 18.315765463854742
    vertex 4.917561856947898 18.352590699492296 29.999999999999996
    vertex 4.917561856947898 28.157005643219563 17.623716765975807
  endloop
endfacet
facet normal 1.0 0.0 0.0
  outer loop
    vertex 4.917561856947898 28.157005643219563 17.623716765975807
    vertex 4.917561856947898 18.352590699492296 29.999999999999996
    vertex 4.917561856947898 27.58081757717404 16.75286610639258
  endloop
endfacet
facet normal 1.0 0.0 0.0
  outer loop
    vertex 4.917561856947898 27.58081757717404 16.75286610639258
    vertex 4.917561856947898 18.352590699492296 29.999999999999996
    vertex 4.917561856947898 27.249655379521354 15.762560518406904
  endloop
endfacet
facet normal 1.0 0.0 0.0
  outer loop
    vertex 4.917561856947898 27.249655379521354 15.762560518406904
    vertex 4.917561856947898 18.352590699492296 29.999999999999996
    vertex 4.917561856947898 27.186087206760124 14.720287691282639
  endloop
endfacet
facet normal 1.0 0.0 0.0
  outer loop
    vertex 4.917561856947898 44.0 29.999999999999996
    vertex 4.917561856947898 28.93895331315271 18.315765463854742
    vertex 4.917561856947898 29.873372145497168 18.781850224933493
  endloop
endfacet
facet normal 1.0 0.0 0.0
  outer loop
    vertex 4.917561856947898 44.0 29.999999999999996
    vertex 4.917561856947898 29.873372145497168 18.781850224933493
    vertex 4.917561856947898 30.89658304102879 18.99020814298602
  endloop
endfacet
facet normal 1.0 0.0 0.0
  outer loop
    vertex 4.917561856947898 44.0 29.999999999999996
    vertex 4.917561856947898 30.89658304102879 18.99020814298602
    vertex 4.917561856947898 31.938855868153055 18.92663997022479
  endloop
endfacet
facet normal 1.0 0.0 0.0
  outer loop
    vertex 4.917561856947898 44.0 29.999999999999996
    vertex 4.917561856947898 31.938855868153055 18.92663997022479
    vertex 4.917561856947898 32.929161456138736 18.595477772572103
  endloop
endfacet
facet normal 1.0 0.0 0.0
  outer loop
    vertex 4.917561856947898 44.0 29.999999999999996
    vertex 4.917561856947898 32.929161456138736 18.595477772572103
    vertex 4.917561856947898 33.80001211572196 18.019289706526582
  endloop
endfacet
facet normal 1.0 0.0 0.0
  outer loop
    vertex 4.917561856947898 44.0 29.999999999999996
    vertex 4.917561856947898 33.80001211572196 18.019289706526582
    vertex 4.917561856947898 34.4920608136009 17.237342036593436
  endloop
endfacet
facet normal 1.0 0.0 0.0
  outer loop
    vertex 4.917561856947898 44.0 29.999999999999996
    vertex 4.917561856947898 34.4920608136009 17.237342036593436
    vertex 4.917561856947898 34.95814557467964 16.30292320424898
  endloop
endfacet
facet normal 1.0 0.0 0.0
  outer loop
    vertex 4.917561856947898 44.0 29.999999999999996
    vertex 4.917561856947898 34.95814557467964 16.30292320424898
    vertex 4.917561856947898 35.166503492732176 15.279712308717354
  endloop
endfacet
facet normal 1.0 0.0 0.0
  outer loop
    vertex 4.917561856947898 44.0 29.999999999999996
    vertex 4.917561856947898 35.166503492732176 15.279712308717354
    vertex 4.917561856947898 44.0 0.0
  endloop
endfacet
facet normal 0.38268343236508995 0.9238795325112867 0.0
  outer loop
    vertex 4.917561856947898 18.352590699492296 29.999999999999996
    vertex 9.500000000000002 16.454482671904334 0.0
    vertex 4.917561856947898 18.352590699492296 0.0
  endloop
endfacet
facet normal 0.38268343236508995 0.9238795325112867 0.0
  outer loop
    vertex 9.500000000000002 16.454482671904334 0.0
    vertex 4.917561856947898 18.352590699492296 29.999999999999996
    vertex 9.500000000000002 16.454482671904334 29.999999999999996
  endloop
endfacet
facet normal 0.6087614290087211 0.7933533402912349 0.0
  outer loop
    vertex 9.500000000000002 16.454482671904334 29.999999999999996
    vertex 13.435028842544403 13.4350288425444 0.0
    vertex 9.500000000000002 16.454482671904334 0.0
  endloop
endfacet
facet normal 0.6087614290087211 0.7933533402912349 0.0
  outer loop
    vertex 13.435028842544403 13.4350288425444 0.0
    vertex 9.500000000000002 16.454482671904334 29.999999999999996
    vertex 13.435028842544403 13.4350288425444 29.999999999999996
  endloop
endfacet
facet normal 0.7933533402912349 0.6087614290087211 0.0
  outer loop
    vertex 13.435028842544403 13.4350288425444 0.0
    vertex 16.454482671904337 9.499999999999998 29.999999999999996
    vertex 16.454482671904337 9.499999999999998 0.0
  endloop
endfacet
facet normal 0.7933533402912349 0.6087614290087211 0.0
  outer loop
    vertex 16.454482671904337 9.499999999999998 29.999999999999996
    vertex 13.435028842544403 13.4350288425444 0.0
    vertex 13.435028842544403 13.4350288425444 29.999999999999996
  endloop
endfacet
facet normal 0.9238795325112871 0.38268343236508934 0.0
  outer loop
    vertex 16.454482671904337 9.499999999999998 0.0
    vertex 18.352590699492296 4.917561856947894 29.999999999999996
    vertex 18.352590699492296 4.917561856947894 0.0
  endloop
endfacet
facet normal 0.9238795325112871 0.38268343236508934 0.0
  outer loop
    vertex 18.352590699492296 4.917561856947894 29.999999999999996
    vertex 16.454482671904337 9.499999999999998 0.0
    vertex 16.454482671904337 9.499999999999998 29.999999999999996
  endloop
endfacet
facet normal 0.9914448613738104 0.13052619222005174 0.0
  outer loop
    vertex 18.352590699492296 4.917561856947894 0.0
    vertex 19.0 0.0 29.999999999999996
    vertex 19.0 0.0 0.0
  endloop
endfacet
facet normal 0.9914448613738104 0.13052619222005174 0.0
  outer loop
    vertex 19.0 0.0 29.999999999999996
    vertex 18.352590699492296 4.917561856947894 0.0
    vertex 18.352590699492296 4.917561856947894 29.999999999999996
  endloop
endfacet
facet normal 0.9914448613738104 -0.1305261922200519 0.0
  outer loop
    vertex 19.0 0.0 0.0
    vertex 18.352590699492293 -4.917561856947909 29.999999999999996
    vertex 18.352590699492293 -4.917561856947909 0.0
  endloop
endfacet
facet normal 0.9914448613738104 -0.1305261922200519 0.0
  outer loop
    vertex 18.352590699492293 -4.917561856947909 29.999999999999996
    vertex 19.0 0.0 0.0
    vertex 19.0 0.0 29.999999999999996
  endloop
endfacet
facet normal 0.9238795325112865 -0.3826834323650907 0.0
  outer loop
    vertex 18.352590699492293 -4.917561856947909 0.0
    vertex 16.454482671904326 -9.500000000000007 29.999999999999996
    vertex 16.454482671904326 -9.500000000000007 0.0
  endloop
endfacet
facet normal 0.9238795325112865 -0.3826834323650907 0.0
  outer loop
    vertex 16.454482671904326 -9.500000000000007 29.999999999999996
    vertex 18.352590699492293 -4.917561856947909 0.0
    vertex 18.352590699492293 -4.917561856947909 29.999999999999996
  endloop
endfacet
facet normal 0.7933533402912353 -0.6087614290087208 0.0
  outer loop
    vertex 16.454482671904326 -9.500000000000007 0.0
    vertex 13.4350288425444 -13.435028842544405 29.999999999999996
    vertex 13.4350288425444 -13.435028842544405 0.0
  endloop
endfacet
facet normal 0.7933533402912353 -0.6087614290087208 0.0
  outer loop
    vertex 13.4350288425444 -13.435028842544405 29.999999999999996
    vertex 16.454482671904326 -9.500000000000007 0.0
    vertex 16.454482671904326 -9.500000000000007 29.999999999999996
  endloop
endfacet
facet normal 0.6087614290087202 -0.7933533402912355 0.0
  outer loop
    vertex 13.4350288425444 -13.435028842544405 29.999999999999996
    vertex 9.499999999999988 -16.45448267190434 0.0
    vertex 13.4350288425444 -13.435028842544405 0.0
  endloop
endfacet
facet normal 0.6087614290087202 -0.7933533402912355 0.0
  outer loop
    vertex 9.499999999999988 -16.45448267190434 0.0
    vertex 13.4350288425444 -13.435028842544405 29.999999999999996
    vertex 9.499999999999988 -16.45448267190434 29.999999999999996
  endloop
endfacet
facet normal 1.0412751376656296e-32 0.9987032405902432 -0.050910089712618706
  outer loop
    vertex 2.8199664825478975e-15 -30.42954722366827 15.325496660381496
    vertex 4.999999999999996 -30.45346958422904 14.856211708234042
    vertex 2.8199664825478975e-15 -30.45346958422904 14.856211708234042
  endloop
endfacet
facet normal 1.0412751376656296e-32 0.9987032405902432 -0.050910089712618706
  outer loop
    vertex 4.999999999999996 -30.45346958422904 14.856211708234042
    vertex 2.8199664825478975e-15 -30.42954722366827 15.325496660381496
    vertex 4.999999999999996 -30.42954722366827 15.325496660381496
  endloop
endfacet
facet normal -4.2810230417773416e-32 0.9778497536902034 0.20930804859825314
  outer loop
    vertex 2.8199664825478975e-15 -30.45346958422904 14.856211708234042
    vertex 4.999999999999996 -30.355116926924698 14.396725690549053
    vertex 2.8199664825478975e-15 -30.355116926924698 14.396725690549053
  endloop
endfacet
facet normal -4.2810230417773416e-32 0.9778497536902034 0.20930804859825314
  outer loop
    vertex 4.999999999999996 -30.355116926924698 14.396725690549053
    vertex 2.8199664825478975e-15 -30.45346958422904 14.856211708234042
    vertex 4.999999999999996 -30.45346958422904 14.856211708234042
  endloop
endfacet
facet normal -9.311576575647992e-32 0.8903574220493039 0.4552621892950454
  outer loop
    vertex 2.8199664825478975e-15 -30.355116926924698 14.396725690549053
    vertex 4.999999999999996 -30.14119182281509 13.978351820095208
    vertex 2.8199664825478975e-15 -30.14119182281509 13.978351820095208
  endloop
endfacet
facet normal -9.311576575647992e-32 0.8903574220493039 0.4552621892950454
  outer loop
    vertex 4.999999999999996 -30.14119182281509 13.978351820095208
    vertex 2.8199664825478975e-15 -30.355116926924698 14.396725690549053
    vertex 4.999999999999996 -30.355116926924698 14.396725690549053
  endloop
endfacet
facet normal -1.3707561553996534e-31 0.7421887034809408 0.6701909641477423
  outer loop
    vertex 2.8199664825478975e-15 -30.14119182281509 13.978351820095208
    vertex 4.999999999999996 -29.826272914217324 13.62960158474843
    vertex 2.8199664825478975e-15 -29.826272914217324 13.62960158474843
  endloop
endfacet
facet normal -1.3707561553996534e-31 0.7421887034809408 0.6701909641477423
  outer loop
    vertex 4.999999999999996 -29.826272914217324 13.62960158474843
    vertex 2.8199664825478975e-15 -30.14119182281509 13.978351820095208
    vertex 4.999999999999996 -30.14119182281509 13.978351820095208
  endloop
endfacet
facet normal -1.7169398865256268e-31 0.5434410512951966 0.8394473323366819
  outer loop
    vertex 4.999999999999996 -29.826272914217324 13.62960158474843
    vertex 2.8199664825478975e-15 -29.431821404324253 13.374241736710587
    vertex 2.8199664825478975e-15 -29.826272914217324 13.62960158474843
  endloop
endfacet
facet normal -1.7169398865256268e-31 0.5434410512951966 0.8394473323366819
  outer loop
    vertex 2.8199664825478975e-15 -29.431821404324253 13.374241736710587
    vertex 4.999999999999996 -29.826272914217324 13.62960158474843
    vertex 4.999999999999996 -29.431821404324253 13.374241736710587
  endloop
endfacet
facet normal -1.9461170017622258e-31 0.3076587895424662 0.9514967520791989
  outer loop
    vertex 4.999999999999996 -29.431821404324253 13.374241736710587
    vertex 2.8199664825478975e-15 -28.984718511673137 13.229674627623357
    vertex 2.8199664825478975e-15 -29.431821404324253 13.374241736710587
  endloop
endfacet
facet normal -1.9461170017622258e-31 0.3076587895424662 0.9514967520791989
  outer loop
    vertex 2.8199664825478975e-15 -28.984718511673137 13.229674627623357
    vertex 4.999999999999996 -29.431821404324253 13.374241736710587
    vertex 4.999999999999996 -28.984718511673137 13.229674627623357
  endloop
endfacet
facet normal -2.0426694594391275e-31 0.050910089712618706 0.9987032405902432
  outer loop
    vertex 4.999999999999996 -28.984718511673137 13.229674627623357
    vertex 2.8199664825478975e-15 -28.515433559525682 13.205752267062588
    vertex 2.8199664825478975e-15 -28.984718511673137 13.229674627623357
  endloop
endfacet
facet normal -2.0426694594391275e-31 0.050910089712618706 0.9987032405902432
  outer loop
    vertex 2.8199664825478975e-15 -28.515433559525682 13.205752267062588
    vertex 4.999999999999996 -28.984718511673137 13.229674627623357
    vertex 4.999999999999996 -28.515433559525682 13.205752267062588
  endloop
endfacet
facet normal -2.000017369126144e-31 -0.20930804859825067 0.9778497536902039
  outer loop
    vertex 4.999999999999996 -28.515433559525682 13.205752267062588
    vertex 2.8199664825478975e-15 -28.055947541840688 13.30410492436693
    vertex 2.8199664825478975e-15 -28.515433559525682 13.205752267062588
  endloop
endfacet
facet normal -2.000017369126144e-31 -0.20930804859825067 0.9778497536902039
  outer loop
    vertex 2.8199664825478975e-15 -28.055947541840688 13.30410492436693
    vertex 4.999999999999996 -28.515433559525682 13.205752267062588
    vertex 4.999999999999996 -28.055947541840688 13.30410492436693
  endloop
endfacet
facet normal -1.821067400292189e-31 -0.45526218929505263 0.8903574220493002
  outer loop
    vertex 4.999999999999996 -28.055947541840688 13.30410492436693
    vertex 2.8199664825478975e-15 -27.637573671386846 13.51803002847654
    vertex 2.8199664825478975e-15 -28.055947541840688 13.30410492436693
  endloop
endfacet
facet normal -1.821067400292189e-31 -0.45526218929505263 0.8903574220493002
  outer loop
    vertex 2.8199664825478975e-15 -27.637573671386846 13.51803002847654
    vertex 4.999999999999996 -28.055947541840688 13.30410492436693
    vertex 4.999999999999996 -27.637573671386846 13.51803002847654
  endloop
endfacet
facet normal -1.518014697584499e-31 -0.6701909641477326 0.7421887034809495
  outer loop
    vertex 4.999999999999996 -27.637573671386846 13.51803002847654
    vertex 2.8199664825478975e-15 -27.288823436040065 13.8329489370743
    vertex 2.8199664825478975e-15 -27.637573671386846 13.51803002847654
  endloop
endfacet
facet normal -1.518014697584499e-31 -0.6701909641477326 0.7421887034809495
  outer loop
    vertex 2.8199664825478975e-15 -27.288823436040065 13.8329489370743
    vertex 4.999999999999996 -27.637573671386846 13.51803002847654
    vertex 4.999999999999996 -27.288823436040065 13.8329489370743
  endloop
endfacet
facet normal -1.111511801874312e-31 -0.8394473323366864 0.5434410512951897
  outer loop
    vertex 4.999999999999996 -27.033463588002224 14.227400446967374
    vertex 2.8199664825478975e-15 -27.288823436040065 13.8329489370743
    vertex 4.999999999999996 -27.288823436040065 13.8329489370743
  endloop
endfacet
facet normal -1.111511801874312e-31 -0.8394473323366864 0.5434410512951897
  outer loop
    vertex 2.8199664825478975e-15 -27.288823436040065 13.8329489370743
    vertex 4.999999999999996 -27.033463588002224 14.227400446967374
    vertex 2.8199664825478975e-15 -27.033463588002224 14.227400446967374
  endloop
endfacet
facet normal -6.292612137264963e-32 -0.9514967520791995 0.30765878954246445
  outer loop
    vertex 4.999999999999996 -26.888896478914994 14.674503339618495
    vertex 2.8199664825478975e-15 -27.033463588002224 14.227400446967374
    vertex 4.999999999999996 -27.033463588002224 14.227400446967374
  endloop
endfacet
facet normal -6.292612137264963e-32 -0.9514967520791995 0.30765878954246445
  outer loop
    vertex 2.8199664825478975e-15 -27.033463588002224 14.227400446967374
    vertex 4.999999999999996 -26.888896478914994 14.674503339618495
    vertex 2.8199664825478975e-15 -26.888896478914994 14.674503339618495
  endloop
endfacet
facet normal -1.0412751376656296e-32 -0.9987032405902432 0.050910089712618706
  outer loop
    vertex 4.999999999999996 -26.864974118354226 15.143788291765949
    vertex 2.8199664825478975e-15 -26.888896478914994 14.674503339618495
    vertex 4.999999999999996 -26.888896478914994 14.674503339618495
  endloop
endfacet
facet normal -1.0412751376656296e-32 -0.9987032405902432 0.050910089712618706
  outer loop
    vertex 2.8199664825478975e-15 -26.888896478914994 14.674503339618495
    vertex 4.999999999999996 -26.864974118354226 15.143788291765949
    vertex 2.8199664825478975e-15 -26.864974118354226 15.143788291765949
  endloop
endfacet
facet normal 4.2810230417773416e-32 -0.9778497536902034 -0.20930804859825314
  outer loop
    vertex 4.999999999999996 -26.963326775658565 15.603274309450939
    vertex 2.8199664825478975e-15 -26.864974118354226 15.143788291765949
    vertex 4.999999999999996 -26.864974118354226 15.143788291765949
  endloop
endfacet
facet normal 4.2810230417773416e-32 -0.9778497536902034 -0.20930804859825314
  outer loop
    vertex 2.8199664825478975e-15 -26.864974118354226 15.143788291765949
    vertex 4.999999999999996 -26.963326775658565 15.603274309450939
    vertex 2.8199664825478975e-15 -26.963326775658565 15.603274309450939
  endloop
endfacet
facet normal 9.311576575648188e-32 -0.890357422049299 -0.45526218929505496
  outer loop
    vertex 4.999999999999996 -27.17725187976818 16.021648179904783
    vertex 2.8199664825478975e-15 -26.963326775658565 15.603274309450939
    vertex 4.999999999999996 -26.963326775658565 15.603274309450939
  endloop
endfacet
facet normal 9.311576575648188e-32 -0.890357422049299 -0.45526218929505496
  outer loop
    vertex 2.8199664825478975e-15 -26.963326775658565 15.603274309450939
    vertex 4.999999999999996 -27.17725187976818 16.021648179904783
    vertex 2.8199664825478975e-15 -27.17725187976818 16.021648179904783
  endloop
endfacet
facet normal 1.3707561553996398e-31 -0.7421887034809467 -0.6701909641477356
  outer loop
    vertex 4.999999999999996 -27.49217078836594 16.37039841525156
    vertex 2.8199664825478975e-15 -27.17725187976818 16.021648179904783
    vertex 4.999999999999996 -27.17725187976818 16.021648179904783
  endloop
endfacet
facet normal 1.3707561553996398e-31 -0.7421887034809467 -0.6701909641477356
  outer loop
    vertex 2.8199664825478975e-15 -27.17725187976818 16.021648179904783
    vertex 4.999999999999996 -27.49217078836594 16.37039841525156
    vertex 2.8199664825478975e-15 -27.49217078836594 16.37039841525156
  endloop
endfacet
facet normal 1.7169398865256268e-31 -0.5434410512951966 -0.8394473323366819
  outer loop
    vertex 4.999999999999996 -27.49217078836594 16.37039841525156
    vertex 2.8199664825478975e-15 -27.886622298259013 16.625758263289402
    vertex 2.8199664825478975e-15 -27.49217078836594 16.37039841525156
  endloop
endfacet
facet normal 1.7169398865256268e-31 -0.5434410512951966 -0.8394473323366819
  outer loop
    vertex 2.8199664825478975e-15 -27.886622298259013 16.625758263289402
    vertex 4.999999999999996 -27.49217078836594 16.37039841525156
    vertex 4.999999999999996 -27.886622298259013 16.625758263289402
  endloop
endfacet
facet normal 1.9461170017622284e-31 -0.30765878954246273 -0.9514967520792001
  outer loop
    vertex 4.999999999999996 -27.886622298259013 16.625758263289402
    vertex 2.8199664825478975e-15 -28.333725190910133 16.770325372376632
    vertex 2.8199664825478975e-15 -27.886622298259013 16.625758263289402
  endloop
endfacet
facet normal 1.9461170017622284e-31 -0.30765878954246273 -0.9514967520792001
  outer loop
    vertex 2.8199664825478975e-15 -28.333725190910133 16.770325372376632
    vertex 4.999999999999996 -27.886622298259013 16.625758263289402
    vertex 4.999999999999996 -28.333725190910133 16.770325372376632
  endloop
endfacet
facet normal 2.0426694594391275e-31 -0.050910089712619316 -0.9987032405902432
  outer loop
    vertex 4.999999999999996 -28.333725190910133 16.770325372376632
    vertex 2.8199664825478975e-15 -28.803010143057584 16.794247732937404
    vertex 2.8199664825478975e-15 -28.333725190910133 16.770325372376632
  endloop
endfacet
facet normal 2.0426694594391275e-31 -0.050910089712619316 -0.9987032405902432
  outer loop
    vertex 2.8199664825478975e-15 -28.803010143057584 16.794247732937404
    vertex 4.999999999999996 -28.333725190910133 16.770325372376632
    vertex 4.999999999999996 -28.803010143057584 16.794247732937404
  endloop
endfacet
facet normal 2.000017369126144e-31 0.20930804859825067 -0.9778497536902039
  outer loop
    vertex 4.999999999999996 -28.803010143057584 16.794247732937404
    vertex 2.8199664825478975e-15 -29.26249616074258 16.69589507563306
    vertex 2.8199664825478975e-15 -28.803010143057584 16.794247732937404
  endloop
endfacet
facet normal 2.000017369126144e-31 0.20930804859825067 -0.9778497536902039
  outer loop
    vertex 2.8199664825478975e-15 -29.26249616074258 16.69589507563306
    vertex 4.999999999999996 -28.803010143057584 16.794247732937404
    vertex 4.999999999999996 -29.26249616074258 16.69589507563306
  endloop
endfacet
facet normal 1.821067400292189e-31 0.45526218929505263 -0.8903574220493002
  outer loop
    vertex 4.999999999999996 -29.26249616074258 16.69589507563306
    vertex 2.8199664825478975e-15 -29.68087003119642 16.48196997152345
    vertex 2.8199664825478975e-15 -29.26249616074258 16.69589507563306
  endloop
endfacet
facet normal 1.821067400292189e-31 0.45526218929505263 -0.8903574220493002
  outer loop
    vertex 2.8199664825478975e-15 -29.68087003119642 16.48196997152345
    vertex 4.999999999999996 -29.26249616074258 16.69589507563306
    vertex 4.999999999999996 -29.68087003119642 16.48196997152345
  endloop
endfacet
facet normal 1.518014697584499e-31 0.6701909641477326 -0.7421887034809495
  outer loop
    vertex 4.999999999999996 -29.68087003119642 16.48196997152345
    vertex 2.8199664825478975e-15 -30.0296202665432 16.16705106292569
    vertex 2.8199664825478975e-15 -29.68087003119642 16.48196997152345
  endloop
endfacet
facet normal 1.518014697584499e-31 0.6701909641477326 -0.7421887034809495
  outer loop
    vertex 2.8199664825478975e-15 -30.0296202665432 16.16705106292569
    vertex 4.999999999999996 -29.68087003119642 16.48196997152345
    vertex 4.999999999999996 -30.0296202665432 16.16705106292569
  endloop
endfacet
facet normal 1.111511801874312e-31 0.8394473323366864 -0.5434410512951897
  outer loop
    vertex 2.8199664825478975e-15 -30.0296202665432 16.16705106292569
    vertex 4.999999999999996 -30.284980114581042 15.772599553032615
    vertex 2.8199664825478975e-15 -30.284980114581042 15.772599553032615
  endloop
endfacet
facet normal 1.111511801874312e-31 0.8394473323366864 -0.5434410512951897
  outer loop
    vertex 4.999999999999996 -30.284980114581042 15.772599553032615
    vertex 2.8199664825478975e-15 -30.0296202665432 16.16705106292569
    vertex 4.999999999999996 -30.0296202665432 16.16705106292569
  endloop
endfacet
facet normal 6.292612137264963e-32 0.9514967520791995 -0.30765878954246445
  outer loop
    vertex 2.8199664825478975e-15 -30.284980114581042 15.772599553032615
    vertex 4.999999999999996 -30.42954722366827 15.325496660381496
    vertex 2.8199664825478975e-15 -30.42954722366827 15.325496660381496
  endloop
endfacet
facet normal 6.292612137264963e-32 0.9514967520791995 -0.30765878954246445
  outer loop
    vertex 4.999999999999996 -30.42954722366827 15.325496660381496
    vertex 2.8199664825478975e-15 -30.284980114581042 15.772599553032615
    vertex 4.999999999999996 -30.284980114581042 15.772599553032615
  endloop
endfacet
facet normal 0.0 0.06087683598214443 0.998145285437347
  outer loop
    vertex 4.917561856947898 30.413734831339237 11.0733600297752
    vertex -2.3264723481020153e-14 31.456007658463506 11.009791857013969
    vertex -2.3264723481020153e-14 30.413734831339237 11.0733600297752
  endloop
endfacet
facet normal 0.0 0.06087683598214443 0.998145285437347
  outer loop
    vertex -2.3264723481020153e-14 31.456007658463506 11.009791857013969
    vertex 4.917561856947898 30.413734831339237 11.0733600297752
    vertex 4.917561856947898 31.456007658463506 11.009791857013969
  endloop
endfacet
facet normal -0.0 -0.19953650155255953 0.9798903941503689
  outer loop
    vertex 4.917561856947898 31.456007658463506 11.009791857013969
    vertex -2.3264723481020153e-14 32.47921855399513 11.218149775066498
    vertex -2.3264723481020153e-14 31.456007658463506 11.009791857013969
  endloop
endfacet
facet normal -0.0 -0.19953650155255953 0.9798903941503689
  outer loop
    vertex -2.3264723481020153e-14 32.47921855399513 11.218149775066498
    vertex 4.917561856947898 31.456007658463506 11.009791857013969
    vertex 4.917561856947898 32.47921855399513 11.218149775066498
  endloop
endfacet
facet normal -0.0 -0.4463517562561168 0.8948575918474853
  outer loop
    vertex 4.917561856947898 32.47921855399513 11.218149775066498
    vertex -2.3264723481020153e-14 33.41363738633959 11.684234536145246
    vertex -2.3264723481020153e-14 32.47921855399513 11.218149775066498
  endloop
endfacet
facet normal -0.0 -0.4463517562561168 0.8948575918474853
  outer loop
    vertex -2.3264723481020153e-14 33.41363738633959 11.684234536145246
    vertex 4.917561856947898 32.47921855399513 11.218149775066498
    vertex 4.917561856947898 33.41363738633959 11.684234536145246
  endloop
endfacet
facet normal -0.0 -0.6627488764019746 0.7488417234822858
  outer loop
    vertex 4.917561856947898 33.41363738633959 11.684234536145246
    vertex -2.3264723481020153e-14 34.19558505627274 12.376283234024184
    vertex -2.3264723481020153e-14 33.41363738633959 11.684234536145246
  endloop
endfacet
facet normal -0.0 -0.6627488764019746 0.7488417234822858
  outer loop
    vertex -2.3264723481020153e-14 34.19558505627274 12.376283234024184
    vertex 4.917561856947898 33.41363738633959 11.684234536145246
    vertex 4.917561856947898 34.19558505627274 12.376283234024184
  endloop
endfacet
facet normal -0.0 -0.8339807558653405 0.5517935291812287
  outer loop
    vertex 4.917561856947898 34.77177312231826 13.247133893607414
    vertex -2.3264723481020153e-14 34.19558505627274 12.376283234024184
    vertex 4.917561856947898 34.19558505627274 12.376283234024184
  endloop
endfacet
facet normal -0.0 -0.8339807558653405 0.5517935291812287
  outer loop
    vertex -2.3264723481020153e-14 34.19558505627274 12.376283234024184
    vertex 4.917561856947898 34.77177312231826 13.247133893607414
    vertex -2.3264723481020153e-14 34.77177312231826 13.247133893607414
  endloop
endfacet
facet normal -0.0 -0.9483782250348465 0.3171415177483926
  outer loop
    vertex 4.917561856947898 35.10293531997094 14.23743948159309
    vertex -2.3264723481020153e-14 34.77177312231826 13.247133893607414
    vertex 4.917561856947898 34.77177312231826 13.247133893607414
  endloop
endfacet
facet normal -0.0 -0.9483782250348465 0.3171415177483926
  outer loop
    vertex -2.3264723481020153e-14 34.77177312231826 13.247133893607414
    vertex 4.917561856947898 35.10293531997094 14.23743948159309
    vertex -2.3264723481020153e-14 35.10293531997094 14.23743948159309
  endloop
endfacet
facet normal -0.0 -0.9981452854373469 0.060876835982147125
  outer loop
    vertex 4.917561856947898 35.166503492732176 15.279712308717354
    vertex -2.3264723481020153e-14 35.10293531997094 14.23743948159309
    vertex 4.917561856947898 35.10293531997094 14.23743948159309
  endloop
endfacet
facet normal -0.0 -0.9981452854373469 0.060876835982147125
  outer loop
    vertex -2.3264723481020153e-14 35.10293531997094 14.23743948159309
    vertex 4.917561856947898 35.166503492732176 15.279712308717354
    vertex -2.3264723481020153e-14 35.166503492732176 15.279712308717354
  endloop
endfacet
facet normal -0.0 -0.9798903941503684 -0.19953650155256267
  outer loop
    vertex 4.917561856947898 34.95814557467964 16.30292320424898
    vertex -2.3264723481020153e-14 35.166503492732176 15.279712308717354
    vertex 4.917561856947898 35.166503492732176 15.279712308717354
  endloop
endfacet
facet normal -0.0 -0.9798903941503684 -0.19953650155256267
  outer loop
    vertex -2.3264723481020153e-14 35.166503492732176 15.279712308717354
    vertex 4.917561856947898 34.95814557467964 16.30292320424898
    vertex -2.3264723481020153e-14 34.95814557467964 16.30292320424898
  endloop
endfacet
facet normal -0.0 -0.8948575918474851 -0.44635175625611667
  outer loop
    vertex 4.917561856947898 34.4920608136009 17.237342036593436
    vertex -2.3264723481020153e-14 34.95814557467964 16.30292320424898
    vertex 4.917561856947898 34.95814557467964 16.30292320424898
  endloop
endfacet
facet normal -0.0 -0.8948575918474851 -0.44635175625611667
  outer loop
    vertex -2.3264723481020153e-14 34.95814557467964 16.30292320424898
    vertex 4.917561856947898 34.4920608136009 17.237342036593436
    vertex -2.3264723481020153e-14 34.4920608136009 17.237342036593436
  endloop
endfacet
facet normal -0.0 -0.7488417234822853 -0.6627488764019753
  outer loop
    vertex 4.917561856947898 33.80001211572196 18.019289706526582
    vertex -2.3264723481020153e-14 34.4920608136009 17.237342036593436
    vertex 4.917561856947898 34.4920608136009 17.237342036593436
  endloop
endfacet
facet normal -0.0 -0.7488417234822853 -0.6627488764019753
  outer loop
    vertex -2.3264723481020153e-14 34.4920608136009 17.237342036593436
    vertex 4.917561856947898 33.80001211572196 18.019289706526582
    vertex -2.3264723481020153e-14 33.80001211572196 18.019289706526582
  endloop
endfacet
facet normal -0.0 -0.5517935291812311 -0.8339807558653388
  outer loop
    vertex 4.917561856947898 33.80001211572196 18.019289706526582
    vertex -2.3264723481020153e-14 32.929161456138736 18.595477772572103
    vertex -2.3264723481020153e-14 33.80001211572196 18.019289706526582
  endloop
endfacet
facet normal -0.0 -0.5517935291812311 -0.8339807558653388
  outer loop
    vertex -2.3264723481020153e-14 32.929161456138736 18.595477772572103
    vertex 4.917561856947898 33.80001211572196 18.019289706526582
    vertex 4.917561856947898 32.929161456138736 18.595477772572103
  endloop
endfacet
facet normal -0.0 -0.3171415177483942 -0.948378225034846
  outer loop
    vertex 4.917561856947898 32.929161456138736 18.595477772572103
    vertex -2.3264723481020153e-14 31.938855868153055 18.92663997022479
    vertex -2.3264723481020153e-14 32.929161456138736 18.595477772572103
  endloop
endfacet
facet normal -0.0 -0.3171415177483942 -0.948378225034846
  outer loop
    vertex -2.3264723481020153e-14 31.938855868153055 18.92663997022479
    vertex 4.917561856947898 32.929161456138736 18.595477772572103
    vertex 4.917561856947898 31.938855868153055 18.92663997022479
  endloop
endfacet
facet normal -0.0 -0.06087683598214443 -0.998145285437347
  outer loop
    vertex 4.917561856947898 31.938855868153055 18.92663997022479
    vertex -2.3264723481020153e-14 30.89658304102879 18.99020814298602
    vertex -2.3264723481020153e-14 31.938855868153055 18.92663997022479
  endloop
endfacet
facet normal -0.0 -0.06087683598214443 -0.998145285437347
  outer loop
    vertex -2.3264723481020153e-14 30.89658304102879 18.99020814298602
    vertex 4.917561856947898 31.938855868153055 18.92663997022479
    vertex 4.917561856947898 30.89658304102879 18.99020814298602
  endloop
endfacet
facet normal -0.0 0.1995365015525606 -0.9798903941503688
  outer loop
    vertex 4.917561856947898 30.89658304102879 18.99020814298602
    vertex -2.3264723481020153e-14 29.873372145497168 18.781850224933493
    vertex -2.3264723481020153e-14 30.89658304102879 18.99020814298602
  endloop
endfacet
facet normal -0.0 0.1995365015525606 -0.9798903941503688
  outer loop
    vertex -2.3264723481020153e-14 29.873372145497168 18.781850224933493
    vertex 4.917561856947898 30.89658304102879 18.99020814298602
    vertex 4.917561856947898 29.873372145497168 18.781850224933493
  endloop
endfacet
facet normal -0.0 0.4463517562561177 -0.8948575918474846
  outer loop
    vertex 4.917561856947898 29.873372145497168 18.781850224933493
    vertex -2.3264723481020153e-14 28.93895331315271 18.315765463854742
    vertex -2.3264723481020153e-14 29.873372145497168 18.781850224933493
  endloop
endfacet
facet normal -0.0 0.4463517562561177 -0.8948575918474846
  outer loop
    vertex -2.3264723481020153e-14 28.93895331315271 18.315765463854742
    vertex 4.917561856947898 29.873372145497168 18.781850224933493
    vertex 4.917561856947898 28.93895331315271 18.315765463854742
  endloop
endfacet
facet normal -0.0 0.6627488764019739 -0.7488417234822866
  outer loop
    vertex 4.917561856947898 28.93895331315271 18.315765463854742
    vertex -2.3264723481020153e-14 28.157005643219563 17.623716765975807
    vertex -2.3264723481020153e-14 28.93895331315271 18.315765463854742
  endloop
endfacet
facet normal -0.0 0.6627488764019739 -0.7488417234822866
  outer loop
    vertex -2.3264723481020153e-14 28.157005643219563 17.623716765975807
    vertex 4.917561856947898 28.93895331315271 18.315765463854742
    vertex 4.917561856947898 28.157005643219563 17.623716765975807
  endloop
endfacet
facet normal -0.0 0.8339807558653396 -0.5517935291812298
  outer loop
    vertex -2.3264723481020153e-14 28.157005643219563 17.623716765975807
    vertex 4.917561856947898 27.58081757717404 16.75286610639258
    vertex -2.3264723481020153e-14 27.58081757717404 16.75286610639258
  endloop
endfacet
facet normal -0.0 0.8339807558653396 -0.5517935291812298
  outer loop
    vertex 4.917561856947898 27.58081757717404 16.75286610639258
    vertex -2.3264723481020153e-14 28.157005643219563 17.623716765975807
    vertex 4.917561856947898 28.157005643219563 17.623716765975807
  endloop
endfacet
facet normal -0.0 0.948378225034845 -0.3171415177483975
  outer loop
    vertex -2.3264723481020153e-14 27.58081757717404 16.75286610639258
    vertex 4.917561856947898 27.249655379521354 15.762560518406904
    vertex -2.3264723481020153e-14 27.249655379521354 15.762560518406904
  endloop
endfacet
facet normal -0.0 0.948378225034845 -0.3171415177483975
  outer loop
    vertex 4.917561856947898 27.249655379521354 15.762560518406904
    vertex -2.3264723481020153e-14 27.58081757717404 16.75286610639258
    vertex 4.917561856947898 27.58081757717404 16.75286610639258
  endloop
endfacet
facet normal -0.0 0.9981452854373474 -0.060876835982141754
  outer loop
    vertex -2.3264723481020153e-14 27.249655379521354 15.762560518406904
    vertex 4.917561856947898 27.186087206760124 14.720287691282639
    vertex -2.3264723481020153e-14 27.186087206760124 14.720287691282639
  endloop
endfacet
facet normal -0.0 0.9981452854373474 -0.060876835982141754
  outer loop
    vertex 4.917561856947898 27.186087206760124 14.720287691282639
    vertex -2.3264723481020153e-14 27.249655379521354 15.762560518406904
    vertex 4.917561856947898 27.249655379521354 15.762560518406904
  endloop
endfacet
facet normal 0.0 0.9798903941503684 0.19953650155256267
  outer loop
    vertex -2.3264723481020153e-14 27.186087206760124 14.720287691282639
    vertex 4.917561856947898 27.394445124812655 13.697076795751013
    vertex -2.3264723481020153e-14 27.394445124812655 13.697076795751013
  endloop
endfacet
facet normal 0.0 0.9798903941503684 0.19953650155256267
  outer loop
    vertex 4.917561856947898 27.394445124812655 13.697076795751013
    vertex -2.3264723481020153e-14 27.186087206760124 14.720287691282639
    vertex 4.917561856947898 27.186087206760124 14.720287691282639
  endloop
endfacet
facet normal 0.0 0.8948575918474857 0.4463517562561156
  outer loop
    vertex -2.3264723481020153e-14 27.394445124812655 13.697076795751013
    vertex 4.917561856947898 27.860529885891403 12.762657963406554
    vertex -2.3264723481020153e-14 27.860529885891403 12.762657963406554
  endloop
endfacet
facet normal 0.0 0.8948575918474857 0.4463517562561156
  outer loop
    vertex 4.917561856947898 27.860529885891403 12.762657963406554
    vertex -2.3264723481020153e-14 27.394445124812655 13.697076795751013
    vertex 4.917561856947898 27.394445124812655 13.697076795751013
  endloop
endfacet
facet normal 0.0 0.7488417234822853 0.6627488764019753
  outer loop
    vertex -2.3264723481020153e-14 27.860529885891403 12.762657963406554
    vertex 4.917561856947898 28.55257858377034 11.980710293473408
    vertex -2.3264723481020153e-14 28.55257858377034 11.980710293473408
  endloop
endfacet
facet normal 0.0 0.7488417234822853 0.6627488764019753
  outer loop
    vertex 4.917561856947898 28.55257858377034 11.980710293473408
    vertex -2.3264723481020153e-14 27.860529885891403 12.762657963406554
    vertex 4.917561856947898 27.860529885891403 12.762657963406554
  endloop
endfacet
facet normal 0.0 0.5517935291812311 0.8339807558653388
  outer loop
    vertex 4.917561856947898 28.55257858377034 11.980710293473408
    vertex -2.3264723481020153e-14 29.423429243353564 11.404522227427888
    vertex -2.3264723481020153e-14 28.55257858377034 11.980710293473408
  endloop
endfacet
facet normal 0.0 0.5517935291812311 0.8339807558653388
  outer loop
    vertex -2.3264723481020153e-14 29.423429243353564 11.404522227427888
    vertex 4.917561856947898 28.55257858377034 11.980710293473408
    vertex 4.917561856947898 29.423429243353564 11.404522227427888
  endloop
endfacet
facet normal 0.0 0.31714151774839583 0.9483782250348455
  outer loop
    vertex 4.917561856947898 29.423429243353564 11.404522227427888
    vertex -2.3264723481020153e-14 30.413734831339237 11.0733600297752
    vertex -2.3264723481020153e-14 29.423429243353564 11.404522227427888
  endloop
endfacet
facet normal 0.0 0.31714151774839583 0.9483782250348455
  outer loop
    vertex -2.3264723481020153e-14 30.413734831339237 11.0733600297752
    vertex 4.917561856947898 29.423429243353564 11.404522227427888
    vertex 4.917561856947898 30.413734831339237 11.0733600297752
  endloop
endfacet
endsolid Untitled-5f7ba84e
