solid Untitled-5f7e4d4f
facet normal 0.0 0.0 -1.0
  outer loop
    vertex -16.420739046914157 4.399923766742867 0.0
    vertex -26.999999999999996 0.0 0.0
    vertex -26.999999999999996 4.399923766742867 0.0
  endloop
endfacet
facet normal 0.0 0.0 -1.0
  outer loop
    vertex -26.999999999999996 0.0 0.0
    vertex -16.420739046914157 4.399923766742867 0.0
    vertex -12.0 0.0 0.0
  endloop
endfacet
facet normal 0.0 0.0 -1.0
  outer loop
    vertex -12.0 0.0 0.0
    vertex -16.420739046914157 4.399923766742867 0.0
    vertex -14.722431864335451 8.500000000000007 0.0
  endloop
endfacet
facet normal 0.0 0.0 -1.0
  outer loop
    vertex -12.0 0.0 0.0
    vertex -14.722431864335451 8.500000000000007 0.0
    vertex -12.020815280171306 12.02081528017131 0.0
  endloop
endfacet
facet normal 0.0 0.0 -1.0
  outer loop
    vertex -12.0 0.0 0.0
    vertex -12.020815280171306 12.02081528017131 0.0
    vertex -11.591109915468817 3.1058285412302586 0.0
  endloop
endfacet
facet normal 0.0 0.0 -1.0
  outer loop
    vertex -11.591109915468817 3.1058285412302586 0.0
    vertex -12.020815280171306 12.02081528017131 0.0
    vertex -8.49999999999999 14.722431864335464 0.0
  endloop
endfacet
facet normal 0.0 0.0 -1.0
  outer loop
    vertex -11.591109915468817 3.1058285412302586 0.0
    vertex -8.49999999999999 14.722431864335464 0.0
    vertex -10.39230484541326 6.000000000000005 0.0
  endloop
endfacet
facet normal 0.0 0.0 -1.0
  outer loop
    vertex -10.39230484541326 6.000000000000005 0.0
    vertex -8.49999999999999 14.722431864335464 0.0
    vertex -8.485281374238568 8.485281374238571 0.0
  endloop
endfacet
facet normal 0.0 0.0 -1.0
  outer loop
    vertex -8.485281374238568 8.485281374238571 0.0
    vertex -8.49999999999999 14.722431864335464 0.0
    vertex -4.399923766742845 16.420739046914164 0.0
  endloop
endfacet
facet normal 0.0 0.0 -1.0
  outer loop
    vertex -8.485281374238568 8.485281374238571 0.0
    vertex -4.399923766742845 16.420739046914164 0.0
    vertex -5.999999999999992 10.392304845413268 0.0
  endloop
endfacet
facet normal 0.0 0.0 -1.0
  outer loop
    vertex -5.999999999999992 10.392304845413268 0.0
    vertex -4.399923766742845 16.420739046914164 0.0
    vertex -3.105828541230243 11.59110991546882 0.0
  endloop
endfacet
facet normal 0.0 0.0 -1.0
  outer loop
    vertex -3.105828541230243 11.59110991546882 0.0
    vertex -4.399923766742845 16.420739046914164 0.0
    vertex 3.1228493378257502e-15 17.0 0.0
  endloop
endfacet
facet normal 0.0 0.0 -1.0
  outer loop
    vertex -3.105828541230243 11.59110991546882 0.0
    vertex 3.1228493378257502e-15 17.0 0.0
    vertex 2.2043642384652354e-15 12.0 0.0
  endloop
endfacet
facet normal 0.0 0.0 -1.0
  outer loop
    vertex 2.2043642384652354e-15 12.0 0.0
    vertex 3.1228493378257502e-15 17.0 0.0
    vertex 3.105828541230258 11.591109915468817 0.0
  endloop
endfacet
facet normal 0.0 0.0 -1.0
  outer loop
    vertex 3.105828541230258 11.591109915468817 0.0
    vertex 3.1228493378257502e-15 17.0 0.0
    vertex 4.399923766742866 16.420739046914157 0.0
  endloop
endfacet
facet normal 0.0 0.0 -1.0
  outer loop
    vertex 3.105828541230258 11.591109915468817 0.0
    vertex 4.399923766742866 16.420739046914157 0.0
    vertex 6.000000000000005 10.39230484541326 0.0
  endloop
endfacet
facet normal 0.0 0.0 -1.0
  outer loop
    vertex 6.000000000000005 10.39230484541326 0.0
    vertex 4.399923766742866 16.420739046914157 0.0
    vertex 8.500000000000007 14.722431864335451 0.0
  endloop
endfacet
facet normal 0.0 0.0 -1.0
  outer loop
    vertex 6.000000000000005 10.39230484541326 0.0
    vertex 8.500000000000007 14.722431864335451 0.0
    vertex 8.485281374238575 8.485281374238564 0.0
  endloop
endfacet
facet normal 0.0 0.0 -1.0
  outer loop
    vertex 8.485281374238575 8.485281374238564 0.0
    vertex 8.500000000000007 14.722431864335451 0.0
    vertex 10.392304845413264 5.9999999999999964 0.0
  endloop
endfacet
facet normal 0.0 0.0 -1.0
  outer loop
    vertex 10.392304845413264 5.9999999999999964 0.0
    vertex 8.500000000000007 14.722431864335451 0.0
    vertex 12.020815280171314 12.020815280171302 0.0
  endloop
endfacet
facet normal 0.0 0.0 -1.0
  outer loop
    vertex 10.392304845413264 5.9999999999999964 0.0
    vertex 12.020815280171314 12.020815280171302 0.0
    vertex 11.59110991546882 3.105828541230244 0.0
  endloop
endfacet
facet normal 0.0 0.0 -1.0
  outer loop
    vertex 11.59110991546882 3.105828541230244 0.0
    vertex 12.020815280171314 12.020815280171302 0.0
    vertex 12.0 -1.4695761589768238e-15 0.0
  endloop
endfacet
facet normal 0.0 0.0 -1.0
  outer loop
    vertex 12.0 -1.4695761589768238e-15 0.0
    vertex 12.020815280171314 12.020815280171302 0.0
    vertex 16.420739046914164 4.399923766742846 0.0
  endloop
endfacet
facet normal 0.0 0.0 -1.0
  outer loop
    vertex 12.0 -1.4695761589768238e-15 0.0
    vertex 16.420739046914164 4.399923766742846 0.0
    vertex 26.999999999999996 -2.0818995585505003e-15 0.0
  endloop
endfacet
facet normal 0.0 0.0 -1.0
  outer loop
    vertex 16.420739046914164 4.399923766742846 0.0
    vertex 12.020815280171314 12.020815280171302 0.0
    vertex 14.72243186433546 8.499999999999996 0.0
  endloop
endfacet
facet normal 0.0 0.0 -1.0
  outer loop
    vertex 26.999999999999996 -2.0818995585505003e-15 0.0
    vertex 16.420739046914164 4.399923766742846 0.0
    vertex 26.999999999999996 4.399923766742846 0.0
  endloop
endfacet
facet normal 0.0 0.0 1.0
  outer loop
    vertex -12.0 0.0 19.999999999999996
    vertex -26.999999999999996 4.399923766742867 19.999999999999996
    vertex -26.999999999999996 0.0 19.999999999999996
  endloop
endfacet
facet normal 0.0 0.0 1.0
  outer loop
    vertex -26.999999999999996 4.399923766742867 19.999999999999996
    vertex -12.0 0.0 19.999999999999996
    vertex -16.420739046914157 4.399923766742867 19.999999999999996
  endloop
endfacet
facet normal 0.0 0.0 1.0
  outer loop
    vertex -16.420739046914157 4.399923766742867 19.999999999999996
    vertex -12.0 0.0 19.999999999999996
    vertex -14.722431864335451 8.500000000000007 19.999999999999996
  endloop
endfacet
facet normal 0.0 0.0 1.0
  outer loop
    vertex -14.722431864335451 8.500000000000007 19.999999999999996
    vertex -12.0 0.0 19.999999999999996
    vertex -12.020815280171306 12.02081528017131 19.999999999999996
  endloop
endfacet
facet normal 0.0 0.0 1.0
  outer loop
    vertex -12.020815280171306 12.02081528017131 19.999999999999996
    vertex -12.0 0.0 19.999999999999996
    vertex -11.591109915468817 3.1058285412302586 19.999999999999996
  endloop
endfacet
facet normal 0.0 0.0 1.0
  outer loop
    vertex -12.020815280171306 12.02081528017131 19.999999999999996
    vertex -11.591109915468817 3.1058285412302586 19.999999999999996
    vertex -8.49999999999999 14.722431864335464 19.999999999999996
  endloop
endfacet
facet normal 0.0 0.0 1.0
  outer loop
    vertex -8.49999999999999 14.722431864335464 19.999999999999996
    vertex -11.591109915468817 3.1058285412302586 19.999999999999996
    vertex -10.39230484541326 6.000000000000005 19.999999999999996
  endloop
endfacet
facet normal 0.0 0.0 1.0
  outer loop
    vertex -8.49999999999999 14.722431864335464 19.999999999999996
    vertex -10.39230484541326 6.000000000000005 19.999999999999996
    vertex -8.485281374238568 8.485281374238571 19.999999999999996
  endloop
endfacet
facet normal 0.0 0.0 1.0
  outer loop
    vertex -8.49999999999999 14.722431864335464 19.999999999999996
    vertex -8.485281374238568 8.485281374238571 19.999999999999996
    vertex -4.399923766742845 16.420739046914164 19.999999999999996
  endloop
endfacet
facet normal 0.0 0.0 1.0
  outer loop
    vertex -4.399923766742845 16.420739046914164 19.999999999999996
    vertex -8.485281374238568 8.485281374238571 19.999999999999996
    vertex -5.999999999999992 10.392304845413268 19.999999999999996
  endloop
endfacet
facet normal 0.0 0.0 1.0
  outer loop
    vertex -4.399923766742845 16.420739046914164 19.999999999999996
    vertex -5.999999999999992 10.392304845413268 19.999999999999996
    vertex -3.105828541230243 11.59110991546882 19.999999999999996
  endloop
endfacet
facet normal 0.0 0.0 1.0
  outer loop
    vertex -4.399923766742845 16.420739046914164 19.999999999999996
    vertex -3.105828541230243 11.59110991546882 19.999999999999996
    vertex 3.1228493378257502e-15 17.0 19.999999999999996
  endloop
endfacet
facet normal 0.0 0.0 1.0
  outer loop
    vertex 3.1228493378257502e-15 17.0 19.999999999999996
    vertex -3.105828541230243 11.59110991546882 19.999999999999996
    vertex 2.2043642384652354e-15 12.0 19.999999999999996
  endloop
endfacet
facet normal 0.0 0.0 1.0
  outer loop
    vertex 3.1228493378257502e-15 17.0 19.999999999999996
    vertex 2.2043642384652354e-15 12.0 19.999999999999996
    vertex 3.105828541230258 11.591109915468817 19.999999999999996
  endloop
endfacet
facet normal 0.0 0.0 1.0
  outer loop
    vertex 3.1228493378257502e-15 17.0 19.999999999999996
    vertex 3.105828541230258 11.591109915468817 19.999999999999996
    vertex 4.399923766742866 16.420739046914157 19.999999999999996
  endloop
endfacet
facet normal 0.0 0.0 1.0
  outer loop
    vertex 4.399923766742866 16.420739046914157 19.999999999999996
    vertex 3.105828541230258 11.591109915468817 19.999999999999996
    vertex 6.000000000000005 10.39230484541326 19.999999999999996
  endloop
endfacet
facet normal 0.0 0.0 1.0
  outer loop
    vertex 4.399923766742866 16.420739046914157 19.999999999999996
    vertex 6.000000000000005 10.39230484541326 19.999999999999996
    vertex 8.500000000000007 14.722431864335451 19.999999999999996
  endloop
endfacet
facet normal 0.0 0.0 1.0
  outer loop
    vertex 8.500000000000007 14.722431864335451 19.999999999999996
    vertex 6.000000000000005 10.39230484541326 19.999999999999996
    vertex 8.485281374238575 8.485281374238564 19.999999999999996
  endloop
endfacet
facet normal 0.0 0.0 1.0
  outer loop
    vertex 8.500000000000007 14.722431864335451 19.999999999999996
    vertex 8.485281374238575 8.485281374238564 19.999999999999996
    vertex 10.392304845413264 5.9999999999999964 19.999999999999996
  endloop
endfacet
facet normal 0.0 0.0 1.0
  outer loop
    vertex 8.500000000000007 14.722431864335451 19.999999999999996
    vertex 10.392304845413264 5.9999999999999964 19.999999999999996
    vertex 12.020815280171314 12.020815280171302 19.999999999999996
  endloop
endfacet
facet normal 0.0 0.0 1.0
  outer loop
    vertex 12.020815280171314 12.020815280171302 19.999999999999996
    vertex 10.392304845413264 5.9999999999999964 19.999999999999996
    vertex 11.59110991546882 3.105828541230244 19.999999999999996
  endloop
endfacet
facet normal 0.0 0.0 1.0
  outer loop
    vertex 12.020815280171314 12.020815280171302 19.999999999999996
    vertex 11.59110991546882 3.105828541230244 19.999999999999996
    vertex 12.0 -1.4695761589768238e-15 19.999999999999996
  endloop
endfacet
facet normal 0.0 0.0 1.0
  outer loop
    vertex 12.020815280171314 12.020815280171302 19.999999999999996
    vertex 12.0 -1.4695761589768238e-15 19.999999999999996
    vertex 16.420739046914164 4.399923766742846 19.999999999999996
  endloop
endfacet
facet normal 0.0 0.0 1.0
  outer loop
    vertex 16.420739046914164 4.399923766742846 19.999999999999996
    vertex 12.0 -1.4695761589768238e-15 19.999999999999996
    vertex 26.999999999999996 -2.0818995585505003e-15 19.999999999999996
  endloop
endfacet
facet normal 0.0 0.0 1.0
  outer loop
    vertex 12.020815280171314 12.020815280171302 19.999999999999996
    vertex 16.420739046914164 4.399923766742846 19.999999999999996
    vertex 14.72243186433546 8.499999999999996 19.999999999999996
  endloop
endfacet
facet normal 0.0 0.0 1.0
  outer loop
    vertex 16.420739046914164 4.399923766742846 19.999999999999996
    vertex 26.999999999999996 -2.0818995585505003e-15 19.999999999999996
    vertex 26.999999999999996 4.399923766742846 19.999999999999996
  endloop
endfacet
facet normal -0.0 -1.0 -0.0
  outer loop
    vertex -12.0 0.0 19.999999999999996
    vertex -26.999999999999996 0.0 0.0
    vertex -12.0 0.0 0.0
  endloop
endfacet
facet normal -0.0 -1.0 -0.0
  outer loop
    vertex -26.999999999999996 0.0 0.0
    vertex -12.0 0.0 19.999999999999996
    vertex -20.649709351677256 2.114974861910923e-15 8.939339828220177
  endloop
endfacet
facet normal -0.0 -1.0 -0.0
  outer loop
    vertex -26.999999999999996 0.0 0.0
    vertex -20.649709351677256 2.114974861910923e-15 8.939339828220177
    vertex -20.96036952345708 2.114974861910923e-15 8.70096189432334
  endloop
endfacet
facet normal -0.0 -1.0 -0.0
  outer loop
    vertex -26.999999999999996 0.0 0.0
    vertex -20.96036952345708 2.114974861910923e-15 8.70096189432334
    vertex -21.322140955803295 2.114974861910923e-15 8.551111260566396
  endloop
endfacet
facet normal -0.0 -1.0 -0.0
  outer loop
    vertex -26.999999999999996 0.0 0.0
    vertex -21.322140955803295 2.114974861910923e-15 8.551111260566396
    vertex -21.710369523457075 2.114974861910923e-15 8.499999999999998
  endloop
endfacet
facet normal -0.0 -1.0 -0.0
  outer loop
    vertex -20.649709351677256 2.114974861910923e-15 8.939339828220177
    vertex -12.0 0.0 19.999999999999996
    vertex -20.411331417780417 2.114974861910923e-15 9.249999999999996
  endloop
endfacet
facet normal -0.0 -1.0 -0.0
  outer loop
    vertex -20.411331417780417 2.114974861910923e-15 9.249999999999996
    vertex -12.0 0.0 19.999999999999996
    vertex -20.261480784023473 2.114974861910923e-15 9.611771432346217
  endloop
endfacet
facet normal -0.0 -1.0 -0.0
  outer loop
    vertex -20.261480784023473 2.114974861910923e-15 9.611771432346217
    vertex -12.0 0.0 19.999999999999996
    vertex -20.210369523457075 2.114974861910923e-15 9.999999999999998
  endloop
endfacet
facet normal -0.0 -1.0 -0.0
  outer loop
    vertex -20.210369523457075 2.114974861910923e-15 9.999999999999998
    vertex -12.0 0.0 19.999999999999996
    vertex -20.261480784023473 2.114974861910923e-15 10.38822856765378
  endloop
endfacet
facet normal -0.0 -1.0 -0.0
  outer loop
    vertex -20.261480784023473 2.114974861910923e-15 10.38822856765378
    vertex -12.0 0.0 19.999999999999996
    vertex -20.411331417780417 2.114974861910923e-15 10.749999999999998
  endloop
endfacet
facet normal -0.0 -1.0 -0.0
  outer loop
    vertex -20.411331417780417 2.114974861910923e-15 10.749999999999998
    vertex -12.0 0.0 19.999999999999996
    vertex -20.649709351677256 2.114974861910923e-15 11.06066017177982
  endloop
endfacet
facet normal -0.0 -1.0 -0.0
  outer loop
    vertex -20.649709351677256 2.114974861910923e-15 11.06066017177982
    vertex -12.0 0.0 19.999999999999996
    vertex -20.960369523457075 2.114974861910923e-15 11.299038105676656
  endloop
endfacet
facet normal -0.0 -1.0 -0.0
  outer loop
    vertex -20.960369523457075 2.114974861910923e-15 11.299038105676656
    vertex -12.0 0.0 19.999999999999996
    vertex -21.322140955803295 2.114974861910923e-15 11.4488887394336
  endloop
endfacet
facet normal -0.0 -1.0 -0.0
  outer loop
    vertex -21.322140955803295 2.114974861910923e-15 11.4488887394336
    vertex -12.0 0.0 19.999999999999996
    vertex -21.710369523457075 2.114974861910923e-15 11.499999999999998
  endloop
endfacet
facet normal -0.0 -1.0 -0.0
  outer loop
    vertex -26.999999999999996 0.0 0.0
    vertex -23.159258262890678 2.114974861910923e-15 9.611771432346218
    vertex -26.999999999999996 0.0 19.999999999999996
  endloop
endfacet
facet normal -0.0 -1.0 -0.0
  outer loop
    vertex -23.159258262890678 2.114974861910923e-15 9.611771432346218
    vertex -26.999999999999996 0.0 0.0
    vertex -23.009407629133737 2.114974861910923e-15 9.249999999999998
  endloop
endfacet
facet normal -0.0 -1.0 -0.0
  outer loop
    vertex -23.009407629133737 2.114974861910923e-15 9.249999999999998
    vertex -26.999999999999996 0.0 0.0
    vertex -22.771029695236898 2.114974861910923e-15 8.939339828220177
  endloop
endfacet
facet normal -0.0 -1.0 -0.0
  outer loop
    vertex -22.771029695236898 2.114974861910923e-15 8.939339828220177
    vertex -26.999999999999996 0.0 0.0
    vertex -22.46036952345708 2.114974861910923e-15 8.700961894323342
  endloop
endfacet
facet normal -0.0 -1.0 -0.0
  outer loop
    vertex -22.46036952345708 2.114974861910923e-15 8.700961894323342
    vertex -26.999999999999996 0.0 0.0
    vertex -22.09859809111086 2.114974861910923e-15 8.551111260566396
  endloop
endfacet
facet normal -0.0 -1.0 -0.0
  outer loop
    vertex -22.09859809111086 2.114974861910923e-15 8.551111260566396
    vertex -26.999999999999996 0.0 0.0
    vertex -21.710369523457075 2.114974861910923e-15 8.499999999999998
  endloop
endfacet
facet normal -0.0 -1.0 -0.0
  outer loop
    vertex -26.999999999999996 0.0 19.999999999999996
    vertex -23.159258262890678 2.114974861910923e-15 9.611771432346218
    vertex -23.210369523457075 2.114974861910923e-15 9.999999999999998
  endloop
endfacet
facet normal -0.0 -1.0 -0.0
  outer loop
    vertex -26.999999999999996 0.0 19.999999999999996
    vertex -23.210369523457075 2.114974861910923e-15 9.999999999999998
    vertex -23.159258262890678 2.114974861910923e-15 10.38822856765378
  endloop
endfacet
facet normal -0.0 -1.0 -0.0
  outer loop
    vertex -26.999999999999996 0.0 19.999999999999996
    vertex -23.159258262890678 2.114974861910923e-15 10.38822856765378
    vertex -23.009407629133737 2.114974861910923e-15 10.749999999999998
  endloop
endfacet
facet normal -0.0 -1.0 -0.0
  outer loop
    vertex -26.999999999999996 0.0 19.999999999999996
    vertex -23.009407629133737 2.114974861910923e-15 10.749999999999998
    vertex -22.771029695236898 2.114974861910923e-15 11.06066017177982
  endloop
endfacet
facet normal -0.0 -1.0 -0.0
  outer loop
    vertex -26.999999999999996 0.0 19.999999999999996
    vertex -22.771029695236898 2.114974861910923e-15 11.06066017177982
    vertex -22.460369523457075 2.114974861910923e-15 11.299038105676658
  endloop
endfacet
facet normal -0.0 -1.0 -0.0
  outer loop
    vertex -26.999999999999996 0.0 19.999999999999996
    vertex -22.460369523457075 2.114974861910923e-15 11.299038105676658
    vertex -22.09859809111086 2.114974861910923e-15 11.4488887394336
  endloop
endfacet
facet normal -0.0 -1.0 -0.0
  outer loop
    vertex -26.999999999999996 0.0 19.999999999999996
    vertex -22.09859809111086 2.114974861910923e-15 11.4488887394336
    vertex -21.710369523457075 2.114974861910923e-15 11.499999999999998
  endloop
endfacet
facet normal -0.0 -1.0 -0.0
  outer loop
    vertex -26.999999999999996 0.0 19.999999999999996
    vertex -21.710369523457075 2.114974861910923e-15 11.499999999999998
    vertex -12.0 0.0 19.999999999999996
  endloop
endfacet
facet normal -1.0 0.0 0.0
  outer loop
    vertex -26.999999999999996 4.399923766742867 19.999999999999996
    vertex -26.999999999999996 0.0 0.0
    vertex -26.999999999999996 0.0 19.999999999999996
  endloop
endfacet
facet normal -1.0 0.0 0.0
  outer loop
    vertex -26.999999999999996 0.0 0.0
    vertex -26.999999999999996 4.399923766742867 19.999999999999996
    vertex -26.999999999999996 4.399923766742867 0.0
  endloop
endfacet
facet normal -0.0 1.0 0.0
  outer loop
    vertex -26.999999999999996 4.399923766742867 0.0
    vertex -23.009407629133737 4.399923766742867 9.249999999999998
    vertex -16.420739046914157 4.399923766742867 0.0
  endloop
endfacet
facet normal -0.0 1.0 0.0
  outer loop
    vertex -23.009407629133737 4.399923766742867 9.249999999999998
    vertex -26.999999999999996 4.399923766742867 0.0
    vertex -23.159258262890678 4.399923766742867 9.611771432346218
  endloop
endfacet
facet normal -0.0 1.0 0.0
  outer loop
    vertex -23.159258262890678 4.399923766742867 9.611771432346218
    vertex -26.999999999999996 4.399923766742867 0.0
    vertex -26.999999999999996 4.399923766742867 19.999999999999996
  endloop
endfacet
facet normal -0.0 1.0 0.0
  outer loop
    vertex -16.420739046914157 4.399923766742867 0.0
    vertex -23.009407629133737 4.399923766742867 9.249999999999998
    vertex -22.771029695236898 4.399923766742867 8.939339828220177
  endloop
endfacet
facet normal -0.0 1.0 0.0
  outer loop
    vertex -16.420739046914157 4.399923766742867 0.0
    vertex -22.771029695236898 4.399923766742867 8.939339828220177
    vertex -22.46036952345708 4.399923766742867 8.700961894323342
  endloop
endfacet
facet normal -0.0 1.0 0.0
  outer loop
    vertex -16.420739046914157 4.399923766742867 0.0
    vertex -22.46036952345708 4.399923766742867 8.700961894323342
    vertex -22.09859809111086 4.399923766742867 8.551111260566396
  endloop
endfacet
facet normal -0.0 1.0 0.0
  outer loop
    vertex -16.420739046914157 4.399923766742867 0.0
    vertex -22.09859809111086 4.399923766742867 8.551111260566396
    vertex -21.710369523457075 4.399923766742867 8.499999999999998
  endloop
endfacet
facet normal -0.0 1.0 0.0
  outer loop
    vertex -23.159258262890678 4.399923766742867 9.611771432346218
    vertex -26.999999999999996 4.399923766742867 19.999999999999996
    vertex -23.210369523457075 4.399923766742867 9.999999999999998
  endloop
endfacet
facet normal -0.0 1.0 0.0
  outer loop
    vertex -23.210369523457075 4.399923766742867 9.999999999999998
    vertex -26.999999999999996 4.399923766742867 19.999999999999996
    vertex -23.159258262890678 4.399923766742867 10.38822856765378
  endloop
endfacet
facet normal -0.0 1.0 0.0
  outer loop
    vertex -23.159258262890678 4.399923766742867 10.38822856765378
    vertex -26.999999999999996 4.399923766742867 19.999999999999996
    vertex -23.009407629133737 4.399923766742867 10.749999999999998
  endloop
endfacet
facet normal -0.0 1.0 0.0
  outer loop
    vertex -23.009407629133737 4.399923766742867 10.749999999999998
    vertex -26.999999999999996 4.399923766742867 19.999999999999996
    vertex -22.771029695236898 4.399923766742867 11.06066017177982
  endloop
endfacet
facet normal -0.0 1.0 0.0
  outer loop
    vertex -22.771029695236898 4.399923766742867 11.06066017177982
    vertex -26.999999999999996 4.399923766742867 19.999999999999996
    vertex -22.460369523457075 4.399923766742867 11.299038105676658
  endloop
endfacet
facet normal -0.0 1.0 0.0
  outer loop
    vertex -22.460369523457075 4.399923766742867 11.299038105676658
    vertex -26.999999999999996 4.399923766742867 19.999999999999996
    vertex -22.09859809111086 4.399923766742867 11.4488887394336
  endloop
endfacet
facet normal -0.0 1.0 0.0
  outer loop
    vertex -22.09859809111086 4.399923766742867 11.4488887394336
    vertex -26.999999999999996 4.399923766742867 19.999999999999996
    vertex -21.710369523457075 4.399923766742867 11.499999999999998
  endloop
endfacet
facet normal -0.0 1.0 0.0
  outer loop
    vertex -16.420739046914157 4.399923766742867 0.0
    vertex -20.261480784023473 4.399923766742867 9.611771432346217
    vertex -16.420739046914157 4.399923766742867 19.999999999999996
  endloop
endfacet
facet normal -0.0 1.0 0.0
  outer loop
    vertex -20.261480784023473 4.399923766742867 9.611771432346217
    vertex -16.420739046914157 4.399923766742867 0.0
    vertex -20.411331417780417 4.399923766742867 9.249999999999996
  endloop
endfacet
facet normal -0.0 1.0 0.0
  outer loop
    vertex -20.411331417780417 4.399923766742867 9.249999999999996
    vertex -16.420739046914157 4.399923766742867 0.0
    vertex -20.649709351677256 4.399923766742867 8.939339828220177
  endloop
endfacet
facet normal -0.0 1.0 0.0
  outer loop
    vertex -20.649709351677256 4.399923766742867 8.939339828220177
    vertex -16.420739046914157 4.399923766742867 0.0
    vertex -20.96036952345708 4.399923766742867 8.70096189432334
  endloop
endfacet
facet normal -0.0 1.0 0.0
  outer loop
    vertex -20.96036952345708 4.399923766742867 8.70096189432334
    vertex -16.420739046914157 4.399923766742867 0.0
    vertex -21.322140955803295 4.399923766742867 8.551111260566396
  endloop
endfacet
facet normal -0.0 1.0 0.0
  outer loop
    vertex -21.322140955803295 4.399923766742867 8.551111260566396
    vertex -16.420739046914157 4.399923766742867 0.0
    vertex -21.710369523457075 4.399923766742867 8.499999999999998
  endloop
endfacet
facet normal -0.0 1.0 0.0
  outer loop
    vertex -16.420739046914157 4.399923766742867 19.999999999999996
    vertex -20.261480784023473 4.399923766742867 9.611771432346217
    vertex -20.210369523457075 4.399923766742867 9.999999999999998
  endloop
endfacet
facet normal -0.0 1.0 0.0
  outer loop
    vertex -16.420739046914157 4.399923766742867 19.999999999999996
    vertex -20.210369523457075 4.399923766742867 9.999999999999998
    vertex -20.261480784023473 4.399923766742867 10.38822856765378
  endloop
endfacet
facet normal -0.0 1.0 0.0
  outer loop
    vertex -16.420739046914157 4.399923766742867 19.999999999999996
    vertex -20.261480784023473 4.399923766742867 10.38822856765378
    vertex -20.411331417780417 4.399923766742867 10.749999999999998
  endloop
endfacet
facet normal -0.0 1.0 0.0
  outer loop
    vertex -16.420739046914157 4.399923766742867 19.999999999999996
    vertex -20.411331417780417 4.399923766742867 10.749999999999998
    vertex -20.649709351677256 4.399923766742867 11.06066017177982
  endloop
endfacet
facet normal -0.0 1.0 0.0
  outer loop
    vertex -16.420739046914157 4.399923766742867 19.999999999999996
    vertex -20.649709351677256 4.399923766742867 11.06066017177982
    vertex -20.960369523457075 4.399923766742867 11.299038105676656
  endloop
endfacet
facet normal -0.0 1.0 0.0
  outer loop
    vertex -16.420739046914157 4.399923766742867 19.999999999999996
    vertex -20.960369523457075 4.399923766742867 11.299038105676656
    vertex -21.322140955803295 4.399923766742867 11.4488887394336
  endloop
endfacet
facet normal -0.0 1.0 0.0
  outer loop
    vertex -16.420739046914157 4.399923766742867 19.999999999999996
    vertex -21.322140955803295 4.399923766742867 11.4488887394336
    vertex -21.710369523457075 4.399923766742867 11.499999999999998
  endloop
endfacet
facet normal -0.0 1.0 0.0
  outer loop
    vertex -16.420739046914157 4.399923766742867 19.999999999999996
    vertex -21.710369523457075 4.399923766742867 11.499999999999998
    vertex -26.999999999999996 4.399923766742867 19.999999999999996
  endloop
endfacet
facet normal -0.9238795325112864 0.3826834323650906 0.0
  outer loop
    vertex -14.722431864335451 8.500000000000007 19.999999999999996
    vertex -16.420739046914157 4.399923766742867 0.0
    vertex -16.420739046914157 4.399923766742867 19.999999999999996
  endloop
endfacet
facet normal -0.9238795325112864 0.3826834323650906 0.0
  outer loop
    vertex -16.420739046914157 4.399923766742867 0.0
    vertex -14.722431864335451 8.500000000000007 19.999999999999996
    vertex -14.722431864335451 8.500000000000007 0.0
  endloop
endfacet
facet normal -0.7933533402912352 0.6087614290087207 0.0
  outer loop
    vertex -12.020815280171306 12.02081528017131 19.999999999999996
    vertex -14.722431864335451 8.500000000000007 0.0
    vertex -14.722431864335451 8.500000000000007 19.999999999999996
  endloop
endfacet
facet normal -0.7933533402912352 0.6087614290087207 0.0
  outer loop
    vertex -14.722431864335451 8.500000000000007 0.0
    vertex -12.020815280171306 12.02081528017131 19.999999999999996
    vertex -12.020815280171306 12.02081528017131 0.0
  endloop
endfacet
facet normal -0.6087614290087201 0.7933533402912357 0.0
  outer loop
    vertex -12.020815280171306 12.02081528017131 19.999999999999996
    vertex -8.49999999999999 14.722431864335464 0.0
    vertex -12.020815280171306 12.02081528017131 0.0
  endloop
endfacet
facet normal -0.6087614290087201 0.7933533402912357 0.0
  outer loop
    vertex -8.49999999999999 14.722431864335464 0.0
    vertex -12.020815280171306 12.02081528017131 19.999999999999996
    vertex -8.49999999999999 14.722431864335464 19.999999999999996
  endloop
endfacet
facet normal -0.3826834323650893 0.9238795325112871 0.0
  outer loop
    vertex -8.49999999999999 14.722431864335464 19.999999999999996
    vertex -4.399923766742845 16.420739046914164 0.0
    vertex -8.49999999999999 14.722431864335464 0.0
  endloop
endfacet
facet normal -0.3826834323650893 0.9238795325112871 0.0
  outer loop
    vertex -4.399923766742845 16.420739046914164 0.0
    vertex -8.49999999999999 14.722431864335464 19.999999999999996
    vertex -4.399923766742845 16.420739046914164 19.999999999999996
  endloop
endfacet
facet normal -0.1305261922200513 0.9914448613738105 0.0
  outer loop
    vertex -4.399923766742845 16.420739046914164 19.999999999999996
    vertex 3.1228493378257502e-15 17.0 0.0
    vertex -4.399923766742845 16.420739046914164 0.0
  endloop
endfacet
facet normal -0.1305261922200513 0.9914448613738105 0.0
  outer loop
    vertex 3.1228493378257502e-15 17.0 0.0
    vertex -4.399923766742845 16.420739046914164 19.999999999999996
    vertex 3.1228493378257502e-15 17.0 19.999999999999996
  endloop
endfacet
facet normal 0.13052619222005207 0.9914448613738104 0.0
  outer loop
    vertex 3.1228493378257502e-15 17.0 19.999999999999996
    vertex 4.399923766742866 16.420739046914157 0.0
    vertex 3.1228493378257502e-15 17.0 0.0
  endloop
endfacet
facet normal 0.13052619222005207 0.9914448613738104 0.0
  outer loop
    vertex 4.399923766742866 16.420739046914157 0.0
    vertex 3.1228493378257502e-15 17.0 19.999999999999996
    vertex 4.399923766742866 16.420739046914157 19.999999999999996
  endloop
endfacet
facet normal 0.3826834323650906 0.9238795325112865 0.0
  outer loop
    vertex 4.399923766742866 16.420739046914157 19.999999999999996
    vertex 8.500000000000007 14.722431864335451 0.0
    vertex 4.399923766742866 16.420739046914157 0.0
  endloop
endfacet
facet normal 0.3826834323650906 0.9238795325112865 0.0
  outer loop
    vertex 8.500000000000007 14.722431864335451 0.0
    vertex 4.399923766742866 16.420739046914157 19.999999999999996
    vertex 8.500000000000007 14.722431864335451 19.999999999999996
  endloop
endfacet
facet normal 0.608761429008721 0.7933533402912349 0.0
  outer loop
    vertex 8.500000000000007 14.722431864335451 19.999999999999996
    vertex 12.020815280171314 12.020815280171302 0.0
    vertex 8.500000000000007 14.722431864335451 0.0
  endloop
endfacet
facet normal 0.608761429008721 0.7933533402912349 0.0
  outer loop
    vertex 12.020815280171314 12.020815280171302 0.0
    vertex 8.500000000000007 14.722431864335451 19.999999999999996
    vertex 12.020815280171314 12.020815280171302 19.999999999999996
  endloop
endfacet
facet normal 0.7933533402912354 0.6087614290087205 0.0
  outer loop
    vertex 12.020815280171314 12.020815280171302 0.0
    vertex 14.72243186433546 8.499999999999996 19.999999999999996
    vertex 14.72243186433546 8.499999999999996 0.0
  endloop
endfacet
facet normal 0.7933533402912354 0.6087614290087205 0.0
  outer loop
    vertex 14.72243186433546 8.499999999999996 19.999999999999996
    vertex 12.020815280171314 12.020815280171302 0.0
    vertex 12.020815280171314 12.020815280171302 19.999999999999996
  endloop
endfacet
facet normal 0.9238795325112871 0.3826834323650894 0.0
  outer loop
    vertex 14.72243186433546 8.499999999999996 0.0
    vertex 16.420739046914164 4.399923766742846 19.999999999999996
    vertex 16.420739046914164 4.399923766742846 0.0
  endloop
endfacet
facet normal 0.9238795325112871 0.3826834323650894 0.0
  outer loop
    vertex 16.420739046914164 4.399923766742846 19.999999999999996
    vertex 14.72243186433546 8.499999999999996 0.0
    vertex 14.72243186433546 8.499999999999996 19.999999999999996
  endloop
endfacet
facet normal -0.0 1.0 0.0
  outer loop
    vertex 16.420739046914164 4.399923766742846 0.0
    vertex 20.611148689337377 4.399923766742846 8.979356302210618
    vertex 26.999999999999996 4.399923766742846 0.0
  endloop
endfacet
facet normal -0.0 1.0 0.0
  outer loop
    vertex 20.611148689337377 4.399923766742846 8.979356302210618
    vertex 16.420739046914164 4.399923766742846 0.0
    vertex 20.384441703734094 4.399923766742846 9.298633179509718
  endloop
endfacet
facet normal -0.0 1.0 0.0
  outer loop
    vertex 20.384441703734094 4.399923766742846 9.298633179509718
    vertex 16.420739046914164 4.399923766742846 0.0
    vertex 20.248094507845604 4.399923766742846 9.665707046561758
  endloop
endfacet
facet normal -0.0 1.0 0.0
  outer loop
    vertex 20.248094507845604 4.399923766742846 9.665707046561758
    vertex 16.420739046914164 4.399923766742846 0.0
    vertex 16.420739046914164 4.399923766742846 19.999999999999996
  endloop
endfacet
facet normal -0.0 1.0 0.0
  outer loop
    vertex 26.999999999999996 4.399923766742846 0.0
    vertex 20.611148689337377 4.399923766742846 8.979356302210618
    vertex 20.9127657582376 4.399923766742846 8.729634606222403
  endloop
endfacet
facet normal -0.0 1.0 0.0
  outer loop
    vertex 26.999999999999996 4.399923766742846 0.0
    vertex 20.9127657582376 4.399923766742846 8.729634606222403
    vertex 21.268738205634985 4.399923766742846 8.566486212442056
  endloop
endfacet
facet normal -0.0 1.0 0.0
  outer loop
    vertex 26.999999999999996 4.399923766742846 0.0
    vertex 21.268738205634985 4.399923766742846 8.566486212442056
    vertex 21.65480709751169 4.399923766742846 8.501029414290239
  endloop
endfacet
facet normal -0.0 1.0 0.0
  outer loop
    vertex 20.248094507845604 4.399923766742846 9.665707046561758
    vertex 16.420739046914164 4.399923766742846 19.999999999999996
    vertex 20.21139893774732 4.399923766742846 10.05556242594539
  endloop
endfacet
facet normal -0.0 1.0 0.0
  outer loop
    vertex 20.21139893774732 4.399923766742846 10.05556242594539
    vertex 16.420739046914164 4.399923766742846 19.999999999999996
    vertex 20.276855735899137 4.399923766742846 10.441631317822091
  endloop
endfacet
facet normal -0.0 1.0 0.0
  outer loop
    vertex 20.276855735899137 4.399923766742846 10.441631317822091
    vertex 16.420739046914164 4.399923766742846 19.999999999999996
    vertex 20.440004129679483 4.399923766742846 10.797603765219478
  endloop
endfacet
facet normal -0.0 1.0 0.0
  outer loop
    vertex 20.440004129679483 4.399923766742846 10.797603765219478
    vertex 16.420739046914164 4.399923766742846 19.999999999999996
    vertex 20.689725825667697 4.399923766742846 11.099220834119702
  endloop
endfacet
facet normal -0.0 1.0 0.0
  outer loop
    vertex 20.689725825667697 4.399923766742846 11.099220834119702
    vertex 16.420739046914164 4.399923766742846 19.999999999999996
    vertex 21.0090027029668 4.399923766742846 11.325927819722985
  endloop
endfacet
facet normal -0.0 1.0 0.0
  outer loop
    vertex 21.0090027029668 4.399923766742846 11.325927819722985
    vertex 16.420739046914164 4.399923766742846 19.999999999999996
    vertex 21.376076570018842 4.399923766742846 11.462275015611473
  endloop
endfacet
facet normal -0.0 1.0 0.0
  outer loop
    vertex 21.376076570018842 4.399923766742846 11.462275015611473
    vertex 16.420739046914164 4.399923766742846 19.999999999999996
    vertex 21.76593194940247 4.399923766742846 11.498970585709758
  endloop
endfacet
facet normal -0.0 1.0 0.0
  outer loop
    vertex 26.999999999999996 4.399923766742846 0.0
    vertex 23.14388331101502 4.399923766742846 9.558368682177905
    vertex 26.999999999999996 4.399923766742846 19.999999999999996
  endloop
endfacet
facet normal -0.0 1.0 0.0
  outer loop
    vertex 23.14388331101502 4.399923766742846 9.558368682177905
    vertex 26.999999999999996 4.399923766742846 0.0
    vertex 22.980734917234674 4.399923766742846 9.202396234780519
  endloop
endfacet
facet normal -0.0 1.0 0.0
  outer loop
    vertex 22.980734917234674 4.399923766742846 9.202396234780519
    vertex 26.999999999999996 4.399923766742846 0.0
    vertex 22.73101322124646 4.399923766742846 8.900779165880296
  endloop
endfacet
facet normal -0.0 1.0 0.0
  outer loop
    vertex 22.73101322124646 4.399923766742846 8.900779165880296
    vertex 26.999999999999996 4.399923766742846 0.0
    vertex 22.41173634394736 4.399923766742846 8.674072180277012
  endloop
endfacet
facet normal -0.0 1.0 0.0
  outer loop
    vertex 22.41173634394736 4.399923766742846 8.674072180277012
    vertex 26.999999999999996 4.399923766742846 0.0
    vertex 22.04466247689532 4.399923766742846 8.537724984388525
  endloop
endfacet
facet normal -0.0 1.0 0.0
  outer loop
    vertex 22.04466247689532 4.399923766742846 8.537724984388525
    vertex 26.999999999999996 4.399923766742846 0.0
    vertex 21.65480709751169 4.399923766742846 8.501029414290239
  endloop
endfacet
facet normal -0.0 1.0 0.0
  outer loop
    vertex 26.999999999999996 4.399923766742846 19.999999999999996
    vertex 23.14388331101502 4.399923766742846 9.558368682177905
    vertex 23.20934010916684 4.399923766742846 9.944437574054607
  endloop
endfacet
facet normal -0.0 1.0 0.0
  outer loop
    vertex 26.999999999999996 4.399923766742846 19.999999999999996
    vertex 23.20934010916684 4.399923766742846 9.944437574054607
    vertex 23.172644539068553 4.399923766742846 10.334292953438236
  endloop
endfacet
facet normal -0.0 1.0 0.0
  outer loop
    vertex 26.999999999999996 4.399923766742846 19.999999999999996
    vertex 23.172644539068553 4.399923766742846 10.334292953438236
    vertex 23.036297343180067 4.399923766742846 10.701366820490279
  endloop
endfacet
facet normal -0.0 1.0 0.0
  outer loop
    vertex 26.999999999999996 4.399923766742846 19.999999999999996
    vertex 23.036297343180067 4.399923766742846 10.701366820490279
    vertex 22.809590357576784 4.399923766742846 11.02064369778938
  endloop
endfacet
facet normal -0.0 1.0 0.0
  outer loop
    vertex 26.999999999999996 4.399923766742846 19.999999999999996
    vertex 22.809590357576784 4.399923766742846 11.02064369778938
    vertex 22.50797328867656 4.399923766742846 11.270365393777594
  endloop
endfacet
facet normal -0.0 1.0 0.0
  outer loop
    vertex 26.999999999999996 4.399923766742846 19.999999999999996
    vertex 22.50797328867656 4.399923766742846 11.270365393777594
    vertex 22.152000841279172 4.399923766742846 11.433513787557942
  endloop
endfacet
facet normal -0.0 1.0 0.0
  outer loop
    vertex 26.999999999999996 4.399923766742846 19.999999999999996
    vertex 22.152000841279172 4.399923766742846 11.433513787557942
    vertex 21.76593194940247 4.399923766742846 11.498970585709758
  endloop
endfacet
facet normal -0.0 1.0 0.0
  outer loop
    vertex 26.999999999999996 4.399923766742846 19.999999999999996
    vertex 21.76593194940247 4.399923766742846 11.498970585709758
    vertex 16.420739046914164 4.399923766742846 19.999999999999996
  endloop
endfacet
facet normal 1.0 0.0 0.0
  outer loop
    vertex 26.999999999999996 4.399923766742846 0.0
    vertex 26.999999999999996 -2.0818995585505003e-15 19.999999999999996
    vertex 26.999999999999996 -2.0818995585505003e-15 0.0
  endloop
endfacet
facet normal 1.0 0.0 0.0
  outer loop
    vertex 26.999999999999996 -2.0818995585505003e-15 19.999999999999996
    vertex 26.999999999999996 4.399923766742846 0.0
    vertex 26.999999999999996 4.399923766742846 19.999999999999996
  endloop
endfacet
facet normal -4.082155997157846e-17 -1.0 -0.0
  outer loop
    vertex 26.999999999999996 -2.0818995585505003e-15 0.0
    vertex 22.73101322124646 4.93494134445882e-15 8.900779165880296
    vertex 12.0 -1.4695761589768238e-15 0.0
  endloop
endfacet
facet normal -4.082155997157846e-17 -1.0 -0.0
  outer loop
    vertex 22.73101322124646 4.93494134445882e-15 8.900779165880296
    vertex 26.999999999999996 -2.0818995585505003e-15 0.0
    vertex 22.980734917234674 4.93494134445882e-15 9.202396234780519
  endloop
endfacet
facet normal -4.082155997157846e-17 -1.0 -0.0
  outer loop
    vertex 22.980734917234674 4.93494134445882e-15 9.202396234780519
    vertex 26.999999999999996 -2.0818995585505003e-15 0.0
    vertex 23.14388331101502 4.93494134445882e-15 9.558368682177905
  endloop
endfacet
facet normal -4.082155997157846e-17 -1.0 -0.0
  outer loop
    vertex 23.14388331101502 4.93494134445882e-15 9.558368682177905
    vertex 26.999999999999996 -2.0818995585505003e-15 0.0
    vertex 26.999999999999996 -2.0818995585505003e-15 19.999999999999996
  endloop
endfacet
facet normal -4.082155997157846e-17 -1.0 -0.0
  outer loop
    vertex 12.0 -1.4695761589768238e-15 0.0
    vertex 22.73101322124646 4.93494134445882e-15 8.900779165880296
    vertex 22.41173634394736 4.93494134445882e-15 8.674072180277012
  endloop
endfacet
facet normal -4.082155997157846e-17 -1.0 -0.0
  outer loop
    vertex 12.0 -1.4695761589768238e-15 0.0
    vertex 22.41173634394736 4.93494134445882e-15 8.674072180277012
    vertex 22.04466247689532 4.93494134445882e-15 8.537724984388525
  endloop
endfacet
facet normal -4.082155997157846e-17 -1.0 -0.0
  outer loop
    vertex 12.0 -1.4695761589768238e-15 0.0
    vertex 22.04466247689532 4.93494134445882e-15 8.537724984388525
    vertex 21.65480709751169 4.93494134445882e-15 8.501029414290239
  endloop
endfacet
facet normal -4.082155997157846e-17 -1.0 -0.0
  outer loop
    vertex 23.14388331101502 4.93494134445882e-15 9.558368682177905
    vertex 26.999999999999996 -2.0818995585505003e-15 19.999999999999996
    vertex 23.20934010916684 4.93494134445882e-15 9.944437574054607
  endloop
endfacet
facet normal -4.082155997157846e-17 -1.0 -0.0
  outer loop
    vertex 23.20934010916684 4.93494134445882e-15 9.944437574054607
    vertex 26.999999999999996 -2.0818995585505003e-15 19.999999999999996
    vertex 23.172644539068553 4.93494134445882e-15 10.334292953438236
  endloop
endfacet
facet normal -4.082155997157846e-17 -1.0 -0.0
  outer loop
    vertex 23.172644539068553 4.93494134445882e-15 10.334292953438236
    vertex 26.999999999999996 -2.0818995585505003e-15 19.999999999999996
    vertex 23.036297343180067 4.93494134445882e-15 10.701366820490279
  endloop
endfacet
facet normal -4.082155997157846e-17 -1.0 -0.0
  outer loop
    vertex 23.036297343180067 4.93494134445882e-15 10.701366820490279
    vertex 26.999999999999996 -2.0818995585505003e-15 19.999999999999996
    vertex 22.809590357576784 4.93494134445882e-15 11.02064369778938
  endloop
endfacet
facet normal -4.082155997157846e-17 -1.0 -0.0
  outer loop
    vertex 22.809590357576784 4.93494134445882e-15 11.02064369778938
    vertex 26.999999999999996 -2.0818995585505003e-15 19.999999999999996
    vertex 22.50797328867656 4.93494134445882e-15 11.270365393777594
  endloop
endfacet
facet normal -4.082155997157846e-17 -1.0 -0.0
  outer loop
    vertex 22.50797328867656 4.93494134445882e-15 11.270365393777594
    vertex 26.999999999999996 -2.0818995585505003e-15 19.999999999999996
    vertex 22.152000841279172 4.93494134445882e-15 11.433513787557942
  endloop
endfacet
facet normal -4.082155997157846e-17 -1.0 -0.0
  outer loop
    vertex 22.152000841279172 4.93494134445882e-15 11.433513787557942
    vertex 26.999999999999996 -2.0818995585505003e-15 19.999999999999996
    vertex 21.76593194940247 4.93494134445882e-15 11.498970585709758
  endloop
endfacet
facet normal -4.082155997157846e-17 -1.0 -0.0
  outer loop
    vertex 12.0 -1.4695761589768238e-15 0.0
    vertex 20.611148689337377 4.93494134445882e-15 8.979356302210618
    vertex 12.0 -1.4695761589768238e-15 19.999999999999996
  endloop
endfacet
facet normal -4.082155997157846e-17 -1.0 -0.0
  outer loop
    vertex 20.611148689337377 4.93494134445882e-15 8.979356302210618
    vertex 12.0 -1.4695761589768238e-15 0.0
    vertex 20.9127657582376 4.93494134445882e-15 8.729634606222403
  endloop
endfacet
facet normal -4.082155997157846e-17 -1.0 -0.0
  outer loop
    vertex 20.9127657582376 4.93494134445882e-15 8.729634606222403
    vertex 12.0 -1.4695761589768238e-15 0.0
    vertex 21.268738205634985 4.93494134445882e-15 8.566486212442056
  endloop
endfacet
facet normal -4.082155997157846e-17 -1.0 -0.0
  outer loop
    vertex 21.268738205634985 4.93494134445882e-15 8.566486212442056
    vertex 12.0 -1.4695761589768238e-15 0.0
    vertex 21.65480709751169 4.93494134445882e-15 8.501029414290239
  endloop
endfacet
facet normal -4.082155997157846e-17 -1.0 -0.0
  outer loop
    vertex 12.0 -1.4695761589768238e-15 19.999999999999996
    vertex 20.611148689337377 4.93494134445882e-15 8.979356302210618
    vertex 20.384441703734094 4.93494134445882e-15 9.298633179509718
  endloop
endfacet
facet normal -4.082155997157846e-17 -1.0 -0.0
  outer loop
    vertex 12.0 -1.4695761589768238e-15 19.999999999999996
    vertex 20.384441703734094 4.93494134445882e-15 9.298633179509718
    vertex 20.248094507845604 4.93494134445882e-15 9.665707046561758
  endloop
endfacet
facet normal -4.082155997157846e-17 -1.0 -0.0
  outer loop
    vertex 12.0 -1.4695761589768238e-15 19.999999999999996
    vertex 20.248094507845604 4.93494134445882e-15 9.665707046561758
    vertex 20.21139893774732 4.93494134445882e-15 10.05556242594539
  endloop
endfacet
facet normal -4.082155997157846e-17 -1.0 -0.0
  outer loop
    vertex 12.0 -1.4695761589768238e-15 19.999999999999996
    vertex 20.21139893774732 4.93494134445882e-15 10.05556242594539
    vertex 20.276855735899137 4.93494134445882e-15 10.441631317822091
  endloop
endfacet
facet normal -4.082155997157846e-17 -1.0 -0.0
  outer loop
    vertex 12.0 -1.4695761589768238e-15 19.999999999999996
    vertex 20.276855735899137 4.93494134445882e-15 10.441631317822091
    vertex 20.440004129679483 4.93494134445882e-15 10.797603765219478
  endloop
endfacet
facet normal -4.082155997157846e-17 -1.0 -0.0
  outer loop
    vertex 12.0 -1.4695761589768238e-15 19.999999999999996
    vertex 20.440004129679483 4.93494134445882e-15 10.797603765219478
    vertex 20.689725825667697 4.93494134445882e-15 11.099220834119702
  endloop
endfacet
facet normal -4.082155997157846e-17 -1.0 -0.0
  outer loop
    vertex 12.0 -1.4695761589768238e-15 19.999999999999996
    vertex 20.689725825667697 4.93494134445882e-15 11.099220834119702
    vertex 21.0090027029668 4.93494134445882e-15 11.325927819722985
  endloop
endfacet
facet normal -4.082155997157846e-17 -1.0 -0.0
  outer loop
    vertex 12.0 -1.4695761589768238e-15 19.999999999999996
    vertex 21.0090027029668 4.93494134445882e-15 11.325927819722985
    vertex 21.376076570018842 4.93494134445882e-15 11.462275015611473
  endloop
endfacet
facet normal -4.082155997157846e-17 -1.0 -0.0
  outer loop
    vertex 12.0 -1.4695761589768238e-15 19.999999999999996
    vertex 21.376076570018842 4.93494134445882e-15 11.462275015611473
    vertex 21.76593194940247 4.93494134445882e-15 11.498970585709758
  endloop
endfacet
facet normal -4.082155997157846e-17 -1.0 -0.0
  outer loop
    vertex 12.0 -1.4695761589768238e-15 19.999999999999996
    vertex 21.76593194940247 4.93494134445882e-15 11.498970585709758
    vertex 26.999999999999996 -2.0818995585505003e-15 19.999999999999996
  endloop
endfacet
facet normal -0.9914448613738105 -0.13052619222005102 -0.0
  outer loop
    vertex 11.59110991546882 3.105828541230244 19.999999999999996
    vertex 12.0 -1.4695761589768238e-15 0.0
    vertex 12.0 -1.4695761589768238e-15 19.999999999999996
  endloop
endfacet
facet normal -0.9914448613738105 -0.13052619222005102 -0.0
  outer loop
    vertex 12.0 -1.4695761589768238e-15 0.0
    vertex 11.59110991546882 3.105828541230244 19.999999999999996
    vertex 11.59110991546882 3.105828541230244 0.0
  endloop
endfacet
facet normal -0.9238795325112867 -0.3826834323650899 -0.0
  outer loop
    vertex 10.392304845413264 5.9999999999999964 19.999999999999996
    vertex 11.59110991546882 3.105828541230244 0.0
    vertex 11.59110991546882 3.105828541230244 19.999999999999996
  endloop
endfacet
facet normal -0.9238795325112867 -0.3826834323650899 -0.0
  outer loop
    vertex 11.59110991546882 3.105828541230244 0.0
    vertex 10.392304845413264 5.9999999999999964 19.999999999999996
    vertex 10.392304845413264 5.9999999999999964 0.0
  endloop
endfacet
facet normal -0.7933533402912355 -0.6087614290087202 -0.0
  outer loop
    vertex 8.485281374238575 8.485281374238564 19.999999999999996
    vertex 10.392304845413264 5.9999999999999964 0.0
    vertex 10.392304845413264 5.9999999999999964 19.999999999999996
  endloop
endfacet
facet normal -0.7933533402912355 -0.6087614290087202 -0.0
  outer loop
    vertex 10.392304845413264 5.9999999999999964 0.0
    vertex 8.485281374238575 8.485281374238564 19.999999999999996
    vertex 8.485281374238575 8.485281374238564 0.0
  endloop
endfacet
facet normal -0.6087614290087212 -0.7933533402912347 -0.0
  outer loop
    vertex 8.485281374238575 8.485281374238564 19.999999999999996
    vertex 6.000000000000005 10.39230484541326 0.0
    vertex 8.485281374238575 8.485281374238564 0.0
  endloop
endfacet
facet normal -0.6087614290087212 -0.7933533402912347 -0.0
  outer loop
    vertex 6.000000000000005 10.39230484541326 0.0
    vertex 8.485281374238575 8.485281374238564 19.999999999999996
    vertex 6.000000000000005 10.39230484541326 19.999999999999996
  endloop
endfacet
facet normal -0.38268343236509045 -0.9238795325112866 -0.0
  outer loop
    vertex 6.000000000000005 10.39230484541326 19.999999999999996
    vertex 3.105828541230258 11.591109915468817 0.0
    vertex 6.000000000000005 10.39230484541326 0.0
  endloop
endfacet
facet normal -0.38268343236509045 -0.9238795325112866 -0.0
  outer loop
    vertex 3.105828541230258 11.591109915468817 0.0
    vertex 6.000000000000005 10.39230484541326 19.999999999999996
    vertex 3.105828541230258 11.591109915468817 19.999999999999996
  endloop
endfacet
facet normal -0.1305261922200519 -0.9914448613738104 -0.0
  outer loop
    vertex 3.105828541230258 11.591109915468817 19.999999999999996
    vertex 2.2043642384652354e-15 12.0 0.0
    vertex 3.105828541230258 11.591109915468817 0.0
  endloop
endfacet
facet normal -0.1305261922200519 -0.9914448613738104 -0.0
  outer loop
    vertex 2.2043642384652354e-15 12.0 0.0
    vertex 3.105828541230258 11.591109915468817 19.999999999999996
    vertex 2.2043642384652354e-15 12.0 19.999999999999996
  endloop
endfacet
facet normal 0.13052619222005102 -0.9914448613738105 0.0
  outer loop
    vertex 2.2043642384652354e-15 12.0 19.999999999999996
    vertex -3.105828541230243 11.59110991546882 0.0
    vertex 2.2043642384652354e-15 12.0 0.0
  endloop
endfacet
facet normal 0.13052619222005102 -0.9914448613738105 0.0
  outer loop
    vertex -3.105828541230243 11.59110991546882 0.0
    vertex 2.2043642384652354e-15 12.0 19.999999999999996
    vertex -3.105828541230243 11.59110991546882 19.999999999999996
  endloop
endfacet
facet normal 0.3826834323650895 -0.9238795325112868 0.0
  outer loop
    vertex -3.105828541230243 11.59110991546882 19.999999999999996
    vertex -5.999999999999992 10.392304845413268 0.0
    vertex -3.105828541230243 11.59110991546882 0.0
  endloop
endfacet
facet normal 0.3826834323650895 -0.9238795325112868 0.0
  outer loop
    vertex -5.999999999999992 10.392304845413268 0.0
    vertex -3.105828541230243 11.59110991546882 19.999999999999996
    vertex -5.999999999999992 10.392304845413268 19.999999999999996
  endloop
endfacet
facet normal 0.6087614290087202 -0.7933533402912355 0.0
  outer loop
    vertex -5.999999999999992 10.392304845413268 19.999999999999996
    vertex -8.485281374238568 8.485281374238571 0.0
    vertex -5.999999999999992 10.392304845413268 0.0
  endloop
endfacet
facet normal 0.6087614290087202 -0.7933533402912355 0.0
  outer loop
    vertex -8.485281374238568 8.485281374238571 0.0
    vertex -5.999999999999992 10.392304845413268 19.999999999999996
    vertex -8.485281374238568 8.485281374238571 19.999999999999996
  endloop
endfacet
facet normal 0.7933533402912348 -0.6087614290087211 0.0
  outer loop
    vertex -8.485281374238568 8.485281374238571 0.0
    vertex -10.39230484541326 6.000000000000005 19.999999999999996
    vertex -10.39230484541326 6.000000000000005 0.0
  endloop
endfacet
facet normal 0.7933533402912348 -0.6087614290087211 0.0
  outer loop
    vertex -10.39230484541326 6.000000000000005 19.999999999999996
    vertex -8.485281374238568 8.485281374238571 0.0
    vertex -8.485281374238568 8.485281374238571 19.999999999999996
  endloop
endfacet
facet normal 0.9238795325112866 -0.38268343236509056 0.0
  outer loop
    vertex -10.39230484541326 6.000000000000005 0.0
    vertex -11.591109915468817 3.1058285412302586 19.999999999999996
    vertex -11.591109915468817 3.1058285412302586 0.0
  endloop
endfacet
facet normal 0.9238795325112866 -0.38268343236509056 0.0
  outer loop
    vertex -11.591109915468817 3.1058285412302586 19.999999999999996
    vertex -10.39230484541326 6.000000000000005 0.0
    vertex -10.39230484541326 6.000000000000005 19.999999999999996
  endloop
endfacet
facet normal 0.9914448613738105 -0.1305261922200518 0.0
  outer loop
    vertex -11.591109915468817 3.1058285412302586 0.0
    vertex -12.0 0.0 19.999999999999996
    vertex -12.0 0.0 0.0
  endloop
endfacet
facet normal 0.9914448613738105 -0.1305261922200518 0.0
  outer loop
    vertex -12.0 0.0 19.999999999999996
    vertex -11.591109915468817 3.1058285412302586 0.0
    vertex -11.591109915468817 3.1058285412302586 19.999999999999996
  endloop
endfacet
facet normal -0.7933533402912326 -0.0 0.6087614290087243
  outer loop
    vertex -20.411331417780417 4.399923766742867 9.249999999999996
    vertex -20.649709351677256 2.114974861910923e-15 8.939339828220177
    vertex -20.411331417780417 2.114974861910923e-15 9.249999999999996
  endloop
endfacet
facet normal -0.7933533402912326 -0.0 0.6087614290087243
  outer loop
    vertex -20.649709351677256 2.114974861910923e-15 8.939339828220177
    vertex -20.411331417780417 4.399923766742867 9.249999999999996
    vertex -20.649709351677256 4.399923766742867 8.939339828220177
  endloop
endfacet
facet normal -0.6087614290087208 -0.0 0.7933533402912353
  outer loop
    vertex -20.649709351677256 2.114974861910923e-15 8.939339828220177
    vertex -20.96036952345708 4.399923766742867 8.70096189432334
    vertex -20.96036952345708 2.114974861910923e-15 8.70096189432334
  endloop
endfacet
facet normal -0.6087614290087208 -0.0 0.7933533402912353
  outer loop
    vertex -20.96036952345708 4.399923766742867 8.70096189432334
    vertex -20.649709351677256 2.114974861910923e-15 8.939339828220177
    vertex -20.649709351677256 4.399923766742867 8.939339828220177
  endloop
endfacet
facet normal -0.3826834323650895 -0.0 0.9238795325112868
  outer loop
    vertex -20.96036952345708 2.114974861910923e-15 8.70096189432334
    vertex -21.322140955803295 4.399923766742867 8.551111260566396
    vertex -21.322140955803295 2.114974861910923e-15 8.551111260566396
  endloop
endfacet
facet normal -0.3826834323650895 -0.0 0.9238795325112868
  outer loop
    vertex -21.322140955803295 4.399923766742867 8.551111260566396
    vertex -20.96036952345708 2.114974861910923e-15 8.70096189432334
    vertex -20.96036952345708 4.399923766742867 8.70096189432334
  endloop
endfacet
facet normal -0.13052619222005168 -0.0 0.9914448613738105
  outer loop
    vertex -21.322140955803295 2.114974861910923e-15 8.551111260566396
    vertex -21.710369523457075 4.399923766742867 8.499999999999998
    vertex -21.710369523457075 2.114974861910923e-15 8.499999999999998
  endloop
endfacet
facet normal -0.13052619222005168 -0.0 0.9914448613738105
  outer loop
    vertex -21.710369523457075 4.399923766742867 8.499999999999998
    vertex -21.322140955803295 2.114974861910923e-15 8.551111260566396
    vertex -21.322140955803295 4.399923766742867 8.551111260566396
  endloop
endfacet
facet normal 0.13052619222005168 0.0 0.9914448613738105
  outer loop
    vertex -21.710369523457075 2.114974861910923e-15 8.499999999999998
    vertex -22.09859809111086 4.399923766742867 8.551111260566396
    vertex -22.09859809111086 2.114974861910923e-15 8.551111260566396
  endloop
endfacet
facet normal 0.13052619222005168 0.0 0.9914448613738105
  outer loop
    vertex -22.09859809111086 4.399923766742867 8.551111260566396
    vertex -21.710369523457075 2.114974861910923e-15 8.499999999999998
    vertex -21.710369523457075 4.399923766742867 8.499999999999998
  endloop
endfacet
facet normal 0.38268343236509006 0.0 0.9238795325112867
  outer loop
    vertex -22.09859809111086 2.114974861910923e-15 8.551111260566396
    vertex -22.46036952345708 4.399923766742867 8.700961894323342
    vertex -22.46036952345708 2.114974861910923e-15 8.700961894323342
  endloop
endfacet
facet normal 0.38268343236509006 0.0 0.9238795325112867
  outer loop
    vertex -22.46036952345708 4.399923766742867 8.700961894323342
    vertex -22.09859809111086 2.114974861910923e-15 8.551111260566396
    vertex -22.09859809111086 4.399923766742867 8.551111260566396
  endloop
endfacet
facet normal 0.608761429008722 0.0 0.7933533402912343
  outer loop
    vertex -22.46036952345708 2.114974861910923e-15 8.700961894323342
    vertex -22.771029695236898 4.399923766742867 8.939339828220177
    vertex -22.771029695236898 2.114974861910923e-15 8.939339828220177
  endloop
endfacet
facet normal 0.608761429008722 0.0 0.7933533402912343
  outer loop
    vertex -22.771029695236898 4.399923766742867 8.939339828220177
    vertex -22.46036952345708 2.114974861910923e-15 8.700961894323342
    vertex -22.46036952345708 4.399923766742867 8.700961894323342
  endloop
endfacet
facet normal 0.7933533402912339 0.0 0.6087614290087225
  outer loop
    vertex -22.771029695236898 4.399923766742867 8.939339828220177
    vertex -23.009407629133737 2.114974861910923e-15 9.249999999999998
    vertex -22.771029695236898 2.114974861910923e-15 8.939339828220177
  endloop
endfacet
facet normal 0.7933533402912339 0.0 0.6087614290087225
  outer loop
    vertex -23.009407629133737 2.114974861910923e-15 9.249999999999998
    vertex -22.771029695236898 4.399923766742867 8.939339828220177
    vertex -23.009407629133737 4.399923766742867 9.249999999999998
  endloop
endfacet
facet normal 0.923879532511288 0.0 0.38268343236508695
  outer loop
    vertex -23.009407629133737 4.399923766742867 9.249999999999998
    vertex -23.159258262890678 2.114974861910923e-15 9.611771432346218
    vertex -23.009407629133737 2.114974861910923e-15 9.249999999999998
  endloop
endfacet
facet normal 0.923879532511288 0.0 0.38268343236508695
  outer loop
    vertex -23.159258262890678 2.114974861910923e-15 9.611771432346218
    vertex -23.009407629133737 4.399923766742867 9.249999999999998
    vertex -23.159258262890678 4.399923766742867 9.611771432346218
  endloop
endfacet
facet normal 0.9914448613738104 0.0 0.13052619222005216
  outer loop
    vertex -23.159258262890678 4.399923766742867 9.611771432346218
    vertex -23.210369523457075 2.114974861910923e-15 9.999999999999998
    vertex -23.159258262890678 2.114974861910923e-15 9.611771432346218
  endloop
endfacet
facet normal 0.9914448613738104 0.0 0.13052619222005216
  outer loop
    vertex -23.210369523457075 2.114974861910923e-15 9.999999999999998
    vertex -23.159258262890678 4.399923766742867 9.611771432346218
    vertex -23.210369523457075 4.399923766742867 9.999999999999998
  endloop
endfacet
facet normal 0.9914448613738105 -0.0 -0.13052619222005168
  outer loop
    vertex -23.210369523457075 4.399923766742867 9.999999999999998
    vertex -23.159258262890678 2.114974861910923e-15 10.38822856765378
    vertex -23.210369523457075 2.114974861910923e-15 9.999999999999998
  endloop
endfacet
facet normal 0.9914448613738105 -0.0 -0.13052619222005168
  outer loop
    vertex -23.159258262890678 2.114974861910923e-15 10.38822856765378
    vertex -23.210369523457075 4.399923766742867 9.999999999999998
    vertex -23.159258262890678 4.399923766742867 10.38822856765378
  endloop
endfacet
facet normal 0.9238795325112874 -0.0 -0.3826834323650882
  outer loop
    vertex -23.159258262890678 4.399923766742867 10.38822856765378
    vertex -23.009407629133737 2.114974861910923e-15 10.749999999999998
    vertex -23.159258262890678 2.114974861910923e-15 10.38822856765378
  endloop
endfacet
facet normal 0.9238795325112874 -0.0 -0.3826834323650882
  outer loop
    vertex -23.009407629133737 2.114974861910923e-15 10.749999999999998
    vertex -23.159258262890678 4.399923766742867 10.38822856765378
    vertex -23.009407629133737 4.399923766742867 10.749999999999998
  endloop
endfacet
facet normal 0.7933533402912339 -0.0 -0.6087614290087225
  outer loop
    vertex -23.009407629133737 4.399923766742867 10.749999999999998
    vertex -22.771029695236898 2.114974861910923e-15 11.06066017177982
    vertex -23.009407629133737 2.114974861910923e-15 10.749999999999998
  endloop
endfacet
facet normal 0.7933533402912339 -0.0 -0.6087614290087225
  outer loop
    vertex -22.771029695236898 2.114974861910923e-15 11.06066017177982
    vertex -23.009407629133737 4.399923766742867 10.749999999999998
    vertex -22.771029695236898 4.399923766742867 11.06066017177982
  endloop
endfacet
facet normal 0.6087614290087208 -0.0 -0.7933533402912353
  outer loop
    vertex -22.460369523457075 4.399923766742867 11.299038105676658
    vertex -22.771029695236898 2.114974861910923e-15 11.06066017177982
    vertex -22.771029695236898 4.399923766742867 11.06066017177982
  endloop
endfacet
facet normal 0.6087614290087208 -0.0 -0.7933533402912353
  outer loop
    vertex -22.771029695236898 2.114974861910923e-15 11.06066017177982
    vertex -22.460369523457075 4.399923766742867 11.299038105676658
    vertex -22.460369523457075 2.114974861910923e-15 11.299038105676658
  endloop
endfacet
facet normal 0.3826834323650895 -0.0 -0.9238795325112868
  outer loop
    vertex -22.09859809111086 4.399923766742867 11.4488887394336
    vertex -22.460369523457075 2.114974861910923e-15 11.299038105676658
    vertex -22.460369523457075 4.399923766742867 11.299038105676658
  endloop
endfacet
facet normal 0.3826834323650895 -0.0 -0.9238795325112868
  outer loop
    vertex -22.460369523457075 2.114974861910923e-15 11.299038105676658
    vertex -22.09859809111086 4.399923766742867 11.4488887394336
    vertex -22.09859809111086 2.114974861910923e-15 11.4488887394336
  endloop
endfacet
facet normal 0.13052619222005168 -0.0 -0.9914448613738105
  outer loop
    vertex -21.710369523457075 4.399923766742867 11.499999999999998
    vertex -22.09859809111086 2.114974861910923e-15 11.4488887394336
    vertex -22.09859809111086 4.399923766742867 11.4488887394336
  endloop
endfacet
facet normal 0.13052619222005168 -0.0 -0.9914448613738105
  outer loop
    vertex -22.09859809111086 2.114974861910923e-15 11.4488887394336
    vertex -21.710369523457075 4.399923766742867 11.499999999999998
    vertex -21.710369523457075 2.114974861910923e-15 11.499999999999998
  endloop
endfacet
facet normal -0.13052619222005168 -0.0 -0.9914448613738105
  outer loop
    vertex -21.322140955803295 4.399923766742867 11.4488887394336
    vertex -21.710369523457075 2.114974861910923e-15 11.499999999999998
    vertex -21.710369523457075 4.399923766742867 11.499999999999998
  endloop
endfacet
facet normal -0.13052619222005168 -0.0 -0.9914448613738105
  outer loop
    vertex -21.710369523457075 2.114974861910923e-15 11.499999999999998
    vertex -21.322140955803295 4.399923766742867 11.4488887394336
    vertex -21.322140955803295 2.114974861910923e-15 11.4488887394336
  endloop
endfacet
facet normal -0.38268343236509006 -0.0 -0.9238795325112867
  outer loop
    vertex -20.960369523457075 4.399923766742867 11.299038105676656
    vertex -21.322140955803295 2.114974861910923e-15 11.4488887394336
    vertex -21.322140955803295 4.399923766742867 11.4488887394336
  endloop
endfacet
facet normal -0.38268343236509006 -0.0 -0.9238795325112867
  outer loop
    vertex -21.322140955803295 2.114974861910923e-15 11.4488887394336
    vertex -20.960369523457075 4.399923766742867 11.299038105676656
    vertex -20.960369523457075 2.114974861910923e-15 11.299038105676656
  endloop
endfacet
facet normal -0.608761429008722 -0.0 -0.7933533402912343
  outer loop
    vertex -20.649709351677256 4.399923766742867 11.06066017177982
    vertex -20.960369523457075 2.114974861910923e-15 11.299038105676656
    vertex -20.960369523457075 4.399923766742867 11.299038105676656
  endloop
endfacet
facet normal -0.608761429008722 -0.0 -0.7933533402912343
  outer loop
    vertex -20.960369523457075 2.114974861910923e-15 11.299038105676656
    vertex -20.649709351677256 4.399923766742867 11.06066017177982
    vertex -20.649709351677256 2.114974861910923e-15 11.06066017177982
  endloop
endfacet
facet normal -0.7933533402912339 -0.0 -0.6087614290087225
  outer loop
    vertex -20.649709351677256 4.399923766742867 11.06066017177982
    vertex -20.411331417780417 2.114974861910923e-15 10.749999999999998
    vertex -20.649709351677256 2.114974861910923e-15 11.06066017177982
  endloop
endfacet
facet normal -0.7933533402912339 -0.0 -0.6087614290087225
  outer loop
    vertex -20.411331417780417 2.114974861910923e-15 10.749999999999998
    vertex -20.649709351677256 4.399923766742867 11.06066017177982
    vertex -20.411331417780417 4.399923766742867 10.749999999999998
  endloop
endfacet
facet normal -0.9238795325112874 -0.0 -0.3826834323650882
  outer loop
    vertex -20.411331417780417 4.399923766742867 10.749999999999998
    vertex -20.261480784023473 2.114974861910923e-15 10.38822856765378
    vertex -20.411331417780417 2.114974861910923e-15 10.749999999999998
  endloop
endfacet
facet normal -0.9238795325112874 -0.0 -0.3826834323650882
  outer loop
    vertex -20.261480784023473 2.114974861910923e-15 10.38822856765378
    vertex -20.411331417780417 4.399923766742867 10.749999999999998
    vertex -20.261480784023473 4.399923766742867 10.38822856765378
  endloop
endfacet
facet normal -0.9914448613738105 -0.0 -0.13052619222005168
  outer loop
    vertex -20.261480784023473 4.399923766742867 10.38822856765378
    vertex -20.210369523457075 2.114974861910923e-15 9.999999999999998
    vertex -20.261480784023473 2.114974861910923e-15 10.38822856765378
  endloop
endfacet
facet normal -0.9914448613738105 -0.0 -0.13052619222005168
  outer loop
    vertex -20.210369523457075 2.114974861910923e-15 9.999999999999998
    vertex -20.261480784023473 4.399923766742867 10.38822856765378
    vertex -20.210369523457075 4.399923766742867 9.999999999999998
  endloop
endfacet
facet normal -0.9914448613738106 -0.0 0.13052619222005124
  outer loop
    vertex -20.210369523457075 4.399923766742867 9.999999999999998
    vertex -20.261480784023473 2.114974861910923e-15 9.611771432346217
    vertex -20.210369523457075 2.114974861910923e-15 9.999999999999998
  endloop
endfacet
facet normal -0.9914448613738106 -0.0 0.13052619222005124
  outer loop
    vertex -20.261480784023473 2.114974861910923e-15 9.611771432346217
    vertex -20.210369523457075 4.399923766742867 9.999999999999998
    vertex -20.261480784023473 4.399923766742867 9.611771432346217
  endloop
endfacet
facet normal -0.9238795325112874 -0.0 0.3826834323650882
  outer loop
    vertex -20.261480784023473 4.399923766742867 9.611771432346217
    vertex -20.411331417780417 2.114974861910923e-15 9.249999999999996
    vertex -20.261480784023473 2.114974861910923e-15 9.611771432346217
  endloop
endfacet
facet normal -0.9238795325112874 -0.0 0.3826834323650882
  outer loop
    vertex -20.411331417780417 2.114974861910923e-15 9.249999999999996
    vertex -20.261480784023473 4.399923766742867 9.611771432346217
    vertex -20.411331417780417 4.399923766742867 9.249999999999996
  endloop
endfacet
facet normal -0.34819881376406453 -0.0 0.937420709230012
  outer loop
    vertex 22.41173634394736 4.93494134445882e-15 8.674072180277012
    vertex 22.04466247689532 4.399923766742846 8.537724984388525
    vertex 22.04466247689532 4.93494134445882e-15 8.537724984388525
  endloop
endfacet
facet normal -0.34819881376406453 -0.0 0.937420709230012
  outer loop
    vertex 22.04466247689532 4.399923766742846 8.537724984388525
    vertex 22.41173634394736 4.93494134445882e-15 8.674072180277012
    vertex 22.41173634394736 4.399923766742846 8.674072180277012
  endloop
endfacet
facet normal -0.09371189407569239 -0.0 0.9955993576277288
  outer loop
    vertex 22.04466247689532 4.93494134445882e-15 8.537724984388525
    vertex 21.65480709751169 4.399923766742846 8.501029414290239
    vertex 21.65480709751169 4.93494134445882e-15 8.501029414290239
  endloop
endfacet
facet normal -0.09371189407569239 -0.0 0.9955993576277288
  outer loop
    vertex 21.65480709751169 4.399923766742846 8.501029414290239
    vertex 22.04466247689532 4.93494134445882e-15 8.537724984388525
    vertex 22.04466247689532 4.399923766742846 8.537724984388525
  endloop
endfacet
facet normal 0.16716133632771646 0.0 0.9859295551088487
  outer loop
    vertex 21.65480709751169 4.93494134445882e-15 8.501029414290239
    vertex 21.268738205634985 4.399923766742846 8.566486212442056
    vertex 21.268738205634985 4.93494134445882e-15 8.566486212442056
  endloop
endfacet
facet normal 0.16716133632771646 0.0 0.9859295551088487
  outer loop
    vertex 21.268738205634985 4.399923766742846 8.566486212442056
    vertex 21.65480709751169 4.93494134445882e-15 8.501029414290239
    vertex 21.65480709751169 4.399923766742846 8.501029414290239
  endloop
endfacet
facet normal 0.41664279790756276 0.0 0.9090702827349257
  outer loop
    vertex 21.268738205634985 4.93494134445882e-15 8.566486212442056
    vertex 20.9127657582376 4.399923766742846 8.729634606222403
    vertex 20.9127657582376 4.93494134445882e-15 8.729634606222403
  endloop
endfacet
facet normal 0.41664279790756276 0.0 0.9090702827349257
  outer loop
    vertex 20.9127657582376 4.399923766742846 8.729634606222403
    vertex 21.268738205634985 4.93494134445882e-15 8.566486212442056
    vertex 21.268738205634985 4.399923766742846 8.566486212442056
  endloop
endfacet
facet normal 0.6377307413447816 0.0 0.7702593729022942
  outer loop
    vertex 20.9127657582376 4.93494134445882e-15 8.729634606222403
    vertex 20.611148689337377 4.399923766742846 8.979356302210618
    vertex 20.611148689337377 4.93494134445882e-15 8.979356302210618
  endloop
endfacet
facet normal 0.6377307413447816 0.0 0.7702593729022942
  outer loop
    vertex 20.611148689337377 4.399923766742846 8.979356302210618
    vertex 20.9127657582376 4.93494134445882e-15 8.729634606222403
    vertex 20.9127657582376 4.399923766742846 8.729634606222403
  endloop
endfacet
facet normal 0.8153583886592388 0.0 0.5789565597201659
  outer loop
    vertex 20.611148689337377 4.399923766742846 8.979356302210618
    vertex 20.384441703734094 4.93494134445882e-15 9.298633179509718
    vertex 20.611148689337377 4.93494134445882e-15 8.979356302210618
  endloop
endfacet
facet normal 0.8153583886592388 0.0 0.5789565597201659
  outer loop
    vertex 20.384441703734094 4.93494134445882e-15 9.298633179509718
    vertex 20.611148689337377 4.399923766742846 8.979356302210618
    vertex 20.384441703734094 4.399923766742846 9.298633179509718
  endloop
endfacet
facet normal 0.9374207092300092 0.0 0.3481988137640721
  outer loop
    vertex 20.384441703734094 4.399923766742846 9.298633179509718
    vertex 20.248094507845604 4.93494134445882e-15 9.665707046561758
    vertex 20.384441703734094 4.93494134445882e-15 9.298633179509718
  endloop
endfacet
facet normal 0.9374207092300092 0.0 0.3481988137640721
  outer loop
    vertex 20.248094507845604 4.93494134445882e-15 9.665707046561758
    vertex 20.384441703734094 4.399923766742846 9.298633179509718
    vertex 20.248094507845604 4.399923766742846 9.665707046561758
  endloop
endfacet
facet normal 0.9955993576277293 0.0 0.09371189407568849
  outer loop
    vertex 20.248094507845604 4.399923766742846 9.665707046561758
    vertex 20.21139893774732 4.93494134445882e-15 10.05556242594539
    vertex 20.248094507845604 4.93494134445882e-15 9.665707046561758
  endloop
endfacet
facet normal 0.9955993576277293 0.0 0.09371189407568849
  outer loop
    vertex 20.21139893774732 4.93494134445882e-15 10.05556242594539
    vertex 20.248094507845604 4.399923766742846 9.665707046561758
    vertex 20.21139893774732 4.399923766742846 10.05556242594539
  endloop
endfacet
facet normal 0.9859295551088479 -0.0 -0.16716133632772054
  outer loop
    vertex 20.21139893774732 4.399923766742846 10.05556242594539
    vertex 20.276855735899137 4.93494134445882e-15 10.441631317822091
    vertex 20.21139893774732 4.93494134445882e-15 10.05556242594539
  endloop
endfacet
facet normal 0.9859295551088479 -0.0 -0.16716133632772054
  outer loop
    vertex 20.276855735899137 4.93494134445882e-15 10.441631317822091
    vertex 20.21139893774732 4.399923766742846 10.05556242594539
    vertex 20.276855735899137 4.399923766742846 10.441631317822091
  endloop
endfacet
facet normal 0.9090702827349291 -0.0 -0.41664279790755543
  outer loop
    vertex 20.276855735899137 4.399923766742846 10.441631317822091
    vertex 20.440004129679483 4.93494134445882e-15 10.797603765219478
    vertex 20.276855735899137 4.93494134445882e-15 10.441631317822091
  endloop
endfacet
facet normal 0.9090702827349291 -0.0 -0.41664279790755543
  outer loop
    vertex 20.440004129679483 4.93494134445882e-15 10.797603765219478
    vertex 20.276855735899137 4.399923766742846 10.441631317822091
    vertex 20.440004129679483 4.399923766742846 10.797603765219478
  endloop
endfacet
facet normal 0.7702593729022924 -0.0 -0.6377307413447836
  outer loop
    vertex 20.440004129679483 4.399923766742846 10.797603765219478
    vertex 20.689725825667697 4.93494134445882e-15 11.099220834119702
    vertex 20.440004129679483 4.93494134445882e-15 10.797603765219478
  endloop
endfacet
facet normal 0.7702593729022924 -0.0 -0.6377307413447836
  outer loop
    vertex 20.689725825667697 4.93494134445882e-15 11.099220834119702
    vertex 20.440004129679483 4.399923766742846 10.797603765219478
    vertex 20.689725825667697 4.399923766742846 11.099220834119702
  endloop
endfacet
facet normal 0.5789565597201682 -0.0 -0.815358388659237
  outer loop
    vertex 21.0090027029668 4.399923766742846 11.325927819722985
    vertex 20.689725825667697 4.93494134445882e-15 11.099220834119702
    vertex 20.689725825667697 4.399923766742846 11.099220834119702
  endloop
endfacet
facet normal 0.5789565597201682 -0.0 -0.815358388659237
  outer loop
    vertex 20.689725825667697 4.93494134445882e-15 11.099220834119702
    vertex 21.0090027029668 4.399923766742846 11.325927819722985
    vertex 21.0090027029668 4.93494134445882e-15 11.325927819722985
  endloop
endfacet
facet normal 0.3481988137640677 -0.0 -0.9374207092300108
  outer loop
    vertex 21.376076570018842 4.399923766742846 11.462275015611473
    vertex 21.0090027029668 4.93494134445882e-15 11.325927819722985
    vertex 21.0090027029668 4.399923766742846 11.325927819722985
  endloop
endfacet
facet normal 0.3481988137640677 -0.0 -0.9374207092300108
  outer loop
    vertex 21.0090027029668 4.93494134445882e-15 11.325927819722985
    vertex 21.376076570018842 4.399923766742846 11.462275015611473
    vertex 21.376076570018842 4.93494134445882e-15 11.462275015611473
  endloop
endfacet
facet normal 0.09371189407568883 -0.0 -0.9955993576277292
  outer loop
    vertex 21.76593194940247 4.399923766742846 11.498970585709758
    vertex 21.376076570018842 4.93494134445882e-15 11.462275015611473
    vertex 21.376076570018842 4.399923766742846 11.462275015611473
  endloop
endfacet
facet normal 0.09371189407568883 -0.0 -0.9955993576277292
  outer loop
    vertex 21.376076570018842 4.93494134445882e-15 11.462275015611473
    vertex 21.76593194940247 4.399923766742846 11.498970585709758
    vertex 21.76593194940247 4.93494134445882e-15 11.498970585709758
  endloop
endfacet
facet normal -0.16716133632771646 -0.0 -0.9859295551088487
  outer loop
    vertex 22.152000841279172 4.399923766742846 11.433513787557942
    vertex 21.76593194940247 4.93494134445882e-15 11.498970585709758
    vertex 21.76593194940247 4.399923766742846 11.498970585709758
  endloop
endfacet
facet normal -0.16716133632771646 -0.0 -0.9859295551088487
  outer loop
    vertex 21.76593194940247 4.93494134445882e-15 11.498970585709758
    vertex 22.152000841279172 4.399923766742846 11.433513787557942
    vertex 22.152000841279172 4.93494134445882e-15 11.433513787557942
  endloop
endfacet
facet normal -0.41664279790756276 -0.0 -0.9090702827349257
  outer loop
    vertex 22.50797328867656 4.399923766742846 11.270365393777594
    vertex 22.152000841279172 4.93494134445882e-15 11.433513787557942
    vertex 22.152000841279172 4.399923766742846 11.433513787557942
  endloop
endfacet
facet normal -0.41664279790756276 -0.0 -0.9090702827349257
  outer loop
    vertex 22.152000841279172 4.93494134445882e-15 11.433513787557942
    vertex 22.50797328867656 4.399923766742846 11.270365393777594
    vertex 22.50797328867656 4.93494134445882e-15 11.270365393777594
  endloop
endfacet
facet normal -0.6377307413447816 -0.0 -0.7702593729022942
  outer loop
    vertex 22.809590357576784 4.399923766742846 11.02064369778938
    vertex 22.50797328867656 4.93494134445882e-15 11.270365393777594
    vertex 22.50797328867656 4.399923766742846 11.270365393777594
  endloop
endfacet
facet normal -0.6377307413447816 -0.0 -0.7702593729022942
  outer loop
    vertex 22.50797328867656 4.93494134445882e-15 11.270365393777594
    vertex 22.809590357576784 4.399923766742846 11.02064369778938
    vertex 22.809590357576784 4.93494134445882e-15 11.02064369778938
  endloop
endfacet
facet normal -0.8153583886592353 -0.0 -0.5789565597201707
  outer loop
    vertex 22.809590357576784 4.399923766742846 11.02064369778938
    vertex 23.036297343180067 4.93494134445882e-15 10.701366820490279
    vertex 22.809590357576784 4.93494134445882e-15 11.02064369778938
  endloop
endfacet
facet normal -0.8153583886592353 -0.0 -0.5789565597201707
  outer loop
    vertex 23.036297343180067 4.93494134445882e-15 10.701366820490279
    vertex 22.809590357576784 4.399923766742846 11.02064369778938
    vertex 23.036297343180067 4.399923766742846 10.701366820490279
  endloop
endfacet
facet normal -0.937420709230012 -0.0 -0.34819881376406453
  outer loop
    vertex 23.036297343180067 4.399923766742846 10.701366820490279
    vertex 23.172644539068553 4.93494134445882e-15 10.334292953438236
    vertex 23.036297343180067 4.93494134445882e-15 10.701366820490279
  endloop
endfacet
facet normal -0.937420709230012 -0.0 -0.34819881376406453
  outer loop
    vertex 23.172644539068553 4.93494134445882e-15 10.334292953438236
    vertex 23.036297343180067 4.399923766742846 10.701366820490279
    vertex 23.172644539068553 4.399923766742846 10.334292953438236
  endloop
endfacet
facet normal -0.9955993576277292 -0.0 -0.09371189407568883
  outer loop
    vertex 23.172644539068553 4.399923766742846 10.334292953438236
    vertex 23.20934010916684 4.93494134445882e-15 9.944437574054607
    vertex 23.172644539068553 4.93494134445882e-15 10.334292953438236
  endloop
endfacet
facet normal -0.9955993576277292 -0.0 -0.09371189407568883
  outer loop
    vertex 23.20934010916684 4.93494134445882e-15 9.944437574054607
    vertex 23.172644539068553 4.399923766742846 10.334292953438236
    vertex 23.20934010916684 4.399923766742846 9.944437574054607
  endloop
endfacet
facet normal -0.985929555108848 -0.0 0.16716133632771996
  outer loop
    vertex 23.20934010916684 4.399923766742846 9.944437574054607
    vertex 23.14388331101502 4.93494134445882e-15 9.558368682177905
    vertex 23.20934010916684 4.93494134445882e-15 9.944437574054607
  endloop
endfacet
facet normal -0.985929555108848 -0.0 0.16716133632771996
  outer loop
    vertex 23.14388331101502 4.93494134445882e-15 9.558368682177905
    vertex 23.20934010916684 4.399923766742846 9.944437574054607
    vertex 23.14388331101502 4.399923766742846 9.558368682177905
  endloop
endfacet
facet normal -0.9090702827349257 -0.0 0.41664279790756276
  outer loop
    vertex 23.14388331101502 4.399923766742846 9.558368682177905
    vertex 22.980734917234674 4.93494134445882e-15 9.202396234780519
    vertex 23.14388331101502 4.93494134445882e-15 9.558368682177905
  endloop
endfacet
facet normal -0.9090702827349257 -0.0 0.41664279790756276
  outer loop
    vertex 22.980734917234674 4.93494134445882e-15 9.202396234780519
    vertex 23.14388331101502 4.399923766742846 9.558368682177905
    vertex 22.980734917234674 4.399923766742846 9.202396234780519
  endloop
endfacet
facet normal -0.7702593729022961 -0.0 0.6377307413447795
  outer loop
    vertex 22.980734917234674 4.399923766742846 9.202396234780519
    vertex 22.73101322124646 4.93494134445882e-15 8.900779165880296
    vertex 22.980734917234674 4.93494134445882e-15 9.202396234780519
  endloop
endfacet
facet normal -0.7702593729022961 -0.0 0.6377307413447795
  outer loop
    vertex 22.73101322124646 4.93494134445882e-15 8.900779165880296
    vertex 22.980734917234674 4.399923766742846 9.202396234780519
    vertex 22.73101322124646 4.399923766742846 8.900779165880296
  endloop
endfacet
facet normal -0.5789565597201682 -0.0 0.815358388659237
  outer loop
    vertex 22.73101322124646 4.93494134445882e-15 8.900779165880296
    vertex 22.41173634394736 4.399923766742846 8.674072180277012
    vertex 22.41173634394736 4.93494134445882e-15 8.674072180277012
  endloop
endfacet
facet normal -0.5789565597201682 -0.0 0.815358388659237
  outer loop
    vertex 22.41173634394736 4.399923766742846 8.674072180277012
    vertex 22.73101322124646 4.93494134445882e-15 8.900779165880296
    vertex 22.73101322124646 4.399923766742846 8.900779165880296
  endloop
endfacet
endsolid Untitled-5f7e4d4f
